<?xml version="1.0" standalone="no"?>
<!DOCTYPE svg PUBLIC "-//W3C//DTD SVG 20010904//EN"
 "http://www.w3.org/TR/2001/REC-SVG-20010904/DTD/svg10.dtd">
<svg version="1.0" xmlns="http://www.w3.org/2000/svg"
 width="700.000000pt" height="700.000000pt" viewBox="0 0 700.000000 700.000000"
 preserveAspectRatio="xMidYMid meet">
<metadata>
Created by potrace 1.11, written by Peter Selinger 2001-2013
</metadata>
<g transform="translate(0.000000,700.000000) scale(0.100000,-0.100000)"
fill="#000000" stroke="none">
<path d="M3410 6859 c-105 -20 -229 -108 -284 -202 -50 -85 -58 -123 -62 -287
-1 -85 -3 -160 -3 -167 -1 -7 -26 -24 -56 -39 -87 -41 -168 -122 -212 -213
-20 -42 -37 -77 -38 -77 0 -3 -161 -22 -316 -39 -31 -3 -65 -7 -75 -9 -11 -2
-50 -7 -89 -10 -38 -4 -81 -9 -95 -11 -25 -4 -46 -6 -215 -25 -49 -6 -110 -12
-135 -15 -25 -3 -106 -12 -180 -21 -74 -8 -146 -17 -160 -19 -14 -2 -56 -7
-95 -10 -38 -4 -81 -8 -95 -10 -28 -5 -258 -32 -335 -40 -220 -23 -356 -78
-504 -204 -116 -99 -218 -278 -248 -436 -9 -45 -9 -304 -1 -327 5 -12 19 -12
102 -2 53 7 124 15 159 19 34 3 78 8 97 10 19 2 60 7 90 10 55 6 90 11 153 19
17 3 64 8 102 11 39 3 83 8 98 11 l29 6 -6 -48 c-4 -27 -9 -56 -11 -64 -2 -8
-7 -31 -10 -50 -3 -19 -15 -84 -25 -145 -11 -60 -22 -126 -25 -145 -3 -19 -14
-80 -25 -135 -10 -55 -21 -118 -24 -140 -11 -71 -17 -95 -27 -95 -19 0 -172
-81 -233 -123 -221 -153 -389 -376 -467 -619 -20 -65 -22 -71 -44 -188 -14
-73 -14 -297 -1 -365 3 -16 9 -46 13 -65 3 -19 7 -37 8 -40 1 -3 7 -25 14 -50
26 -92 86 -218 152 -317 l68 -103 -155 0 c-143 0 -155 -1 -150 -17 3 -10 68
-205 144 -433 l139 -415 948 0 949 0 142 425 c79 234 143 428 143 433 1 4 -69
7 -154 7 l-155 0 54 78 c151 216 219 447 211 712 -5 192 -42 345 -120 500
-115 231 -332 441 -565 550 -41 19 -76 35 -78 36 -2 1 -5 12 -7 25 -2 13 -8
51 -14 84 -6 33 -13 76 -16 95 -3 19 -19 107 -35 195 -16 88 -32 176 -35 195
-3 19 -15 84 -25 144 -23 129 -24 143 -7 143 20 0 141 13 162 17 11 2 49 7 85
11 36 3 76 8 90 10 14 2 52 6 86 10 33 3 71 7 85 10 13 2 51 6 84 10 80 8 132
14 175 20 19 2 121 14 225 25 105 12 200 23 213 25 13 2 54 7 92 11 l68 6 17
-33 c10 -19 29 -49 43 -68 l25 -34 0 -1716 c0 -944 -3 -1734 -7 -1755 -14 -72
-61 -147 -122 -196 -36 -29 -94 -50 -206 -75 -206 -47 -316 -102 -428 -215
-135 -134 -207 -307 -214 -512 l-1 -43 -760 -5 -760 -5 0 -95 c0 -52 3 -99 7
-105 4 -7 991 -10 2930 -9 l2923 0 3 107 3 107 -759 0 -759 0 -6 88 c-20 273
-166 493 -407 613 -37 18 -132 49 -219 70 -217 53 -285 103 -332 242 -16 48
-17 162 -18 1775 l0 1723 39 60 c21 33 48 88 60 122 11 34 24 67 28 74 4 6 32
14 62 18 30 3 66 8 80 10 23 3 63 8 165 20 96 10 142 16 170 19 17 2 59 7 95
11 36 3 76 8 90 10 14 2 54 7 90 10 36 4 72 9 80 10 8 1 49 6 90 10 41 4 83 9
92 10 9 2 48 7 85 10 37 4 75 9 83 10 8 2 46 6 84 10 64 7 68 6 62 -11 -3 -11
-7 -30 -10 -44 -2 -14 -12 -59 -21 -100 -9 -41 -19 -86 -21 -100 -3 -14 -20
-96 -39 -182 -32 -145 -42 -193 -44 -209 -1 -4 -47 -29 -104 -57 -399 -195
-654 -590 -670 -1037 -3 -100 4 -174 28 -300 23 -116 101 -291 181 -408 30
-43 54 -80 54 -83 0 -2 -69 -4 -153 -4 l-154 0 145 -435 145 -435 947 0 947 0
146 435 145 435 -154 0 c-85 0 -154 2 -154 4 0 3 24 40 54 83 412 599 194
1425 -461 1745 -57 28 -103 51 -103 53 0 6 -21 110 -40 195 -12 52 -23 104
-25 116 -8 37 -64 298 -75 352 -7 29 -10 55 -8 57 1 1 30 6 63 9 33 3 76 8 95
11 33 4 92 11 170 20 19 3 60 7 90 10 30 3 71 7 90 10 19 2 60 7 90 10 30 4
66 8 80 10 14 2 52 6 85 10 126 13 170 21 169 30 -1 6 -4 42 -7 81 -11 135
-78 301 -169 419 -99 127 -281 237 -453 274 -65 13 -318 6 -435 -14 -14 -2
-54 -7 -90 -11 -36 -3 -78 -8 -95 -10 -16 -2 -52 -6 -80 -9 -27 -3 -61 -7 -75
-10 -14 -2 -52 -7 -85 -10 -33 -3 -94 -10 -135 -15 -41 -5 -102 -12 -135 -15
-33 -3 -76 -8 -95 -10 -19 -3 -57 -7 -85 -10 -71 -8 -124 -15 -165 -20 -40 -5
-103 -12 -175 -20 -52 -6 -187 -23 -240 -30 -16 -2 -64 -7 -105 -11 -41 -3
-78 -8 -82 -10 -3 -2 -31 20 -61 49 -30 29 -82 65 -115 81 l-61 29 0 146 c1
203 -22 283 -110 382 -99 113 -258 166 -411 138z m172 -228 c46 -20 102 -76
120 -120 6 -14 11 -86 13 -158 l2 -133 -36 -1 c-147 -4 -385 -3 -393 2 -6 4
-8 60 -6 141 3 129 4 137 33 184 55 90 170 127 267 85z m2686 -627 c139 -46
251 -140 316 -264 45 -86 46 -100 4 -101 -18 0 -40 -2 -49 -4 -8 -1 -42 -6
-75 -9 -32 -4 -72 -9 -89 -11 -40 -6 -106 -13 -180 -20 -33 -3 -91 -10 -130
-15 -38 -5 -95 -12 -125 -15 -54 -6 -93 -10 -167 -20 -21 -2 -60 -7 -88 -10
-126 -13 -290 -32 -350 -40 -16 -2 -55 -7 -85 -10 -54 -5 -70 -7 -220 -25 -41
-5 -100 -12 -130 -15 -30 -4 -66 -8 -80 -10 -34 -5 -149 -18 -180 -20 -62 -5
-166 -17 -180 -20 -8 -2 -46 -7 -85 -11 -38 -3 -77 -8 -85 -9 -41 -8 -140 -16
-140 -12 0 3 20 58 45 124 52 137 68 214 60 287 -4 39 -2 53 7 53 7 1 36 4 63
7 104 13 151 19 175 21 47 4 155 17 170 20 9 2 47 6 85 10 39 3 84 8 100 10
17 2 50 6 75 9 100 12 227 27 260 31 19 3 55 7 80 9 108 11 167 17 190 21 14
3 50 7 80 10 30 3 66 7 80 10 14 2 54 7 90 10 36 4 76 8 90 10 14 2 54 7 90
11 36 3 90 10 120 13 89 10 179 2 258 -25z m-2378 -28 c49 -26 98 -74 123
-121 17 -31 21 -57 21 -115 -1 -71 -7 -92 -111 -365 -121 -321 -131 -342 -172
-384 -61 -62 -102 -75 -251 -75 -125 -1 -139 1 -183 24 -77 39 -109 83 -161
221 -26 68 -52 133 -56 144 -5 11 -39 101 -76 200 -54 145 -67 191 -67 237 1
106 70 206 170 243 30 11 108 13 383 12 315 -2 348 -4 380 -21z m-1140 -340
c0 -9 34 -106 75 -216 41 -110 75 -202 75 -204 0 -2 -31 -6 -69 -10 -38 -4
-80 -9 -93 -11 -13 -2 -48 -6 -78 -9 -30 -4 -93 -11 -140 -16 -47 -6 -107 -13
-135 -16 -27 -2 -66 -7 -85 -9 -55 -7 -290 -35 -340 -40 -75 -8 -121 -13 -215
-25 -49 -6 -108 -13 -130 -15 -22 -3 -60 -7 -85 -10 -43 -5 -83 -9 -180 -20
-111 -12 -137 -15 -160 -19 -14 -3 -56 -8 -95 -11 -38 -4 -99 -10 -135 -15
-36 -5 -92 -12 -124 -16 -33 -3 -68 -7 -78 -9 -10 -2 -55 -7 -101 -11 -45 -3
-84 -8 -88 -10 -3 -1 -37 -6 -77 -10 -82 -7 -80 -11 -57 81 34 136 142 282
257 349 79 46 145 66 273 81 28 3 64 8 80 10 17 2 50 6 75 9 25 3 65 8 90 11
25 2 68 7 95 10 55 6 126 14 165 20 14 2 52 6 85 10 33 3 94 10 135 15 86 11
126 15 265 30 96 10 139 15 215 25 19 2 56 7 83 10 54 6 97 11 217 25 47 5
112 13 145 16 33 4 61 7 62 8 1 1 18 3 38 4 25 2 35 -1 35 -12z m2974 -333 c3
-10 12 -54 21 -97 9 -44 17 -82 19 -85 2 -3 7 -22 10 -41 8 -49 75 -372 81
-387 3 -10 -10 -11 -53 -6 -73 9 -203 9 -264 0 -43 -6 -48 -5 -48 12 0 18 17
103 56 272 8 36 16 74 18 85 45 228 52 252 79 256 62 9 76 8 81 -9z m-4344
-489 c0 -8 47 -277 60 -339 5 -27 11 -61 14 -75 12 -80 19 -117 23 -135 2 -11
11 -60 19 -110 8 -49 17 -98 20 -108 5 -17 0 -18 -63 -11 -83 9 -185 9 -265 0
-55 -7 -59 -6 -55 11 6 20 14 61 22 113 3 19 13 71 21 115 8 44 17 96 20 115
2 19 11 67 19 105 7 39 16 90 20 115 3 25 8 52 10 60 2 8 7 33 10 55 4 22 8
47 10 55 2 8 4 18 4 22 1 4 20 9 44 11 23 2 48 4 55 5 6 1 12 -1 12 -4z m2094
-118 c91 -2 160 3 229 17 8 1 11 -439 13 -1668 1 -1531 3 -1675 18 -1730 44
-157 168 -297 315 -355 29 -11 104 -32 169 -46 150 -33 244 -78 320 -154 94
-93 147 -213 151 -342 l2 -68 -1194 0 -1195 0 4 67 c4 82 6 93 32 161 45 118
134 218 244 273 32 16 125 45 205 65 176 42 244 75 333 164 64 63 127 167 147
245 4 17 9 787 10 1711 l3 1682 43 -10 c23 -5 91 -11 151 -12z m2402 -240
c376 -81 671 -379 750 -756 24 -113 24 -297 -1 -405 -45 -203 -145 -373 -303
-517 l-41 -38 -251 0 -250 0 0 110 0 109 108 -2 109 -2 -2 201 -1 201 -32 66
c-57 116 -163 184 -287 186 -29 1 -50 9 -74 29 -33 27 -34 31 -37 109 l-3 81
60 1 c83 1 122 -17 145 -68 11 -22 24 -41 29 -41 6 -1 53 -1 105 -2 l95 0 -2
31 c-5 96 -87 217 -172 256 l-41 18 0 119 0 118 -32 1 c-37 1 -143 1 -170 0
-16 -1 -18 -12 -17 -88 0 -49 0 -97 0 -108 -1 -20 -7 -21 -109 -20 l-108 1 1
-201 c2 -192 3 -202 28 -257 49 -108 157 -184 274 -193 98 -8 133 -48 133
-156 l0 -66 -76 3 c-67 2 -80 6 -104 29 -15 15 -30 39 -33 53 l-5 27 -104 -1
c-57 -1 -106 -2 -109 -3 -14 -2 4 -81 32 -138 31 -65 90 -125 147 -149 34 -15
33 -11 33 -134 0 -27 0 -66 0 -85 l-1 -34 -251 -1 -250 0 -61 58 c-248 236
-348 558 -283 912 28 150 137 352 257 473 152 154 360 260 553 283 28 4 52 8
54 10 10 9 234 -6 297 -20z m-4352 -651 c389 -82 686 -385 761 -778 15 -80 21
-241 10 -302 -24 -133 -58 -244 -96 -311 -10 -19 -29 -51 -40 -71 -33 -59
-116 -159 -172 -208 l-52 -45 -250 0 -251 0 0 108 0 108 106 0 105 1 0 204 c0
204 0 204 -28 262 -51 102 -150 172 -261 182 -103 10 -138 46 -138 142 0 85
-6 80 73 77 82 -2 118 -22 134 -72 10 -34 9 -33 100 -33 25 0 64 0 86 0 l42 1
-6 45 c-13 94 -91 201 -174 239 l-39 17 1 107 c0 59 -1 113 -3 120 -3 8 -34
12 -108 12 -76 0 -104 -3 -105 -12 -1 -7 -2 -56 -3 -108 l-1 -95 -90 -2 c-49
-1 -98 -2 -108 -2 -17 -1 -18 -13 -15 -203 3 -187 5 -207 26 -253 47 -102 156
-181 265 -191 106 -10 137 -41 139 -137 1 -91 6 -85 -74 -82 -82 4 -117 23
-133 73 -6 22 -16 32 -30 33 -28 1 -167 1 -184 0 -18 -1 -6 -80 22 -139 24
-53 90 -119 143 -147 l40 -20 0 -118 1 -117 -254 0 -255 0 -77 78 c-227 232
-322 535 -266 855 93 536 625 895 1159 782z m5073 -1290 c2 -6 -28 -102 -65
-215 l-69 -205 -793 0 -793 0 -68 205 c-37 113 -68 210 -69 215 0 14 1852 14
1857 0z m-4342 -662 c-3 -10 -36 -106 -72 -213 -35 -107 -66 -197 -68 -199 -5
-4 -1575 -4 -1580 1 -3 3 -109 317 -130 386 l-13 42 935 0 c887 0 935 -1 928
-17z"/>
<path d="M3410 5771 c-166 -53 -267 -223 -229 -386 42 -179 228 -291 400 -242
190 56 287 248 218 433 -27 72 -104 151 -175 180 -52 22 -167 30 -214 15z
m157 -232 c58 -49 44 -154 -23 -179 -101 -39 -189 54 -140 148 29 57 112 72
163 31z"/>
<path d="M2959 785 c-1 0 -2 -48 -3 -107 l-2 -108 108 0 108 0 0 108 0 108
-105 0 c-58 0 -106 0 -106 -1z"/>
<path d="M3390 678 l0 -108 108 0 107 0 1 105 c1 58 -2 106 -5 106 -3 1 -52 2
-108 3 l-103 2 0 -108z"/>
<path d="M3829 786 c-1 -1 -2 -49 -4 -108 l-2 -108 109 0 109 0 -3 108 -3 107
-102 1 c-57 0 -104 0 -104 0z"/>
<path d="M132 243 l3 -107 105 0 105 0 3 107 3 107 -111 0 -111 0 3 -107z"/>
<path d="M6650 245 c0 -58 3 -105 8 -106 24 -3 189 -4 197 -2 7 2 10 44 10
106 l-1 102 -107 3 -107 3 0 -106z"/>
</g>
</svg>
