<?xml version="1.0" encoding="UTF-8"?>
<svg xmlns="http://www.w3.org/2000/svg" xmlns:xlink="http://www.w3.org/1999/xlink" width="375pt" height="374.999991pt" viewBox="0 0 375 374.999991" version="1.2">
<defs>
<clipPath id="clip1">
  <path d="M 306 180 L 359.332031 180 L 359.332031 239 L 306 239 Z M 306 180 "/>
</clipPath>
<clipPath id="clip2">
  <path d="M 17 20 L 250 20 L 250 371.910156 L 17 371.910156 Z M 17 20 "/>
</clipPath>
</defs>
<g id="surface1">
<path style=" stroke:none;fill-rule:nonzero;fill:#ca8153;fill-opacity:1;" d="M 81.449219 7.640625 C 62.507812 8.75 48.050781 24.984375 49.160156 43.90625 C 50.269531 62.832031 66.523438 77.273438 85.464844 76.167969 C 104.402344 75.058594 118.863281 58.824219 117.753906 39.898438 C 116.644531 20.976562 100.390625 6.53125 81.449219 7.640625 Z M 108.65625 50.613281 C 110.171875 56.605469 103.007812 63.578125 92.652344 66.195312 C 82.296875 68.8125 72.671875 66.078125 71.15625 60.085938 C 69.640625 54.097656 79.550781 57.96875 89.90625 55.351562 C 100.261719 52.734375 107.140625 44.625 108.65625 50.613281 Z M 108.65625 50.613281 "/>
<path style=" stroke:none;fill-rule:nonzero;fill:#ca8153;fill-opacity:1;" d="M 82.0625 251.183594 C 75.359375 250.460938 69.585938 249.070312 64.660156 247.359375 C 58.539062 278.484375 46.453125 310.652344 24.214844 338.28125 C 17.609375 346.488281 18.910156 358.488281 27.125 365.089844 C 30.652344 367.921875 34.875 369.296875 39.074219 369.296875 C 44.65625 369.296875 50.191406 366.863281 53.960938 362.179688 C 81.601562 327.84375 96.015625 288.449219 102.929688 251.058594 C 99.699219 251.523438 96.253906 251.769531 92.585938 251.769531 C 89.25 251.773438 85.707031 251.574219 82.0625 251.183594 Z M 82.0625 251.183594 "/>
<path style=" stroke:none;fill-rule:nonzero;fill:#22584c;fill-opacity:1;" d="M 69.472656 164.90625 C 69.480469 165.050781 69.488281 165.195312 69.496094 165.339844 C 69.628906 165.261719 69.757812 165.183594 69.886719 165.105469 Z M 69.472656 164.90625 "/>
<path style=" stroke:none;fill-rule:nonzero;fill:#22584c;fill-opacity:1;" d="M 339.988281 88.550781 C 344.667969 80.75 349.34375 72.949219 354.023438 65.148438 C 344.167969 47.800781 319.152344 55.730469 309.296875 38.382812 C 304.617188 46.183594 299.941406 53.984375 295.261719 61.785156 C 305.121094 79.132812 330.132812 71.203125 339.988281 88.550781 Z M 319.257812 72.453125 C 315.03125 71.390625 312.816406 68.109375 313.019531 64.488281 C 310.839844 63.640625 308.75 62.644531 306.832031 61.359375 C 307.109375 60.894531 307.386719 60.433594 307.664062 59.96875 C 309.410156 61.140625 311.296875 62.078125 313.265625 62.875 C 313.488281 61.980469 313.851562 61.085938 314.375 60.210938 C 314.894531 59.347656 315.539062 58.566406 316.273438 57.871094 C 314.300781 57.070312 312.414062 56.136719 310.667969 54.964844 C 310.945312 54.5 311.222656 54.039062 311.5 53.574219 C 313.421875 54.863281 315.519531 55.859375 317.707031 56.707031 C 321.121094 54.3125 325.828125 53.421875 330.035156 54.480469 C 334.257812 55.539062 336.472656 58.820312 336.269531 62.441406 C 338.453125 63.289062 340.542969 64.285156 342.460938 65.570312 C 342.179688 66.035156 341.902344 66.496094 341.625 66.960938 C 339.878906 65.789062 337.996094 64.851562 336.023438 64.058594 C 335.800781 64.949219 335.4375 65.84375 334.917969 66.71875 C 334.398438 67.582031 333.75 68.363281 333.015625 69.058594 C 334.988281 69.859375 336.878906 70.792969 338.625 71.964844 C 338.347656 72.429688 338.066406 72.890625 337.789062 73.355469 C 335.867188 72.066406 333.773438 71.070312 331.585938 70.222656 C 328.167969 72.617188 323.464844 73.507812 319.257812 72.453125 Z M 319.257812 72.453125 "/>
<path style=" stroke:none;fill-rule:nonzero;fill:#22584c;fill-opacity:1;" d="M 327.789062 67.152344 C 328.949219 65.214844 328.035156 64.054688 325.855469 62.910156 C 326.859375 61.679688 327.859375 60.449219 328.863281 59.21875 C 330.171875 59.964844 330.105469 61.117188 329.785156 62.738281 C 330.066406 62.820312 330.347656 62.902344 330.628906 62.988281 C 331.335938 61.660156 332.050781 60.332031 332.761719 59.003906 C 332.558594 58.945312 332.359375 58.886719 332.160156 58.828125 C 331.816406 59.070312 331.652344 59.246094 331.339844 59.152344 C 330.878906 59.023438 330.46875 58.664062 329.621094 58.285156 C 330.042969 57.769531 330.464844 57.253906 330.886719 56.742188 C 330.578125 56.613281 330.265625 56.488281 329.953125 56.363281 C 329.527344 56.886719 329.101562 57.410156 328.671875 57.929688 C 328.515625 57.863281 328.34375 57.824219 328.148438 57.765625 C 324.921875 56.902344 322.28125 57.902344 321.058594 59.941406 C 319.683594 62.238281 321.425781 63.441406 323.328125 64.480469 C 322.425781 65.589844 321.519531 66.703125 320.617188 67.816406 C 319.757812 67.316406 319.457031 66.5 319.769531 64.929688 C 319.511719 64.859375 319.253906 64.78125 318.992188 64.707031 C 318.40625 65.785156 317.816406 66.859375 317.226562 67.9375 C 317.40625 67.988281 317.582031 68.039062 317.757812 68.089844 C 318.027344 67.921875 318.210938 67.855469 318.503906 67.9375 C 318.84375 68.03125 319.242188 68.363281 319.886719 68.707031 C 319.460938 69.222656 319.042969 69.738281 318.617188 70.25 C 318.921875 70.375 319.226562 70.496094 319.53125 70.621094 C 319.953125 70.105469 320.375 69.589844 320.800781 69.074219 C 320.960938 69.144531 321.101562 69.179688 321.273438 69.226562 C 324.328125 70.042969 326.726562 68.925781 327.789062 67.152344 Z M 323.34375 59.824219 C 324.066406 58.617188 325.621094 58.195312 327.621094 58.738281 C 327.730469 58.765625 327.832031 58.792969 327.941406 58.824219 C 326.957031 60.035156 325.976562 61.246094 324.996094 62.460938 C 323.265625 61.507812 322.652344 60.96875 323.34375 59.824219 Z M 321.886719 68.300781 C 321.765625 68.269531 321.640625 68.238281 321.519531 68.203125 C 322.410156 67.113281 323.300781 66.019531 324.191406 64.929688 C 325.492188 65.691406 326.070312 66.246094 325.445312 67.285156 C 324.808594 68.351562 323.375 68.699219 321.886719 68.300781 Z M 321.886719 68.300781 "/>
<path style=" stroke:none;fill-rule:nonzero;fill:#22584c;fill-opacity:1;" d="M 240.902344 156.109375 C 246.78125 163.050781 252.660156 169.996094 258.542969 176.9375 C 278.160156 173.222656 278.726562 147.007812 298.34375 143.292969 C 292.464844 136.351562 286.582031 129.40625 280.703125 122.464844 C 261.082031 126.179688 260.519531 152.394531 240.902344 156.109375 Z M 283.234375 140.464844 C 281.394531 141.863281 279.769531 143.523438 278.261719 145.320312 C 279.429688 149.320312 278.753906 154.058594 276.394531 157.695312 C 274.027344 161.347656 270.199219 162.382812 266.835938 161.023438 C 265.332031 162.8125 263.710938 164.464844 261.875 165.863281 C 261.527344 165.453125 261.175781 165.039062 260.828125 164.625 C 262.5 163.355469 263.996094 161.875 265.386719 160.269531 C 264.613281 159.769531 263.882812 159.136719 263.226562 158.359375 C 262.574219 157.589844 262.042969 156.726562 261.617188 155.804688 C 260.226562 157.414062 258.730469 158.898438 257.054688 160.171875 C 256.707031 159.757812 256.355469 159.347656 256.007812 158.933594 C 257.847656 157.535156 259.472656 155.875 260.980469 154.078125 C 259.8125 150.074219 260.492188 145.339844 262.847656 141.703125 C 265.21875 138.054688 269.039062 137.015625 272.40625 138.378906 C 273.914062 136.589844 275.53125 134.933594 277.367188 133.535156 C 277.714844 133.949219 278.066406 134.359375 278.414062 134.773438 C 276.742188 136.042969 275.246094 137.527344 273.859375 139.128906 C 274.628906 139.632812 275.363281 140.261719 276.019531 141.039062 C 276.671875 141.808594 277.203125 142.671875 277.625 143.589844 C 279.019531 141.980469 280.515625 140.5 282.1875 139.226562 C 282.535156 139.640625 282.886719 140.050781 283.234375 140.464844 Z M 283.234375 140.464844 "/>
<path style=" stroke:none;fill-rule:nonzero;fill:#22584c;fill-opacity:1;" d="M 274.132812 147.914062 C 272.671875 146.191406 271.273438 146.683594 269.488281 148.375 C 268.644531 147.03125 267.800781 145.683594 266.960938 144.339844 C 268.089844 143.34375 269.164062 143.777344 270.59375 144.605469 C 270.761719 144.363281 270.933594 144.125 271.101562 143.886719 C 270.074219 142.789062 269.046875 141.6875 268.019531 140.585938 C 267.898438 140.753906 267.773438 140.925781 267.65625 141.097656 C 267.773438 141.5 267.886719 141.714844 267.699219 141.980469 C 267.425781 142.371094 266.953125 142.644531 266.320312 143.324219 C 265.96875 142.757812 265.617188 142.191406 265.265625 141.628906 C 265.046875 141.882812 264.828125 142.136719 264.605469 142.390625 C 264.964844 142.964844 265.320312 143.535156 265.679688 144.105469 C 265.5625 144.234375 265.46875 144.382812 265.351562 144.550781 C 263.492188 147.320312 263.585938 150.140625 265.125 151.953125 C 266.855469 153.996094 268.558594 152.738281 270.15625 151.273438 C 270.917969 152.488281 271.679688 153.699219 272.441406 154.914062 C 271.6875 155.566406 270.820312 155.589844 269.433594 154.785156 C 269.28125 155.003906 269.125 155.226562 268.972656 155.445312 C 269.800781 156.347656 270.632812 157.253906 271.460938 158.15625 C 271.566406 158.007812 271.671875 157.855469 271.777344 157.703125 C 271.707031 157.394531 271.699219 157.199219 271.871094 156.949219 C 272.074219 156.660156 272.515625 156.390625 273.046875 155.894531 C 273.398438 156.460938 273.753906 157.027344 274.105469 157.589844 C 274.320312 157.34375 274.53125 157.09375 274.75 156.847656 C 274.398438 156.28125 274.042969 155.714844 273.691406 155.148438 C 273.808594 155.015625 273.890625 154.894531 273.988281 154.75 C 275.75 152.121094 275.464844 149.496094 274.132812 147.914062 Z M 265.75 149.753906 C 264.84375 148.679688 264.945312 147.078125 266.101562 145.359375 C 266.164062 145.265625 266.226562 145.175781 266.285156 145.085938 C 267.117188 146.40625 267.949219 147.726562 268.78125 149.042969 C 267.320312 150.371094 266.613281 150.777344 265.75 149.753906 Z M 273.3125 153.871094 C 273.242188 153.976562 273.171875 154.078125 273.101562 154.183594 C 272.355469 152.992188 271.605469 151.796875 270.863281 150.601562 C 272.003906 149.621094 272.714844 149.25 273.5 150.179688 C 274.300781 151.125 274.171875 152.589844 273.3125 153.871094 Z M 273.3125 153.871094 "/>
<g clip-path="url(#clip1)" clip-rule="nonzero">
<path style=" stroke:none;fill-rule:nonzero;fill:#22584c;fill-opacity:1;" d="M 328.386719 180.503906 C 321.042969 185.878906 313.703125 191.253906 306.359375 196.628906 C 308.699219 216.441406 334.832031 218.835938 337.175781 238.644531 C 344.515625 233.269531 351.859375 227.894531 359.203125 222.519531 C 356.859375 202.707031 330.726562 200.316406 328.386719 180.503906 Z M 347.070312 219.382812 C 345.917969 217.625 344.542969 216.03125 343.039062 214.535156 C 342.484375 215.269531 341.804688 215.957031 340.984375 216.554688 C 340.167969 217.152344 339.269531 217.621094 338.320312 217.976562 C 339.828125 219.476562 341.207031 221.074219 342.359375 222.832031 C 341.921875 223.148438 341.488281 223.46875 341.050781 223.789062 C 339.78125 221.855469 338.238281 220.121094 336.550781 218.492188 C 332.472656 219.378906 327.792969 218.371094 324.324219 215.765625 C 320.84375 213.148438 320.078125 209.265625 321.671875 206.007812 C 319.988281 204.382812 318.449219 202.652344 317.183594 200.726562 C 317.617188 200.40625 318.054688 200.089844 318.492188 199.769531 C 319.644531 201.523438 321.015625 203.117188 322.523438 204.613281 C 323.074219 203.878906 323.757812 203.195312 324.578125 202.59375 C 325.394531 201.996094 326.292969 201.527344 327.238281 201.171875 C 325.730469 199.671875 324.355469 198.074219 323.199219 196.320312 C 323.636719 196 324.074219 195.679688 324.507812 195.359375 C 325.777344 197.292969 327.320312 199.027344 329.007812 200.65625 C 333.089844 199.773438 337.773438 200.777344 341.234375 203.382812 C 344.714844 206 345.484375 209.882812 343.886719 213.140625 C 345.570312 214.765625 347.109375 216.496094 348.375 218.421875 C 347.941406 218.742188 347.503906 219.0625 347.070312 219.382812 Z M 347.070312 219.382812 "/>
</g>
<path style=" stroke:none;fill-rule:nonzero;fill:#22584c;fill-opacity:1;" d="M 341.996094 208.613281 C 341.832031 208.480469 341.671875 208.347656 341.507812 208.214844 C 341.097656 208.304688 340.878906 208.402344 340.628906 208.199219 C 340.257812 207.898438 340.015625 207.410156 339.382812 206.730469 C 339.96875 206.421875 340.558594 206.109375 341.148438 205.796875 C 340.910156 205.558594 340.671875 205.324219 340.429688 205.085938 C 339.835938 205.402344 339.238281 205.71875 338.644531 206.035156 C 338.523438 205.914062 338.382812 205.808594 338.222656 205.675781 C 335.585938 203.632812 332.765625 203.527344 330.84375 204.933594 C 328.683594 206.519531 329.824219 208.300781 331.171875 209.996094 C 329.910156 210.671875 328.644531 211.34375 327.378906 212.019531 C 326.777344 211.222656 326.820312 210.355469 327.71875 209.03125 C 327.507812 208.863281 327.300781 208.695312 327.089844 208.523438 C 326.128906 209.289062 325.167969 210.054688 324.207031 210.816406 C 324.351562 210.933594 324.492188 211.050781 324.636719 211.164062 C 324.949219 211.113281 325.144531 211.121094 325.382812 211.3125 C 325.660156 211.535156 325.898438 211.992188 326.359375 212.558594 C 325.769531 212.871094 325.179688 213.179688 324.589844 213.492188 C 324.820312 213.722656 325.054688 213.953125 325.285156 214.1875 C 325.878906 213.875 326.464844 213.5625 327.054688 213.253906 C 327.179688 213.378906 327.292969 213.46875 327.433594 213.578125 C 329.933594 215.515625 332.574219 215.414062 334.246094 214.195312 C 336.066406 212.859375 335.671875 211.433594 334.113281 209.535156 C 335.511719 208.789062 336.914062 208.042969 338.316406 207.296875 C 339.234375 208.492188 338.722656 209.53125 337.800781 210.898438 C 338.027344 211.085938 338.253906 211.269531 338.480469 211.457031 C 339.652344 210.507812 340.824219 209.558594 341.996094 208.613281 Z M 332.03125 213.40625 C 331.03125 214.140625 329.578125 213.90625 328.359375 212.960938 C 328.257812 212.886719 328.160156 212.808594 328.058594 212.730469 C 329.304688 212.070312 330.546875 211.410156 331.792969 210.746094 C 332.695312 211.957031 333.015625 212.6875 332.03125 213.40625 Z M 333.492188 208.78125 C 332.269531 207.234375 331.917969 206.5 332.996094 205.710938 C 334.132812 204.882812 335.726562 205.097656 337.359375 206.371094 C 337.449219 206.441406 337.535156 206.503906 337.621094 206.574219 C 336.246094 207.308594 334.871094 208.046875 333.492188 208.78125 Z M 333.492188 208.78125 "/>
<!-- next two are money bag -->
<path style=" stroke:none;fill-rule:nonzero;fill:#22584c;fill-opacity:1;" d="M 121.277344 238.945312 C 125.082031 233.058594 137.242188 212.199219 130.25 195.851562 C 122.023438 176.621094 107.71875 170.46875 102.320312 164.625 C 100.410156 162.554688 99.125 161.191406 98.425781 160.046875 C 98.269531 160.449219 98.109375 160.851562 97.914062 161.246094 C 95.300781 166.621094 89.746094 170.09375 83.761719 170.09375 C 81.371094 170.09375 79.058594 169.5625 76.894531 168.511719 L 73.652344 166.933594 C 65.28125 172.078125 55.453125 176.863281 48.171875 187.148438 C 41.421875 196.683594 42.652344 221.425781 43.085938 227.714844 L 38.78125 231.597656 C 36.609375 233.554688 36.4375 236.933594 38.398438 239.101562 C 40.359375 241.273438 43.742188 241.445312 45.910156 239.484375 L 50.03125 235.765625 C 56.09375 240.367188 66.496094 245.980469 82.4375 247.691406 C 97.128906 249.265625 106.710938 247.304688 112.550781 245.046875 L 115.71875 250.132812 C 117.265625 252.613281 120.5625 253.378906 123.046875 251.832031 C 125.53125 250.289062 126.296875 246.996094 124.753906 244.511719 Z M 86.957031 223.449219 L 86.375 227.589844 L 82.242188 227.011719 L 82.824219 222.871094 C 78.429688 221.863281 74.628906 219.496094 71.851562 216.050781 L 77.730469 213.261719 C 80.679688 216.621094 82.65625 217.84375 85.929688 218.304688 C 89.285156 218.777344 91.628906 217.382812 92.003906 214.710938 C 92.210938 213.238281 91.632812 211.710938 90.457031 210.4375 C 89.277344 209.214844 88.558594 208.667969 84.277344 205.734375 C 77.171875 200.84375 75.121094 197.890625 75.742188 193.476562 C 76.449219 188.460938 81.257812 185.359375 88.066406 185.59375 L 88.542969 182.214844 L 92.675781 182.792969 L 92.199219 186.171875 C 96.210938 187.070312 99.460938 188.859375 102.164062 191.683594 L 96.261719 194.632812 C 94.4375 192.320312 92.449219 191.207031 89.636719 190.8125 C 86.128906 190.320312 83.722656 191.59375 83.363281 194.15625 C 83.160156 195.574219 83.679688 196.980469 84.867188 198.144531 C 85.914062 199.183594 86.425781 199.53125 90.570312 202.28125 C 98.339844 207.542969 100.523438 210.683594 99.84375 215.53125 C 99.082031 220.929688 94.382812 223.828125 86.957031 223.449219 Z M 86.957031 223.449219 "/>
<path style=" stroke:none;fill-rule:nonzero;fill:#22584c;fill-opacity:1;" d="M 99.476562 154.386719 C 99.757812 153.976562 100.0625 153.546875 100.414062 153.0625 C 104.386719 147.59375 117.773438 143.542969 118.988281 137.59375 C 120.199219 131.644531 92.480469 120.035156 96.421875 130.191406 C 100.363281 140.347656 76.234375 121.988281 71.371094 126.390625 C 70.152344 127.496094 70.601562 129.171875 71.984375 131.1875 L 90.644531 140.25 C 96.230469 142.960938 99.46875 148.5625 99.476562 154.386719 Z M 99.476562 154.386719 "/>
<g clip-path="url(#clip2)" clip-rule="nonzero">
<path style=" stroke:none;fill-rule:nonzero;fill:#ca8153;fill-opacity:1;" d="M 229.453125 45.203125 C 230.03125 44.980469 231.695312 44.46875 233.4375 45.050781 L 241.179688 33.765625 L 243.824219 39.171875 C 244.449219 40.445312 245.1875 41.5625 246.007812 42.578125 C 247.398438 41.296875 248.519531 39.683594 249.207031 37.785156 C 251.511719 31.453125 248.242188 24.449219 241.902344 22.144531 C 228.089844 17.128906 216.914062 24.164062 215.683594 24.984375 C 215.328125 25.222656 214.984375 25.480469 214.652344 25.753906 L 167.691406 64.734375 C 68.253906 79.195312 25.261719 115.238281 21.347656 118.683594 C 21.285156 118.738281 21.222656 118.796875 21.164062 118.851562 C 21.144531 118.867188 21.117188 118.890625 21.105469 118.902344 C 21.066406 118.9375 21.039062 118.972656 21.003906 119.003906 C 20.753906 119.234375 20.507812 119.476562 20.277344 119.730469 C 20.195312 119.820312 20.121094 119.914062 20.042969 120.007812 C 19.867188 120.210938 19.691406 120.417969 19.527344 120.636719 C 19.414062 120.789062 19.3125 120.949219 19.203125 121.105469 C 19.089844 121.277344 18.972656 121.441406 18.867188 121.617188 C 18.742188 121.824219 18.632812 122.039062 18.519531 122.25 C 18.457031 122.371094 18.382812 122.480469 18.324219 122.601562 C 18.308594 122.628906 18.300781 122.660156 18.289062 122.6875 C 18.195312 122.886719 18.113281 123.085938 18.03125 123.289062 C 17.957031 123.472656 17.875 123.65625 17.804688 123.84375 C 17.777344 123.925781 17.757812 124.011719 17.730469 124.089844 C 15.820312 129.816406 18.394531 136.203125 23.972656 138.910156 L 50.296875 151.691406 L 78.429688 165.351562 C 80.152344 166.1875 81.96875 166.582031 83.761719 166.582031 C 88.292969 166.582031 92.644531 164.054688 94.757812 159.710938 C 97.707031 153.648438 95.175781 146.347656 89.109375 143.402344 L 59.398438 128.976562 L 53.589844 126.15625 C 56.574219 124.425781 60 122.550781 63.871094 120.59375 C 64.242188 122.453125 64.710938 124.902344 65.222656 127.90625 L 67.222656 128.875 C 67.175781 128.546875 67.144531 128.21875 67.148438 127.894531 C 67.171875 126.3125 67.832031 124.855469 69.011719 123.789062 C 70.1875 122.726562 71.738281 122.1875 73.621094 122.1875 C 77.457031 122.1875 82.585938 124.507812 87.542969 126.75 C 89.03125 127.425781 90.941406 128.289062 92.542969 128.925781 C 92.421875 127.265625 92.925781 126.0625 93.476562 125.261719 C 94.285156 124.078125 95.960938 122.667969 99.339844 122.667969 C 105.757812 122.667969 116.722656 127.777344 120.671875 132.609375 C 122.601562 134.96875 122.691406 137.003906 122.425781 138.296875 C 121.429688 143.171875 116.105469 146.375 110.960938 149.472656 C 107.8125 151.367188 104.5625 153.328125 103.253906 155.125 C 102.785156 155.773438 101.585938 157.421875 101.335938 158.097656 C 101.667969 158.757812 103.09375 160.300781 104.476562 161.792969 L 104.898438 162.25 C 106.136719 163.585938 108.117188 165.09375 110.40625 166.839844 C 117.050781 171.898438 127.089844 179.539062 133.476562 194.472656 C 140.359375 210.5625 130.714844 230.0625 125.710938 238.453125 C 125.734375 238.816406 125.757812 239.175781 125.78125 239.539062 L 127.726562 242.664062 C 129.921875 246.183594 129.316406 250.65625 126.535156 253.492188 C 127.910156 287.382812 125.765625 320.976562 116.40625 346.210938 C 112.746094 356.085938 117.792969 367.058594 127.675781 370.714844 C 129.863281 371.523438 132.101562 371.90625 134.304688 371.90625 C 142.058594 371.90625 149.351562 367.148438 152.203125 359.457031 C 185.023438 270.933594 144.222656 108.253906 142.46875 101.371094 C 141.835938 98.882812 140.734375 96.640625 139.289062 94.703125 C 150.085938 92.320312 161.796875 90.179688 174.511719 88.417969 C 176.765625 88.105469 178.886719 87.171875 180.640625 85.714844 Z M 229.453125 45.203125 "/>
</g>
<path style=" stroke:none;fill-rule:nonzero;fill:#22584c;fill-opacity:1;" d="M 225.230469 63.214844 C 234.003906 81.132812 259.457031 74.75 268.234375 92.667969 C 273.378906 85.164062 278.527344 77.664062 283.675781 70.164062 C 274.898438 52.246094 249.449219 58.632812 240.671875 40.714844 C 235.523438 48.214844 230.378906 55.714844 225.230469 63.214844 Z M 260.378906 58.050781 C 264.53125 59.371094 266.542969 62.777344 266.117188 66.382812 C 268.242188 67.359375 270.269531 68.480469 272.105469 69.882812 C 271.796875 70.328125 271.492188 70.769531 271.1875 71.21875 C 269.515625 69.941406 267.691406 68.890625 265.777344 67.976562 C 265.5 68.851562 265.082031 69.726562 264.503906 70.5625 C 263.933594 71.398438 263.242188 72.136719 262.464844 72.785156 C 264.386719 73.703125 266.214844 74.753906 267.886719 76.03125 C 267.578125 76.476562 267.273438 76.921875 266.96875 77.367188 C 265.128906 75.960938 263.097656 74.839844 260.96875 73.859375 C 257.410156 76.042969 252.660156 76.640625 248.527344 75.328125 C 244.375 74.011719 242.363281 70.601562 242.789062 67 C 240.664062 66.023438 238.636719 64.902344 236.800781 63.5 C 237.109375 63.054688 237.414062 62.609375 237.71875 62.164062 C 239.390625 63.4375 241.214844 64.488281 243.128906 65.402344 C 243.410156 64.527344 243.824219 63.652344 244.398438 62.816406 C 244.972656 61.980469 245.664062 61.242188 246.441406 60.59375 C 244.519531 59.675781 242.691406 58.625 241.019531 57.351562 C 241.324219 56.902344 241.628906 56.457031 241.9375 56.011719 C 243.777344 57.417969 245.804688 58.542969 247.9375 59.519531 C 251.496094 57.339844 256.25 56.742188 260.378906 58.050781 Z M 260.378906 58.050781 "/>
<path style=" stroke:none;fill-rule:nonzero;fill:#22584c;fill-opacity:1;" d="M 251.089844 62.953125 C 249.574219 65.164062 251.242188 66.46875 253.078125 67.621094 C 252.109375 68.675781 251.136719 69.730469 250.171875 70.785156 C 249.339844 70.230469 249.089844 69.402344 249.5 67.851562 C 249.246094 67.765625 248.992188 67.671875 248.738281 67.582031 C 248.085938 68.621094 247.429688 69.660156 246.777344 70.699219 C 246.953125 70.757812 247.125 70.820312 247.296875 70.882812 C 247.574219 70.730469 247.761719 70.675781 248.050781 70.773438 C 248.382812 70.890625 248.761719 71.246094 249.382812 71.628906 C 248.929688 72.117188 248.476562 72.605469 248.023438 73.09375 C 248.316406 73.234375 248.613281 73.375 248.910156 73.519531 C 249.363281 73.03125 249.816406 72.539062 250.269531 72.050781 C 250.429688 72.128906 250.566406 72.175781 250.734375 72.234375 C 253.734375 73.234375 256.195312 72.265625 257.367188 70.5625 C 258.644531 68.699219 257.800781 67.484375 255.695312 66.207031 C 256.769531 65.039062 257.847656 63.875 258.921875 62.707031 C 260.183594 63.53125 260.046875 64.679688 259.628906 66.277344 C 259.902344 66.375 260.179688 66.476562 260.453125 66.578125 C 261.246094 65.292969 262.035156 64.011719 262.828125 62.730469 C 262.632812 62.660156 262.433594 62.589844 262.234375 62.519531 C 261.878906 62.738281 261.703125 62.902344 261.398438 62.792969 C 260.945312 62.632812 260.558594 62.25 259.734375 61.820312 C 260.1875 61.335938 260.640625 60.847656 261.09375 60.359375 C 260.789062 60.210938 260.488281 60.066406 260.183594 59.925781 C 259.726562 60.421875 259.269531 60.914062 258.8125 61.410156 C 258.65625 61.335938 258.488281 61.28125 258.296875 61.210938 C 255.132812 60.15625 252.433594 60.992188 251.089844 62.953125 Z M 255.015625 70.550781 C 254.316406 71.578125 252.867188 71.839844 251.402344 71.351562 C 251.28125 71.308594 251.164062 71.269531 251.042969 71.230469 C 252 70.195312 252.953125 69.160156 253.910156 68.125 C 255.160156 68.964844 255.703125 69.550781 255.015625 70.550781 Z M 257.714844 62.152344 C 257.816406 62.1875 257.921875 62.222656 258.027344 62.257812 C 256.972656 63.40625 255.917969 64.558594 254.863281 65.707031 C 253.199219 64.652344 252.617188 64.074219 253.375 62.972656 C 254.171875 61.816406 255.75 61.488281 257.714844 62.152344 Z M 257.714844 62.152344 "/>
<path style=" stroke:none;fill-rule:nonzero;fill:#22584c;fill-opacity:1;" d="M 308.445312 142.386719 C 307.921875 137.917969 304.34375 135.171875 304.191406 135.054688 C 303.519531 134.546875 302.558594 134.679688 302.054688 135.351562 C 301.546875 136.023438 301.679688 136.980469 302.351562 137.488281 C 302.378906 137.507812 305.042969 139.601562 305.410156 142.738281 C 305.648438 144.773438 304.878906 146.878906 303.121094 149 C 302.582031 149.648438 302.675781 150.613281 303.324219 151.148438 C 303.609375 151.382812 303.957031 151.496094 304.296875 151.496094 C 304.738281 151.496094 305.175781 151.308594 305.476562 150.945312 C 307.78125 148.160156 308.78125 145.277344 308.445312 142.386719 Z M 308.445312 142.386719 "/>
<path style=" stroke:none;fill-rule:nonzero;fill:#22584c;fill-opacity:1;" d="M 308.972656 154.84375 C 309.261719 155.105469 309.628906 155.234375 309.988281 155.234375 C 310.410156 155.234375 310.828125 155.0625 311.128906 154.726562 C 314.726562 150.707031 316.394531 146.496094 316.09375 142.214844 C 315.632812 135.699219 310.730469 131.496094 310.523438 131.320312 C 309.878906 130.777344 308.914062 130.859375 308.371094 131.503906 C 307.828125 132.148438 307.910156 133.109375 308.554688 133.652344 C 308.59375 133.6875 312.675781 137.183594 313.046875 142.429688 C 313.289062 145.855469 311.878906 149.308594 308.851562 152.691406 C 308.289062 153.320312 308.34375 154.285156 308.972656 154.84375 Z M 308.972656 154.84375 "/>
<path style=" stroke:none;fill-rule:nonzero;fill:#22584c;fill-opacity:1;" d="M 257.382812 12.769531 C 253.816406 10.023438 249.351562 10.660156 249.160156 10.695312 C 248.328125 10.820312 247.757812 11.59375 247.882812 12.425781 C 248.003906 13.253906 248.761719 13.824219 249.613281 13.710938 C 249.644531 13.707031 253.023438 13.25 255.539062 15.207031 C 257.152344 16.453125 258.117188 18.472656 258.410156 21.199219 C 258.492188 21.984375 259.152344 22.5625 259.925781 22.5625 C 259.980469 22.5625 260.035156 22.5625 260.089844 22.554688 C 260.929688 22.464844 261.535156 21.710938 261.445312 20.875 C 261.058594 17.273438 259.691406 14.546875 257.382812 12.769531 Z M 257.382812 12.769531 "/>
<path style=" stroke:none;fill-rule:nonzero;fill:#22584c;fill-opacity:1;" d="M 265.050781 19.675781 C 265.105469 20.480469 265.777344 21.097656 266.570312 21.097656 C 266.605469 21.097656 266.640625 21.09375 266.675781 21.09375 C 267.519531 21.035156 268.152344 20.304688 268.097656 19.46875 C 267.726562 14.089844 265.878906 9.953125 262.597656 7.179688 C 257.605469 2.957031 251.171875 3.53125 250.902344 3.558594 C 250.0625 3.640625 249.449219 4.386719 249.53125 5.222656 C 249.613281 6.066406 250.378906 6.671875 251.199219 6.59375 C 251.25 6.585938 256.609375 6.113281 260.625 9.507812 C 263.25 11.730469 264.738281 15.148438 265.050781 19.675781 Z M 265.050781 19.675781 "/>
</g>
</svg>
