<?xml version="1.0" encoding="UTF-8"?>
<svg xmlns="http://www.w3.org/2000/svg" xmlns:xlink="http://www.w3.org/1999/xlink" width="375pt" height="374.999991pt" viewBox="0 0 375 374.999991" version="1.2">
<defs>
<clipPath id="clip1">
  <path d="M 207 144 L 350.625 144 L 350.625 191 L 207 191 Z M 207 144 "/>
</clipPath>
<clipPath id="clip2">
  <path d="M 24.375 344 L 286 344 L 286 375 L 24.375 375 Z M 24.375 344 "/>
</clipPath>
</defs>
<g id="surface1">
<path style=" stroke:none;fill-rule:nonzero;fill:rgb(100%,100%,100%);fill-opacity:1;" d="M 262.925781 331.683594 L 46.875 331.683594 L 46.875 1 L 262.925781 1 L 262.925781 331.683594 "/>
<path style=" stroke:none;fill-rule:nonzero;fill:rgb(23.919678%,13.729858%,13.729858%);fill-opacity:1;" d="M 262.925781 331.683594 L 262.925781 330.664062 L 47.894531 330.664062 L 47.894531 2.019531 L 261.902344 2.019531 L 261.902344 331.683594 L 262.925781 331.683594 L 262.925781 330.664062 L 262.925781 331.683594 L 263.945312 331.683594 L 263.945312 1 C 263.945312 0.726562 263.835938 0.464844 263.644531 0.273438 C 263.457031 0.0859375 263.195312 -0.0273438 262.925781 -0.0273438 L 46.875 -0.0273438 C 46.605469 -0.0273438 46.34375 0.0859375 46.152344 0.273438 C 45.964844 0.464844 45.851562 0.726562 45.851562 1 L 45.851562 331.683594 C 45.851562 331.957031 45.964844 332.21875 46.152344 332.40625 C 46.34375 332.597656 46.605469 332.707031 46.875 332.707031 L 262.925781 332.707031 C 263.195312 332.707031 263.457031 332.597656 263.644531 332.40625 C 263.835938 332.21875 263.945312 331.957031 263.945312 331.683594 L 262.925781 331.683594 "/>
<path style=" stroke:none;fill-rule:nonzero;fill:rgb(100%,100%,100%);fill-opacity:1;" d="M 192.59375 151.355469 L 191.617188 136.144531 L 118.183594 136.144531 L 117.207031 151.355469 L 192.59375 151.355469 "/>
<path style=" stroke:none;fill-rule:nonzero;fill:rgb(23.919678%,13.729858%,13.729858%);fill-opacity:1;" d="M 192.59375 151.355469 L 193.613281 151.292969 L 192.636719 136.078125 C 192.601562 135.539062 192.15625 135.125 191.617188 135.125 L 118.183594 135.125 C 117.644531 135.125 117.199219 135.539062 117.160156 136.082031 L 116.183594 151.292969 C 116.167969 151.570312 116.269531 151.847656 116.460938 152.050781 C 116.652344 152.261719 116.921875 152.375 117.207031 152.375 L 192.59375 152.375 C 192.875 152.375 193.148438 152.261719 193.339844 152.050781 C 193.53125 151.847656 193.628906 151.570312 193.613281 151.292969 L 192.59375 151.355469 L 192.59375 150.335938 L 118.292969 150.335938 L 119.140625 137.164062 L 190.660156 137.164062 L 191.578125 151.421875 L 192.59375 151.355469 L 192.59375 150.335938 L 192.59375 151.355469 "/>
<path style=" stroke:none;fill-rule:nonzero;fill:rgb(100%,100%,100%);fill-opacity:1;" d="M 115.140625 183.421875 L 114.164062 209.0625 L 195.636719 209.0625 L 194.660156 183.421875 L 115.140625 183.421875 "/>
<path style=" stroke:none;fill-rule:nonzero;fill:rgb(23.919678%,13.729858%,13.729858%);fill-opacity:1;" d="M 115.140625 183.421875 L 114.125 183.386719 L 113.144531 209.027344 C 113.136719 209.304688 113.238281 209.574219 113.429688 209.773438 C 113.621094 209.972656 113.886719 210.085938 114.164062 210.085938 L 195.636719 210.085938 C 195.910156 210.085938 196.175781 209.972656 196.367188 209.773438 C 196.558594 209.574219 196.664062 209.304688 196.65625 209.027344 L 195.679688 183.386719 C 195.660156 182.835938 195.203125 182.402344 194.660156 182.402344 L 115.140625 182.402344 C 114.59375 182.402344 114.144531 182.835938 114.125 183.386719 L 115.140625 183.421875 L 115.140625 184.445312 L 193.671875 184.445312 L 194.574219 208.042969 L 115.222656 208.042969 L 116.160156 183.460938 L 115.140625 183.421875 L 115.140625 184.445312 L 115.140625 183.421875 "/>
<path style=" stroke:none;fill-rule:nonzero;fill:rgb(78.819275%,53.329468%,36.859131%);fill-opacity:1;" d="M 197.214844 183.46875 L 112.585938 183.46875 L 112.585938 151.355469 L 197.214844 151.355469 L 197.214844 183.46875 "/>
<path style=" stroke:none;fill-rule:nonzero;fill:rgb(23.919678%,13.729858%,13.729858%);fill-opacity:1;" d="M 197.214844 183.46875 L 197.214844 182.449219 L 113.605469 182.449219 L 113.605469 152.375 L 196.195312 152.375 L 196.195312 183.46875 L 197.214844 183.46875 L 197.214844 182.449219 L 197.214844 183.46875 L 198.234375 183.46875 L 198.234375 151.355469 C 198.234375 151.085938 198.128906 150.824219 197.9375 150.632812 C 197.75 150.445312 197.484375 150.335938 197.214844 150.335938 L 112.585938 150.335938 C 112.3125 150.335938 112.050781 150.445312 111.863281 150.632812 C 111.671875 150.824219 111.5625 151.085938 111.5625 151.355469 L 111.5625 183.46875 C 111.5625 183.738281 111.671875 184 111.863281 184.191406 C 112.050781 184.382812 112.3125 184.492188 112.585938 184.492188 L 197.214844 184.492188 C 197.484375 184.492188 197.75 184.382812 197.9375 184.191406 C 198.128906 184 198.234375 183.738281 198.234375 183.46875 L 197.214844 183.46875 "/>
<path style=" stroke:none;fill-rule:nonzero;fill:rgb(100%,100%,100%);fill-opacity:1;" d="M 208.933594 178.679688 L 197.214844 178.679688 L 197.214844 156.144531 L 208.933594 156.144531 L 208.933594 178.679688 "/>
<path style=" stroke:none;fill-rule:nonzero;fill:rgb(23.919678%,13.729858%,13.729858%);fill-opacity:1;" d="M 208.933594 178.679688 L 208.933594 177.65625 L 198.234375 177.65625 L 198.234375 157.164062 L 207.910156 157.164062 L 207.910156 178.679688 L 208.933594 178.679688 L 208.933594 177.65625 L 208.933594 178.679688 L 209.953125 178.679688 L 209.953125 156.144531 C 209.953125 155.871094 209.847656 155.617188 209.652344 155.421875 C 209.460938 155.230469 209.207031 155.121094 208.933594 155.121094 L 197.214844 155.121094 C 196.945312 155.121094 196.683594 155.234375 196.492188 155.421875 C 196.304688 155.613281 196.195312 155.875 196.195312 156.144531 L 196.195312 178.679688 C 196.195312 178.949219 196.304688 179.210938 196.492188 179.398438 C 196.683594 179.589844 196.945312 179.699219 197.214844 179.699219 L 208.933594 179.699219 C 209.207031 179.699219 209.460938 179.59375 209.652344 179.398438 C 209.847656 179.207031 209.953125 178.953125 209.953125 178.679688 L 208.933594 178.679688 "/>
<path style=" stroke:none;fill-rule:nonzero;fill:rgb(78.819275%,53.329468%,36.859131%);fill-opacity:1;" d="M 327.074219 145.097656 C 326.464844 145.097656 216.441406 154.046875 216.441406 154.046875 C 212.542969 154.351562 211.074219 154.898438 208.933594 156.355469 L 208.933594 178.472656 C 211.074219 179.925781 213.027344 180.515625 216.441406 180.78125 C 216.441406 180.78125 326.464844 189.726562 327.074219 189.726562 C 339.394531 189.726562 349.386719 179.738281 349.386719 167.410156 C 349.386719 155.085938 339.394531 145.097656 327.074219 145.097656 "/>
<g clip-path="url(#clip1)" clip-rule="nonzero">
<path style=" stroke:none;fill-rule:nonzero;fill:rgb(23.919678%,13.729858%,13.729858%);fill-opacity:1;" d="M 327.074219 145.097656 L 327.074219 144.078125 L 326.976562 144.082031 C 326.660156 144.097656 324.734375 144.253906 321.550781 144.503906 C 299.285156 146.285156 216.359375 153.03125 216.359375 153.03125 C 214.378906 153.183594 212.957031 153.40625 211.71875 153.796875 C 210.484375 154.191406 209.464844 154.757812 208.359375 155.507812 C 208.078125 155.699219 207.910156 156.015625 207.910156 156.355469 L 207.910156 178.472656 C 207.910156 178.808594 208.078125 179.125 208.359375 179.316406 C 209.496094 180.089844 210.625 180.65625 211.910156 181.050781 C 213.195312 181.441406 214.613281 181.664062 216.363281 181.796875 L 216.355469 181.796875 C 216.359375 181.796875 243.867188 184.03125 271.449219 186.269531 C 285.242188 187.390625 299.046875 188.511719 309.449219 189.347656 C 314.648438 189.765625 319 190.117188 322.066406 190.359375 C 323.601562 190.484375 324.8125 190.578125 325.652344 190.644531 C 326.070312 190.679688 326.398438 190.703125 326.625 190.71875 C 326.742188 190.726562 326.828125 190.734375 326.898438 190.738281 L 326.976562 190.742188 L 327.074219 190.746094 C 339.960938 190.746094 350.410156 180.300781 350.410156 167.410156 C 350.410156 154.523438 339.960938 144.078125 327.074219 144.078125 L 327.074219 146.121094 C 332.957031 146.121094 338.277344 148.5 342.132812 152.355469 C 345.988281 156.210938 348.367188 161.53125 348.367188 167.410156 C 348.367188 173.296875 345.988281 178.613281 342.132812 182.46875 C 338.277344 186.324219 332.957031 188.707031 327.074219 188.707031 L 327.074219 189.472656 L 327.113281 188.707031 L 327.074219 188.707031 L 327.074219 189.472656 L 327.113281 188.707031 C 327.101562 188.707031 326.9375 188.699219 326.695312 188.679688 C 322.84375 188.386719 295.292969 186.15625 268.714844 184 C 255.425781 182.925781 242.378906 181.863281 232.652344 181.074219 C 227.789062 180.675781 223.757812 180.347656 220.941406 180.121094 C 218.125 179.890625 216.527344 179.761719 216.523438 179.761719 L 216.519531 179.761719 C 214.851562 179.636719 213.589844 179.429688 212.507812 179.097656 C 211.429688 178.765625 210.511719 178.3125 209.507812 177.628906 L 208.933594 178.472656 L 209.953125 178.472656 L 209.953125 156.355469 L 208.933594 156.355469 L 209.507812 157.195312 C 210.542969 156.5 211.332031 156.0625 212.335938 155.742188 C 213.34375 155.421875 214.609375 155.214844 216.519531 155.0625 C 216.527344 155.0625 218.242188 154.921875 221.253906 154.679688 C 231.785156 153.824219 258.128906 151.683594 281.90625 149.757812 C 293.792969 148.792969 305.039062 147.882812 313.34375 147.210938 C 317.5 146.878906 320.921875 146.601562 323.316406 146.414062 C 324.511719 146.320312 325.457031 146.242188 326.109375 146.195312 C 326.433594 146.167969 326.6875 146.148438 326.855469 146.136719 L 327.054688 146.125 L 327.105469 146.121094 L 327.109375 146.121094 L 327.074219 145.328125 L 327.074219 146.121094 L 327.109375 146.121094 L 327.074219 145.328125 L 327.074219 146.121094 L 327.074219 145.097656 "/>
</g>
<path style=" stroke:none;fill-rule:nonzero;fill:rgb(100%,100%,100%);fill-opacity:1;" d="M 204.914062 136.144531 L 104.890625 136.144531 L 104.890625 106.285156 L 204.914062 106.285156 L 204.914062 136.144531 "/>
<path style=" stroke:none;fill-rule:nonzero;fill:rgb(23.919678%,13.729858%,13.729858%);fill-opacity:1;" d="M 204.914062 136.144531 L 204.914062 135.125 L 105.910156 135.125 L 105.910156 107.304688 L 203.890625 107.304688 L 203.890625 136.144531 L 204.914062 136.144531 L 204.914062 135.125 L 204.914062 136.144531 L 205.933594 136.144531 L 205.933594 106.285156 C 205.933594 106.019531 205.824219 105.753906 205.632812 105.5625 C 205.441406 105.375 205.179688 105.265625 204.914062 105.265625 L 104.890625 105.265625 C 104.617188 105.265625 104.359375 105.375 104.167969 105.5625 C 103.976562 105.753906 103.867188 106.019531 103.867188 106.285156 L 103.867188 136.144531 C 103.867188 136.410156 103.976562 136.675781 104.167969 136.867188 C 104.359375 137.058594 104.617188 137.164062 104.890625 137.164062 L 204.914062 137.164062 C 205.179688 137.164062 205.441406 137.058594 205.632812 136.867188 C 205.824219 136.675781 205.933594 136.410156 205.933594 136.144531 L 204.914062 136.144531 "/>
<path style=" stroke:none;fill-rule:nonzero;fill:rgb(100%,100%,100%);fill-opacity:1;" d="M 245.289062 106.285156 L 64.507812 106.285156 L 64.507812 95.289062 L 245.289062 95.289062 L 245.289062 106.285156 "/>
<path style=" stroke:none;fill-rule:nonzero;fill:rgb(23.919678%,13.729858%,13.729858%);fill-opacity:1;" d="M 245.289062 106.285156 L 245.289062 105.265625 L 65.53125 105.265625 L 65.53125 96.308594 L 244.269531 96.308594 L 244.269531 106.285156 L 245.289062 106.285156 L 245.289062 105.265625 L 245.289062 106.285156 L 246.3125 106.285156 L 246.3125 95.289062 C 246.3125 95.023438 246.203125 94.757812 246.011719 94.566406 C 245.824219 94.378906 245.5625 94.269531 245.289062 94.269531 L 64.507812 94.269531 C 64.238281 94.269531 63.976562 94.378906 63.789062 94.566406 C 63.597656 94.757812 63.488281 95.023438 63.488281 95.289062 L 63.488281 106.285156 C 63.488281 106.554688 63.597656 106.820312 63.789062 107.007812 C 63.976562 107.199219 64.238281 107.304688 64.507812 107.304688 L 245.289062 107.304688 C 245.566406 107.304688 245.820312 107.203125 246.011719 107.007812 C 246.207031 106.816406 246.3125 106.558594 246.3125 106.285156 L 245.289062 106.285156 "/>
<path style=" stroke:none;fill-rule:nonzero;fill:rgb(23.919678%,13.729858%,13.729858%);fill-opacity:1;" d="M 123.984375 331.023438 L 187.597656 331.023438 C 188.832031 329.167969 189.804688 326.949219 190.210938 325.542969 L 214.535156 244.296875 C 215.328125 241.515625 213.613281 239.238281 210.71875 239.238281 L 100.863281 239.238281 C 97.96875 239.238281 96.25 241.515625 97.046875 244.296875 L 121.367188 325.542969 C 121.769531 326.949219 122.742188 329.167969 123.984375 331.023438 "/>
<path style=" stroke:none;fill-rule:nonzero;fill:rgb(23.919678%,13.729858%,13.729858%);fill-opacity:1;" d="M 123.984375 331.023438 L 123.984375 332.042969 L 187.597656 332.042969 C 187.9375 332.042969 188.253906 331.871094 188.441406 331.589844 C 189.753906 329.628906 190.746094 327.363281 191.195312 325.820312 L 190.210938 325.542969 L 191.191406 325.832031 L 215.511719 244.589844 L 215.515625 244.578125 C 215.671875 244.03125 215.746094 243.488281 215.746094 242.960938 C 215.75 241.636719 215.238281 240.414062 214.332031 239.554688 C 213.421875 238.695312 212.144531 238.214844 210.71875 238.21875 L 100.863281 238.21875 C 99.429688 238.214844 98.15625 238.695312 97.25 239.554688 C 96.335938 240.414062 95.828125 241.636719 95.832031 242.960938 C 95.832031 243.488281 95.90625 244.03125 96.066406 244.582031 L 96.070312 244.589844 L 120.390625 325.832031 L 121.367188 325.542969 L 120.386719 325.820312 C 120.835938 327.363281 121.828125 329.628906 123.132812 331.589844 C 123.324219 331.871094 123.640625 332.042969 123.984375 332.042969 L 123.984375 331.023438 L 124.832031 330.457031 C 123.664062 328.714844 122.710938 326.539062 122.347656 325.257812 L 122.347656 325.246094 L 98.023438 244.007812 L 97.046875 244.296875 L 98.027344 244.015625 C 97.921875 243.640625 97.871094 243.289062 97.871094 242.960938 C 97.875 242.144531 98.164062 241.507812 98.652344 241.039062 C 99.144531 240.574219 99.875 240.257812 100.863281 240.257812 L 210.71875 240.257812 C 211.703125 240.257812 212.433594 240.574219 212.925781 241.039062 C 213.417969 241.507812 213.699219 242.144531 213.703125 242.960938 C 213.703125 243.289062 213.660156 243.640625 213.550781 244.019531 L 214.535156 244.296875 L 213.558594 244.007812 L 189.230469 325.246094 L 189.226562 325.257812 C 188.871094 326.539062 187.917969 328.714844 186.746094 330.453125 L 187.597656 331.023438 L 187.597656 330.003906 L 123.984375 330.003906 L 123.984375 331.023438 L 124.832031 330.457031 L 123.984375 331.023438 "/>
<path style=" stroke:none;fill-rule:nonzero;fill:rgb(100%,100%,100%);fill-opacity:1;" d="M 211.835938 253.304688 L 208.617188 264.050781 C 217.351562 267.214844 223.617188 275.582031 223.617188 285.398438 C 223.617188 297.917969 213.429688 308.101562 200.910156 308.101562 C 199.089844 308.101562 197.320312 307.875 195.625 307.464844 L 192.402344 318.214844 C 195.125 318.917969 197.972656 319.308594 200.910156 319.308594 C 219.605469 319.308594 234.820312 304.09375 234.820312 285.398438 C 234.820312 270.523438 225.1875 257.859375 211.835938 253.304688 "/>
<path style=" stroke:none;fill-rule:nonzero;fill:rgb(23.919678%,13.729858%,13.729858%);fill-opacity:1;" d="M 211.835938 253.304688 L 210.859375 253.007812 L 207.640625 263.757812 C 207.484375 264.277344 207.761719 264.828125 208.269531 265.011719 C 216.609375 268.03125 222.59375 276.03125 222.59375 285.398438 C 222.59375 291.378906 220.164062 296.792969 216.234375 300.726562 C 212.304688 304.652344 206.890625 307.082031 200.910156 307.082031 C 199.171875 307.082031 197.488281 306.863281 195.863281 306.472656 C 195.335938 306.347656 194.800781 306.65625 194.644531 307.171875 L 191.425781 317.921875 C 191.34375 318.183594 191.378906 318.472656 191.511719 318.714844 C 191.648438 318.953125 191.878906 319.132812 192.148438 319.203125 C 194.945312 319.925781 197.878906 320.332031 200.910156 320.332031 C 220.171875 320.328125 235.835938 304.660156 235.839844 285.398438 C 235.835938 270.074219 225.921875 257.03125 212.164062 252.335938 C 211.902344 252.246094 211.617188 252.269531 211.367188 252.394531 C 211.121094 252.523438 210.9375 252.746094 210.859375 253.007812 L 211.835938 253.304688 L 211.507812 254.269531 C 224.457031 258.691406 233.804688 270.972656 233.800781 285.398438 C 233.800781 294.464844 230.109375 302.683594 224.15625 308.644531 C 218.195312 314.601562 209.976562 318.289062 200.910156 318.289062 C 198.058594 318.289062 195.300781 317.910156 192.660156 317.226562 L 192.402344 318.214844 L 193.382812 318.507812 L 196.601562 307.757812 L 195.625 307.464844 L 195.382812 308.457031 C 197.152344 308.882812 199 309.121094 200.910156 309.121094 C 213.996094 309.121094 224.632812 298.484375 224.636719 285.398438 C 224.632812 275.140625 218.09375 266.398438 208.96875 263.09375 L 208.617188 264.050781 L 209.59375 264.34375 L 212.816406 253.59375 L 211.835938 253.304688 L 211.507812 254.269531 L 211.835938 253.304688 "/>
<path style=" stroke:none;fill-rule:nonzero;fill:rgb(100%,100%,100%);fill-opacity:1;" d="M 151.355469 209.0625 C 151.355469 209.0625 148.546875 216.917969 152.457031 219.113281 C 156.359375 221.3125 161.066406 217.792969 158.433594 209.0625 L 151.355469 209.0625 "/>
<path style=" stroke:none;fill-rule:nonzero;fill:rgb(23.919678%,13.729858%,13.729858%);fill-opacity:1;" d="M 151.355469 209.0625 L 150.394531 208.722656 C 150.378906 208.78125 149.367188 211.558594 149.359375 214.484375 C 149.363281 215.507812 149.484375 216.558594 149.867188 217.539062 C 150.242188 218.511719 150.925781 219.429688 151.953125 220.003906 C 152.851562 220.507812 153.808594 220.773438 154.757812 220.769531 C 156.234375 220.777344 157.667969 220.109375 158.660156 218.867188 C 159.652344 217.632812 160.21875 215.882812 160.21875 213.710938 C 160.21875 212.261719 159.96875 210.609375 159.410156 208.769531 C 159.28125 208.339844 158.882812 208.042969 158.433594 208.042969 L 151.355469 208.042969 C 150.925781 208.042969 150.539062 208.3125 150.394531 208.722656 L 151.355469 209.0625 L 151.355469 210.085938 L 158.433594 210.085938 L 158.433594 209.0625 L 157.457031 209.359375 C 157.964844 211.042969 158.175781 212.496094 158.175781 213.710938 C 158.175781 215.535156 157.703125 216.800781 157.070312 217.589844 C 156.425781 218.371094 155.640625 218.722656 154.757812 218.726562 C 154.191406 218.726562 153.574219 218.574219 152.953125 218.226562 C 152.382812 217.898438 152.023438 217.4375 151.765625 216.789062 C 151.515625 216.152344 151.398438 215.339844 151.398438 214.484375 C 151.398438 213.265625 151.625 211.972656 151.859375 211.003906 C 151.976562 210.519531 152.09375 210.117188 152.175781 209.832031 C 152.21875 209.695312 152.257812 209.582031 152.28125 209.511719 L 152.316406 209.40625 L 151.355469 209.0625 L 151.355469 210.085938 L 151.355469 209.0625 "/>
<path style=" stroke:none;fill-rule:nonzero;fill:rgb(100%,100%,100%);fill-opacity:1;" d="M 163.183594 217.214844 C 163.183594 217.214844 153.003906 235.152344 163.183594 235.152344 C 173.363281 235.152344 163.183594 217.214844 163.183594 217.214844 "/>
<path style=" stroke:none;fill-rule:nonzero;fill:rgb(23.919678%,13.729858%,13.729858%);fill-opacity:1;" d="M 163.183594 217.214844 L 162.296875 216.710938 C 162.285156 216.730469 161.140625 218.753906 159.984375 221.464844 C 159.40625 222.820312 158.828125 224.351562 158.382812 225.902344 C 157.945312 227.457031 157.640625 229.027344 157.636719 230.496094 C 157.636719 231.960938 157.941406 233.382812 158.871094 234.484375 C 159.332031 235.027344 159.945312 235.464844 160.671875 235.75 C 161.402344 236.03125 162.234375 236.171875 163.183594 236.171875 C 164.128906 236.171875 164.964844 236.03125 165.691406 235.75 C 166.789062 235.328125 167.609375 234.539062 168.082031 233.605469 C 168.554688 232.664062 168.726562 231.601562 168.730469 230.496094 C 168.726562 229.027344 168.417969 227.457031 167.980469 225.902344 C 166.660156 221.257812 164.089844 216.746094 164.070312 216.710938 C 163.890625 216.386719 163.550781 216.191406 163.183594 216.191406 C 162.8125 216.191406 162.480469 216.386719 162.296875 216.710938 L 163.183594 217.214844 L 162.296875 217.714844 L 162.34375 217.800781 C 162.578125 218.222656 163.683594 220.25 164.710938 222.757812 C 165.753906 225.257812 166.695312 228.269531 166.683594 230.496094 C 166.6875 231.695312 166.425781 232.597656 165.941406 233.160156 C 165.695312 233.445312 165.390625 233.671875 164.949219 233.847656 C 164.511719 234.019531 163.933594 234.128906 163.183594 234.128906 C 162.433594 234.128906 161.855469 234.019531 161.417969 233.847656 C 160.761719 233.578125 160.390625 233.214844 160.105469 232.675781 C 159.828125 232.132812 159.679688 231.390625 159.679688 230.496094 C 159.679688 229.3125 159.9375 227.898438 160.351562 226.460938 C 160.960938 224.300781 161.898438 222.101562 162.675781 220.449219 C 163.066406 219.625 163.414062 218.941406 163.671875 218.460938 C 163.792969 218.21875 163.898438 218.03125 163.964844 217.90625 C 164.039062 217.777344 164.070312 217.714844 164.070312 217.714844 L 163.183594 217.214844 L 162.296875 217.714844 L 163.183594 217.214844 "/>
<path style=" stroke:none;fill-rule:nonzero;fill:rgb(100%,100%,100%);fill-opacity:1;" d="M 143.429688 210.324219 C 143.429688 210.324219 136.417969 222.671875 143.429688 222.671875 C 150.433594 222.671875 143.429688 210.324219 143.429688 210.324219 "/>
<path style=" stroke:none;fill-rule:nonzero;fill:rgb(23.919678%,13.729858%,13.729858%);fill-opacity:1;" d="M 143.429688 210.324219 L 142.539062 209.820312 C 142.527344 209.839844 141.734375 211.242188 140.933594 213.121094 C 140.53125 214.066406 140.128906 215.132812 139.820312 216.214844 C 139.511719 217.304688 139.292969 218.410156 139.292969 219.46875 C 139.292969 220.519531 139.507812 221.574219 140.21875 222.417969 C 140.570312 222.835938 141.039062 223.164062 141.582031 223.378906 C 142.128906 223.59375 142.746094 223.691406 143.429688 223.691406 C 144.109375 223.691406 144.726562 223.59375 145.269531 223.378906 C 146.09375 223.066406 146.730469 222.460938 147.082031 221.75 C 147.441406 221.039062 147.5625 220.261719 147.5625 219.46875 C 147.5625 218.414062 147.34375 217.304688 147.035156 216.214844 C 146.113281 212.972656 144.332031 209.855469 144.316406 209.820312 C 144.132812 209.5 143.796875 209.304688 143.429688 209.304688 C 143.0625 209.304688 142.722656 209.5 142.539062 209.820312 L 143.429688 210.324219 L 142.539062 210.824219 L 142.570312 210.882812 C 142.730469 211.164062 143.484375 212.550781 144.1875 214.261719 C 144.894531 215.960938 145.53125 218.015625 145.523438 219.46875 C 145.523438 220.25 145.347656 220.792969 145.082031 221.097656 C 144.949219 221.253906 144.785156 221.375 144.527344 221.480469 C 144.269531 221.578125 143.914062 221.652344 143.429688 221.652344 C 142.941406 221.652344 142.582031 221.578125 142.328125 221.480469 C 141.945312 221.320312 141.757812 221.132812 141.589844 220.820312 C 141.429688 220.515625 141.332031 220.046875 141.335938 219.46875 C 141.332031 218.695312 141.507812 217.746094 141.78125 216.773438 C 142.195312 215.316406 142.835938 213.8125 143.363281 212.6875 C 143.632812 212.125 143.871094 211.65625 144.042969 211.328125 C 144.128906 211.164062 144.199219 211.039062 144.246094 210.953125 L 144.316406 210.824219 L 143.429688 210.324219 L 142.539062 210.824219 L 143.429688 210.324219 "/>
<path style=" stroke:none;fill-rule:nonzero;fill:rgb(100%,100%,100%);fill-opacity:1;" d="M 150.144531 226.179688 C 150.144531 226.179688 145.621094 234.144531 150.144531 234.144531 C 154.664062 234.144531 150.144531 226.179688 150.144531 226.179688 "/>
<path style=" stroke:none;fill-rule:nonzero;fill:rgb(23.919678%,13.729858%,13.729858%);fill-opacity:1;" d="M 150.144531 226.179688 L 149.257812 225.675781 C 149.242188 225.699219 148.726562 226.609375 148.203125 227.847656 C 147.9375 228.464844 147.671875 229.167969 147.46875 229.886719 C 147.265625 230.609375 147.113281 231.347656 147.113281 232.082031 C 147.113281 232.804688 147.261719 233.578125 147.792969 234.21875 C 148.0625 234.53125 148.421875 234.785156 148.820312 234.941406 C 149.226562 235.097656 149.667969 235.167969 150.144531 235.167969 C 150.621094 235.167969 151.058594 235.097656 151.464844 234.941406 C 152.074219 234.710938 152.5625 234.246094 152.820312 233.71875 C 153.089844 233.1875 153.171875 232.632812 153.171875 232.082031 C 153.171875 231.347656 153.023438 230.609375 152.816406 229.886719 C 152.203125 227.734375 151.046875 225.714844 151.03125 225.675781 C 150.847656 225.359375 150.507812 225.160156 150.144531 225.160156 C 149.777344 225.160156 149.4375 225.359375 149.257812 225.675781 L 150.144531 226.179688 L 149.257812 226.6875 L 149.273438 226.71875 C 149.371094 226.894531 149.851562 227.777344 150.296875 228.859375 C 150.75 229.9375 151.140625 231.234375 151.132812 232.082031 C 151.132812 232.539062 151.027344 232.796875 150.9375 232.894531 C 150.886719 232.949219 150.835938 232.992188 150.722656 233.042969 C 150.605469 233.085938 150.421875 233.125 150.144531 233.125 C 149.863281 233.125 149.679688 233.085938 149.566406 233.042969 C 149.398438 232.964844 149.359375 232.917969 149.28125 232.789062 C 149.214844 232.664062 149.152344 232.417969 149.152344 232.082031 C 149.152344 231.636719 149.257812 231.046875 149.429688 230.441406 C 149.6875 229.53125 150.089844 228.578125 150.429688 227.863281 C 150.597656 227.503906 150.753906 227.207031 150.859375 227 C 150.917969 226.898438 150.960938 226.8125 150.988281 226.761719 L 151.03125 226.6875 L 150.144531 226.179688 L 149.257812 226.6875 L 150.144531 226.179688 "/>
<path style=" stroke:none;fill-rule:nonzero;fill:rgb(78.819275%,53.329468%,36.859131%);fill-opacity:1;" d="M 281.277344 95.289062 L 28.523438 95.289062 L 28.523438 18.035156 L 281.277344 18.035156 L 281.277344 95.289062 "/>
<path style=" stroke:none;fill-rule:nonzero;fill:rgb(23.919678%,13.729858%,13.729858%);fill-opacity:1;" d="M 281.277344 95.289062 L 281.277344 94.269531 L 29.542969 94.269531 L 29.542969 19.054688 L 280.257812 19.054688 L 280.257812 95.289062 L 281.277344 95.289062 L 281.277344 94.269531 L 281.277344 95.289062 L 282.296875 95.289062 L 282.296875 18.035156 C 282.296875 17.765625 282.1875 17.503906 282 17.3125 C 281.808594 17.121094 281.542969 17.015625 281.277344 17.015625 L 28.523438 17.015625 C 28.253906 17.015625 27.992188 17.121094 27.800781 17.3125 C 27.613281 17.503906 27.5 17.765625 27.5 18.035156 L 27.5 95.289062 C 27.5 95.558594 27.613281 95.824219 27.800781 96.011719 C 27.992188 96.203125 28.253906 96.308594 28.523438 96.308594 L 281.277344 96.308594 C 281.542969 96.308594 281.808594 96.203125 282 96.011719 C 282.1875 95.824219 282.296875 95.558594 282.296875 95.289062 L 281.277344 95.289062 "/>
<path style=" stroke:none;fill-rule:nonzero;fill:rgb(100%,100%,100%);fill-opacity:1;" d="M 284.191406 374.003906 L 284.191406 349.664062 C 284.191406 347.527344 282.457031 345.792969 280.320312 345.792969 L 29.484375 345.792969 C 27.339844 345.792969 25.609375 347.527344 25.609375 349.664062 L 25.609375 374.003906 L 284.191406 374.003906 "/>
<g clip-path="url(#clip2)" clip-rule="nonzero">
<path style=" stroke:none;fill-rule:nonzero;fill:rgb(23.919678%,13.729858%,13.729858%);fill-opacity:1;" d="M 284.191406 374.003906 L 285.210938 374.003906 L 285.210938 349.664062 C 285.210938 346.960938 283.019531 344.773438 280.320312 344.769531 L 29.484375 344.769531 C 26.78125 344.769531 24.589844 346.964844 24.589844 349.664062 L 24.589844 374.003906 C 24.589844 374.269531 24.699219 374.535156 24.890625 374.726562 C 25.082031 374.917969 25.339844 375.023438 25.609375 375.023438 L 284.191406 375.023438 C 284.457031 375.023438 284.722656 374.917969 284.914062 374.726562 C 285.105469 374.535156 285.210938 374.269531 285.210938 374.003906 L 284.191406 374.003906 L 284.191406 372.984375 L 26.632812 372.984375 L 26.632812 349.664062 C 26.636719 348.089844 27.90625 346.816406 29.484375 346.8125 L 280.320312 346.8125 C 281.890625 346.816406 283.167969 348.089844 283.171875 349.664062 L 283.171875 374.003906 L 284.191406 374.003906 L 284.191406 372.984375 L 284.191406 374.003906 "/>
</g>
<path style=" stroke:none;fill-rule:nonzero;fill:rgb(100%,100%,100%);fill-opacity:1;" d="M 273.90625 345.792969 L 273.90625 333.625 C 273.90625 332.554688 273.039062 331.683594 271.96875 331.683594 L 37.832031 331.683594 C 36.761719 331.683594 35.894531 332.554688 35.894531 333.625 L 35.894531 345.792969 L 273.90625 345.792969 "/>
<path style=" stroke:none;fill-rule:nonzero;fill:rgb(23.919678%,13.729858%,13.729858%);fill-opacity:1;" d="M 273.90625 345.792969 L 274.925781 345.792969 L 274.925781 333.625 C 274.925781 331.988281 273.601562 330.664062 271.96875 330.664062 L 37.832031 330.664062 C 36.195312 330.664062 34.875 331.988281 34.875 333.625 L 34.875 345.792969 C 34.875 346.0625 34.984375 346.324219 35.171875 346.511719 C 35.363281 346.703125 35.625 346.8125 35.894531 346.8125 L 273.90625 346.8125 C 274.171875 346.8125 274.433594 346.703125 274.625 346.511719 C 274.816406 346.324219 274.925781 346.0625 274.925781 345.792969 L 273.90625 345.792969 L 273.90625 344.769531 L 36.914062 344.769531 L 36.914062 333.625 C 36.914062 333.121094 37.324219 332.710938 37.832031 332.707031 L 271.96875 332.707031 C 272.472656 332.710938 272.882812 333.117188 272.882812 333.625 L 272.882812 345.792969 L 273.90625 345.792969 L 273.90625 344.769531 L 273.90625 345.792969 "/>
</g>
</svg>
