<?xml version="1.0" encoding="UTF-8"?>
<svg xmlns="http://www.w3.org/2000/svg" xmlns:xlink="http://www.w3.org/1999/xlink" width="375pt" height="374.999991pt" viewBox="0 0 375 374.999991" version="1.2">
<defs>
<clipPath id="clip1">
  <path d="M 3.40625 3.070312 L 371.65625 3.070312 L 371.65625 372.070312 L 3.40625 372.070312 Z M 3.40625 3.070312 "/>
</clipPath>
</defs>
<g id="surface1">
<g clip-path="url(#clip1)" clip-rule="nonzero">
<path style=" stroke:none;fill-rule:nonzero;fill:rgb(21.569824%,21.179199%,23.139954%);fill-opacity:1;" d="M 371.660156 188.046875 C 371.660156 191.058594 371.585938 194.070312 371.441406 197.082031 C 371.292969 200.09375 371.070312 203.097656 370.773438 206.097656 C 370.480469 209.097656 370.109375 212.085938 369.667969 215.066406 C 369.226562 218.050781 368.710938 221.019531 368.125 223.972656 C 367.535156 226.929688 366.875 229.871094 366.144531 232.792969 C 365.410156 235.71875 364.609375 238.621094 363.734375 241.503906 C 362.859375 244.390625 361.914062 247.25 360.898438 250.089844 C 359.882812 252.925781 358.800781 255.738281 357.648438 258.523438 C 356.496094 261.308594 355.273438 264.0625 353.984375 266.785156 C 352.699219 269.511719 351.34375 272.203125 349.921875 274.859375 C 348.503906 277.519531 347.019531 280.140625 345.46875 282.726562 C 343.921875 285.308594 342.308594 287.855469 340.636719 290.363281 C 338.960938 292.867188 337.226562 295.332031 335.433594 297.753906 C 333.636719 300.171875 331.785156 302.546875 329.875 304.878906 C 327.960938 307.207031 325.996094 309.488281 323.972656 311.722656 C 321.949219 313.957031 319.871094 316.140625 317.742188 318.269531 C 315.609375 320.402344 313.429688 322.480469 311.195312 324.503906 C 308.964844 326.527344 306.683594 328.496094 304.355469 330.40625 C 302.027344 332.320312 299.652344 334.171875 297.230469 335.96875 C 294.8125 337.765625 292.347656 339.5 289.84375 341.171875 C 287.339844 342.847656 284.792969 344.460938 282.210938 346.007812 C 279.625 347.558594 277.003906 349.042969 274.347656 350.464844 C 271.691406 351.886719 269 353.242188 266.277344 354.527344 C 263.554688 355.816406 260.800781 357.039062 258.015625 358.191406 C 255.234375 359.34375 252.421875 360.429688 249.585938 361.445312 C 246.75 362.460938 243.890625 363.40625 241.003906 364.28125 C 238.121094 365.15625 235.21875 365.960938 232.296875 366.691406 C 229.375 367.425781 226.4375 368.085938 223.480469 368.671875 C 220.527344 369.261719 217.558594 369.773438 214.578125 370.21875 C 211.597656 370.660156 208.609375 371.027344 205.609375 371.324219 C 202.613281 371.621094 199.609375 371.839844 196.597656 371.988281 C 193.589844 372.136719 190.578125 372.210938 187.566406 372.210938 C 184.554688 372.210938 181.542969 372.136719 178.53125 371.988281 C 175.523438 371.839844 172.519531 371.621094 169.519531 371.324219 C 166.523438 371.027344 163.535156 370.660156 160.554688 370.21875 C 157.574219 369.773438 154.605469 369.261719 151.652344 368.671875 C 148.695312 368.085938 145.757812 367.425781 142.835938 366.691406 C 139.910156 365.960938 137.007812 365.15625 134.125 364.28125 C 131.242188 363.40625 128.382812 362.460938 125.546875 361.445312 C 122.710938 360.429688 119.898438 359.34375 117.117188 358.191406 C 114.332031 357.039062 111.578125 355.816406 108.855469 354.527344 C 106.132812 353.242188 103.441406 351.886719 100.785156 350.464844 C 98.125 349.042969 95.503906 347.558594 92.921875 346.007812 C 90.335938 344.460938 87.792969 342.847656 85.289062 341.171875 C 82.78125 339.5 80.320312 337.765625 77.898438 335.96875 C 75.480469 334.171875 73.105469 332.320312 70.777344 330.40625 C 68.449219 328.496094 66.167969 326.527344 63.933594 324.503906 C 61.703125 322.480469 59.519531 320.402344 57.390625 318.269531 C 55.261719 316.140625 53.183594 313.957031 51.160156 311.722656 C 49.136719 309.488281 47.167969 307.207031 45.257812 304.878906 C 43.347656 302.546875 41.492188 300.171875 39.699219 297.753906 C 37.902344 295.332031 36.167969 292.867188 34.496094 290.363281 C 32.820312 287.855469 31.210938 285.308594 29.660156 282.726562 C 28.113281 280.140625 26.628906 277.519531 25.207031 274.859375 C 23.789062 272.203125 22.433594 269.511719 21.144531 266.785156 C 19.855469 264.0625 18.636719 261.308594 17.484375 258.523438 C 16.332031 255.738281 15.246094 252.925781 14.230469 250.089844 C 13.214844 247.25 12.273438 244.390625 11.398438 241.503906 C 10.523438 238.621094 9.71875 235.71875 8.988281 232.792969 C 8.253906 229.871094 7.59375 226.929688 7.007812 223.972656 C 6.417969 221.019531 5.90625 218.050781 5.460938 215.066406 C 5.019531 212.085938 4.652344 209.097656 4.355469 206.097656 C 4.0625 203.097656 3.839844 200.09375 3.691406 197.082031 C 3.542969 194.070312 3.46875 191.058594 3.46875 188.046875 C 3.46875 185.03125 3.542969 182.019531 3.691406 179.007812 C 3.839844 176 4.0625 172.992188 4.355469 169.992188 C 4.652344 166.996094 5.019531 164.003906 5.460938 161.023438 C 5.90625 158.042969 6.417969 155.074219 7.007812 152.117188 C 7.59375 149.160156 8.253906 146.21875 8.988281 143.296875 C 9.71875 140.371094 10.523438 137.46875 11.398438 134.585938 C 12.273438 131.699219 13.214844 128.839844 14.230469 126 C 15.246094 123.164062 16.332031 120.351562 17.484375 117.566406 C 18.636719 114.785156 19.855469 112.027344 21.144531 109.304688 C 22.433594 106.578125 23.789062 103.886719 25.207031 101.230469 C 26.628906 98.570312 28.113281 95.949219 29.660156 93.363281 C 31.210938 90.78125 32.820312 88.234375 34.496094 85.726562 C 36.167969 83.222656 37.902344 80.757812 39.699219 78.335938 C 41.492188 75.917969 43.347656 73.542969 45.257812 71.210938 C 47.167969 68.882812 49.136719 66.601562 51.160156 64.367188 C 53.183594 62.132812 55.261719 59.953125 57.390625 57.820312 C 59.519531 55.6875 61.703125 53.613281 63.933594 51.585938 C 66.167969 49.5625 68.449219 47.59375 70.777344 45.683594 C 73.105469 43.769531 75.480469 41.917969 77.898438 40.121094 C 80.320312 38.328125 82.78125 36.589844 85.289062 34.917969 C 87.792969 33.242188 90.335938 31.628906 92.921875 30.082031 C 95.503906 28.53125 98.125 27.046875 100.785156 25.625 C 103.441406 24.203125 106.132812 22.851562 108.855469 21.5625 C 111.578125 20.273438 114.332031 19.050781 117.117188 17.898438 C 119.898438 16.746094 122.710938 15.660156 125.546875 14.644531 C 128.382812 13.628906 131.242188 12.683594 134.125 11.808594 C 137.007812 10.933594 139.910156 10.132812 142.835938 9.398438 C 145.757812 8.667969 148.695312 8.007812 151.652344 7.417969 C 154.605469 6.832031 157.574219 6.316406 160.554688 5.871094 C 163.535156 5.429688 166.523438 5.0625 169.519531 4.765625 C 172.519531 4.472656 175.523438 4.25 178.53125 4.101562 C 181.542969 3.953125 184.554688 3.878906 187.566406 3.878906 C 190.578125 3.878906 193.589844 3.953125 196.597656 4.101562 C 199.609375 4.25 202.613281 4.472656 205.609375 4.765625 C 208.609375 5.0625 211.597656 5.429688 214.578125 5.871094 C 217.558594 6.316406 220.527344 6.832031 223.480469 7.417969 C 226.4375 8.007812 229.375 8.667969 232.296875 9.398438 C 235.21875 10.132812 238.121094 10.933594 241.003906 11.808594 C 243.890625 12.683594 246.75 13.628906 249.585938 14.644531 C 252.421875 15.660156 255.234375 16.746094 258.015625 17.898438 C 260.800781 19.050781 263.554688 20.273438 266.277344 21.5625 C 269 22.851562 271.691406 24.203125 274.347656 25.625 C 277.003906 27.046875 279.625 28.53125 282.210938 30.082031 C 284.792969 31.628906 287.339844 33.242188 289.84375 34.917969 C 292.347656 36.589844 294.8125 38.328125 297.230469 40.121094 C 299.652344 41.917969 302.027344 43.769531 304.355469 45.683594 C 306.683594 47.59375 308.964844 49.5625 311.195312 51.585938 C 313.429688 53.613281 315.609375 55.6875 317.742188 57.820312 C 319.871094 59.953125 321.949219 62.132812 323.972656 64.367188 C 325.996094 66.601562 327.960938 68.882812 329.875 71.210938 C 331.785156 73.542969 333.636719 75.917969 335.433594 78.335938 C 337.226562 80.757812 338.960938 83.222656 340.636719 85.726562 C 342.308594 88.234375 343.921875 90.78125 345.46875 93.363281 C 347.019531 95.949219 348.503906 98.570312 349.921875 101.230469 C 351.34375 103.886719 352.699219 106.578125 353.984375 109.304688 C 355.273438 112.027344 356.496094 114.785156 357.648438 117.566406 C 358.800781 120.351562 359.886719 123.164062 360.898438 126 C 361.914062 128.839844 362.859375 131.699219 363.734375 134.585938 C 364.609375 137.46875 365.410156 140.371094 366.144531 143.296875 C 366.875 146.21875 367.535156 149.160156 368.125 152.117188 C 368.710938 155.074219 369.226562 158.042969 369.667969 161.023438 C 370.109375 164.003906 370.480469 166.996094 370.773438 169.992188 C 371.070312 172.992188 371.292969 176 371.441406 179.007812 C 371.585938 182.019531 371.660156 185.03125 371.660156 188.046875 Z M 371.660156 188.046875 "/>
</g>
<path style=" stroke:none;fill-rule:nonzero;fill:rgb(94.119263%,93.328857%,88.62915%);fill-opacity:1;" d="M 341.652344 188.046875 C 341.652344 190.566406 341.589844 193.089844 341.46875 195.609375 C 341.34375 198.128906 341.15625 200.644531 340.910156 203.152344 C 340.664062 205.664062 340.355469 208.167969 339.984375 210.664062 C 339.613281 213.160156 339.183594 215.644531 338.691406 218.117188 C 338.199219 220.59375 337.648438 223.050781 337.035156 225.5 C 336.421875 227.945312 335.75 230.378906 335.019531 232.792969 C 334.285156 235.207031 333.496094 237.601562 332.644531 239.976562 C 331.796875 242.351562 330.890625 244.703125 329.921875 247.035156 C 328.957031 249.363281 327.9375 251.671875 326.859375 253.949219 C 325.78125 256.230469 324.648438 258.484375 323.457031 260.710938 C 322.269531 262.933594 321.027344 265.128906 319.730469 267.292969 C 318.433594 269.457031 317.085938 271.585938 315.683594 273.683594 C 314.285156 275.78125 312.832031 277.84375 311.328125 279.871094 C 309.828125 281.894531 308.277344 283.882812 306.675781 285.835938 C 305.078125 287.785156 303.429688 289.695312 301.738281 291.5625 C 300.042969 293.433594 298.304688 295.257812 296.523438 297.042969 C 294.738281 298.828125 292.914062 300.566406 291.042969 302.257812 C 289.175781 303.953125 287.265625 305.601562 285.316406 307.203125 C 283.367188 308.800781 281.378906 310.355469 279.355469 311.855469 C 277.328125 313.359375 275.269531 314.8125 273.171875 316.210938 C 271.074219 317.613281 268.945312 318.964844 266.78125 320.261719 C 264.621094 321.558594 262.425781 322.800781 260.203125 323.988281 C 257.976562 325.179688 255.726562 326.3125 253.445312 327.390625 C 251.167969 328.46875 248.863281 329.492188 246.53125 330.457031 C 244.203125 331.421875 241.851562 332.332031 239.476562 333.179688 C 237.101562 334.03125 234.707031 334.820312 232.292969 335.554688 C 229.882812 336.285156 227.453125 336.957031 225.003906 337.570312 C 222.558594 338.183594 220.101562 338.738281 217.625 339.230469 C 215.152344 339.722656 212.667969 340.152344 210.175781 340.523438 C 207.679688 340.894531 205.179688 341.203125 202.667969 341.449219 C 200.160156 341.695312 197.644531 341.882812 195.125 342.003906 C 192.609375 342.128906 190.085938 342.191406 187.566406 342.191406 C 185.042969 342.191406 182.523438 342.128906 180.003906 342.003906 C 177.484375 341.882812 174.972656 341.695312 172.460938 341.449219 C 169.953125 341.203125 167.449219 340.894531 164.957031 340.523438 C 162.460938 340.152344 159.976562 339.722656 157.503906 339.230469 C 155.03125 338.738281 152.570312 338.183594 150.125 337.570312 C 147.679688 336.957031 145.25 336.285156 142.835938 335.554688 C 140.421875 334.820312 138.03125 334.03125 135.65625 333.179688 C 133.28125 332.332031 130.929688 331.421875 128.597656 330.457031 C 126.269531 329.492188 123.964844 328.46875 121.683594 327.390625 C 119.40625 326.3125 117.152344 325.179688 114.929688 323.988281 C 112.707031 322.800781 110.511719 321.558594 108.347656 320.261719 C 106.1875 318.964844 104.054688 317.613281 101.960938 316.210938 C 99.863281 314.8125 97.800781 313.359375 95.777344 311.855469 C 93.75 310.351562 91.761719 308.800781 89.8125 307.203125 C 87.863281 305.601562 85.957031 303.953125 84.085938 302.257812 C 82.21875 300.566406 80.394531 298.828125 78.609375 297.042969 C 76.828125 295.257812 75.089844 293.433594 73.394531 291.5625 C 71.699219 289.695312 70.054688 287.785156 68.453125 285.835938 C 66.855469 283.882812 65.304688 281.894531 63.800781 279.871094 C 62.300781 277.84375 60.847656 275.78125 59.445312 273.683594 C 58.046875 271.585938 56.695312 269.457031 55.402344 267.292969 C 54.105469 265.128906 52.863281 262.933594 51.671875 260.710938 C 50.484375 258.484375 49.351562 256.230469 48.273438 253.949219 C 47.195312 251.671875 46.171875 249.363281 45.207031 247.035156 C 44.242188 244.703125 43.335938 242.351562 42.484375 239.976562 C 41.636719 237.601562 40.84375 235.207031 40.113281 232.792969 C 39.382812 230.378906 38.710938 227.945312 38.097656 225.5 C 37.484375 223.050781 36.929688 220.59375 36.4375 218.117188 C 35.945312 215.644531 35.515625 213.160156 35.144531 210.664062 C 34.777344 208.167969 34.46875 205.664062 34.21875 203.152344 C 33.972656 200.644531 33.789062 198.128906 33.664062 195.609375 C 33.539062 193.089844 33.476562 190.566406 33.476562 188.046875 C 33.476562 185.523438 33.539062 183 33.664062 180.480469 C 33.789062 177.960938 33.972656 175.445312 34.21875 172.9375 C 34.46875 170.425781 34.777344 167.921875 35.144531 165.425781 C 35.515625 162.933594 35.945312 160.445312 36.4375 157.972656 C 36.929688 155.5 37.484375 153.039062 38.097656 150.589844 C 38.710938 148.144531 39.382812 145.714844 40.113281 143.300781 C 40.84375 140.886719 41.636719 138.492188 42.484375 136.113281 C 43.335938 133.738281 44.242188 131.386719 45.207031 129.054688 C 46.171875 126.726562 47.195312 124.417969 48.273438 122.140625 C 49.351562 119.859375 50.484375 117.605469 51.671875 115.382812 C 52.863281 113.15625 54.105469 110.960938 55.402344 108.796875 C 56.695312 106.632812 58.046875 104.503906 59.445312 102.40625 C 60.847656 100.308594 62.300781 98.246094 63.800781 96.21875 C 65.304688 94.195312 66.855469 92.207031 68.453125 90.257812 C 70.054688 88.304688 71.699219 86.394531 73.394531 84.527344 C 75.089844 82.65625 76.828125 80.832031 78.609375 79.046875 C 80.394531 77.265625 82.21875 75.523438 84.085938 73.832031 C 85.957031 72.136719 87.863281 70.488281 89.8125 68.890625 C 91.761719 67.289062 93.75 65.738281 95.777344 64.234375 C 97.800781 62.730469 99.863281 61.277344 101.960938 59.878906 C 104.054688 58.476562 106.1875 57.125 108.347656 55.828125 C 110.511719 54.53125 112.707031 53.289062 114.929688 52.101562 C 117.152344 50.910156 119.40625 49.777344 121.683594 48.699219 C 123.964844 47.621094 126.269531 46.597656 128.597656 45.632812 C 130.929688 44.667969 133.28125 43.761719 135.65625 42.910156 C 138.03125 42.058594 140.421875 41.269531 142.835938 40.535156 C 145.25 39.804688 147.679688 39.132812 150.125 38.519531 C 152.570312 37.90625 155.03125 37.351562 157.503906 36.859375 C 159.976562 36.367188 162.460938 35.9375 164.957031 35.566406 C 167.449219 35.199219 169.953125 34.890625 172.460938 34.640625 C 174.972656 34.394531 177.484375 34.207031 180.003906 34.085938 C 182.523438 33.960938 185.042969 33.898438 187.566406 33.898438 C 190.085938 33.898438 192.609375 33.960938 195.125 34.085938 C 197.644531 34.207031 200.160156 34.394531 202.667969 34.640625 C 205.179688 34.890625 207.679688 35.199219 210.175781 35.566406 C 212.667969 35.9375 215.152344 36.367188 217.625 36.859375 C 220.101562 37.351562 222.558594 37.90625 225.003906 38.519531 C 227.453125 39.132812 229.882812 39.804688 232.292969 40.535156 C 234.707031 41.269531 237.101562 42.058594 239.476562 42.910156 C 241.851562 43.761719 244.203125 44.667969 246.53125 45.632812 C 248.863281 46.597656 251.167969 47.621094 253.445312 48.699219 C 255.726562 49.777344 257.976562 50.910156 260.203125 52.101562 C 262.425781 53.289062 264.621094 54.53125 266.78125 55.828125 C 268.945312 57.125 271.074219 58.476562 273.171875 59.878906 C 275.269531 61.277344 277.328125 62.730469 279.355469 64.234375 C 281.378906 65.738281 283.367188 67.289062 285.316406 68.890625 C 287.265625 70.488281 289.175781 72.136719 291.042969 73.832031 C 292.914062 75.523438 294.738281 77.265625 296.523438 79.046875 C 298.304688 80.832031 300.042969 82.65625 301.738281 84.527344 C 303.429688 86.394531 305.078125 88.304688 306.675781 90.257812 C 308.277344 92.207031 309.828125 94.195312 311.328125 96.21875 C 312.832031 98.246094 314.285156 100.308594 315.683594 102.40625 C 317.085938 104.503906 318.433594 106.632812 319.730469 108.796875 C 321.027344 110.960938 322.269531 113.15625 323.457031 115.382812 C 324.648438 117.605469 325.78125 119.859375 326.859375 122.140625 C 327.9375 124.417969 328.957031 126.726562 329.921875 129.054688 C 330.890625 131.386719 331.796875 133.738281 332.644531 136.113281 C 333.496094 138.492188 334.285156 140.886719 335.019531 143.300781 C 335.75 145.714844 336.421875 148.144531 337.035156 150.589844 C 337.648438 153.039062 338.199219 155.5 338.691406 157.972656 C 339.183594 160.445312 339.613281 162.933594 339.984375 165.425781 C 340.355469 167.921875 340.664062 170.425781 340.910156 172.9375 C 341.15625 175.445312 341.34375 177.960938 341.46875 180.480469 C 341.589844 183 341.652344 185.523438 341.652344 188.046875 Z M 341.652344 188.046875 "/>
<path style=" stroke:none;fill-rule:nonzero;fill:rgb(95.289612%,42.349243%,38.42926%);fill-opacity:1;" d="M 245.082031 30.441406 C 245.15625 30.292969 245.15625 30.148438 245.230469 30 C 248.464844 21.242188 243.316406 11.679688 234.269531 9.472656 C 227.578125 7.851562 219.707031 6.085938 212.132812 4.761719 C 202.789062 3.070312 194.113281 10.058594 193.816406 19.476562 L 193.816406 19.992188 C 193.523438 27.792969 199.039062 34.636719 206.761719 35.960938 C 213.527344 37.136719 220.808594 38.753906 226.839844 40.152344 C 234.492188 42.066406 242.359375 37.871094 245.082031 30.441406 Z M 245.082031 30.441406 "/>
<path style=" stroke:none;fill-rule:nonzero;fill:rgb(21.569824%,21.179199%,23.139954%);fill-opacity:1;" d="M 156.75 190.839844 C 156.75 186.351562 155.128906 182.96875 151.820312 182.96875 C 150.054688 182.96875 148.585938 184.292969 147.480469 185.910156 C 146.304688 187.675781 145.714844 189.738281 145.714844 190.839844 L 132.476562 190.839844 L 132.476562 134.40625 L 170.503906 134.40625 L 170.503906 150.003906 L 146.011719 150.003906 L 146.011719 172.300781 C 147.773438 170.976562 149.6875 169.796875 151.820312 169.0625 C 152.851562 168.621094 154.027344 168.472656 155.054688 168.621094 C 163.21875 168.621094 167.558594 173.257812 169.914062 178.40625 C 172.265625 183.484375 172.5625 189.074219 172.5625 190.769531 L 172.5625 214.679688 C 172.5625 219.757812 172.265625 226.601562 169.472656 232.339844 C 166.675781 238.152344 161.457031 242.714844 151.96875 242.714844 C 142.183594 242.714844 137.257812 238.226562 134.460938 231.75 C 131.667969 225.496094 131.375 217.476562 131.375 210.339844 L 147.113281 210.339844 L 147.113281 214.535156 C 147.113281 219.90625 147.40625 223.730469 148.144531 225.789062 C 148.878906 228 150.054688 229.027344 151.96875 229.027344 C 153.585938 229.027344 154.910156 228 155.644531 225.9375 C 156.378906 223.878906 156.820312 220.125 156.820312 214.679688 L 156.820312 190.839844 Z M 156.75 190.839844 "/>
<path style=" stroke:none;fill-rule:nonzero;fill:rgb(21.569824%,21.179199%,23.139954%);fill-opacity:1;" d="M 202.789062 176.714844 C 202.644531 181.496094 200.878906 184.882812 198.011719 187.382812 C 196.539062 188.707031 194.332031 189.296875 191.609375 189.296875 C 185.800781 189.296875 183.152344 186.351562 181.535156 183.042969 C 180.652344 181.277344 180.210938 179.214844 180.210938 176.789062 L 180.210938 145.738281 C 180.210938 141.101562 181.976562 137.863281 184.992188 135.214844 C 186.460938 133.890625 188.667969 133.304688 191.539062 133.304688 C 197.199219 133.304688 199.703125 136.539062 201.320312 139.558594 C 202.203125 141.324219 202.644531 143.382812 202.789062 145.664062 Z M 187.492188 241.609375 L 226.839844 134.480469 L 236.183594 134.480469 L 197.273438 241.609375 Z M 194.039062 145.664062 C 194.039062 144.339844 193.597656 143.164062 193.007812 142.28125 C 192.714844 141.839844 192.273438 141.691406 191.539062 141.691406 C 189.917969 141.691406 189.476562 142.722656 189.035156 143.75 C 188.890625 144.339844 188.742188 144.929688 188.890625 145.664062 L 188.890625 176.714844 C 188.742188 178.332031 189.035156 180.613281 191.539062 180.613281 C 193.742188 180.613281 194.039062 178.257812 194.039062 176.714844 Z M 243.683594 230.351562 C 243.539062 235.136719 241.773438 238.371094 238.902344 240.875 C 237.433594 242.199219 235.226562 242.789062 232.503906 242.789062 C 226.695312 242.789062 224.046875 239.695312 222.429688 236.679688 C 221.546875 234.914062 221.105469 232.855469 221.105469 230.425781 L 221.105469 199.375 C 221.105469 194.742188 222.871094 191.355469 225.886719 188.707031 C 227.355469 187.382812 229.5625 186.792969 232.429688 186.792969 C 238.09375 186.792969 240.59375 190.03125 242.214844 193.046875 C 243.097656 194.960938 243.539062 196.949219 243.683594 199.300781 Z M 235.003906 199.300781 C 235.003906 197.976562 234.5625 196.800781 233.976562 195.917969 C 233.679688 195.476562 233.238281 195.328125 232.503906 195.328125 C 230.886719 195.328125 230.445312 196.359375 230.003906 197.390625 C 229.855469 197.976562 229.710938 198.566406 229.855469 199.300781 L 229.855469 230.351562 C 229.710938 231.972656 230.152344 232.855469 230.886719 233.738281 C 231.179688 234.179688 231.769531 234.472656 232.503906 234.472656 C 233.828125 234.472656 234.269531 233.441406 234.710938 232.414062 C 234.859375 231.824219 235.003906 231.089844 235.003906 230.351562 Z M 235.003906 199.300781 "/>
</g>
</svg>
