<?xml version="1.0" encoding="UTF-8"?>
<svg xmlns="http://www.w3.org/2000/svg" xmlns:xlink="http://www.w3.org/1999/xlink" width="375pt" height="374.999991pt" viewBox="0 0 375 374.999991" version="1.2">
<g id="surface1">
<path style=" stroke:none;fill-rule:nonzero;fill:rgb(13.328552%,34.509277%,29.798889%);fill-opacity:1;" d="M 175.480469 374.316406 C 175.570312 373.867188 175.648438 373.402344 175.753906 372.945312 C 174.425781 373.609375 173.269531 373.933594 172.289062 374.082031 C 173.355469 374.171875 174.425781 374.238281 175.480469 374.316406 Z M 159.539062 360.65625 C 160.523438 357.894531 159.785156 358.496094 162.414062 358.707031 C 161.324219 350.109375 157.425781 343.320312 154.050781 336.988281 C 154.726562 334.390625 155.394531 331.738281 156.027344 329.113281 C 154.640625 325.816406 153.285156 322.476562 151.890625 319.152344 C 150.640625 312.285156 153.007812 297.640625 149.035156 288.203125 C 145.703125 280.25 135.410156 280.183594 131.492188 273.585938 C 130.042969 268.863281 128.582031 264.175781 127.128906 259.441406 C 124.195312 253.820312 118.945312 252.316406 117.894531 243.789062 C 119.320312 242.011719 119.9375 242.160156 120.675781 239.464844 C 113.359375 235.691406 124.78125 223.125 126.230469 220.605469 C 124.992188 215.683594 123.722656 210.777344 122.449219 205.832031 C 122.269531 205.632812 122.03125 205.457031 121.828125 205.261719 C 120.835938 205.527344 119.871094 205.765625 118.867188 206.03125 C 118.398438 208.269531 119.105469 207.597656 117.816406 209.070312 C 108.613281 205.707031 108.582031 198.5 101.359375 192.007812 C 93.554688 193.980469 94.40625 186.695312 89.609375 184.871094 C 87.03125 185.390625 84.464844 185.929688 81.914062 186.476562 C 76.738281 182.761719 71.535156 179.058594 66.351562 175.339844 C 67.140625 169.554688 58.585938 146.304688 54.414062 142.472656 C 54.222656 142.472656 54.027344 142.5 53.808594 142.5 C 53.832031 142.914062 53.859375 143.296875 53.867188 143.6875 C 52.117188 149.359375 58.585938 160.4375 59.253906 165.554688 C 58.835938 165.773438 58.453125 165.984375 58.070312 166.210938 C 55.175781 162.726562 52.472656 156.664062 50.179688 152.871094 C 50.972656 152.234375 51.722656 151.589844 52.472656 150.960938 C 49.160156 145.652344 51.765625 143.238281 49.386719 137.945312 C 47.6875 136.449219 46.019531 134.949219 44.332031 133.4375 C 36.910156 119.191406 50.480469 108.375 52.074219 98.910156 C 53.859375 98.824219 55.644531 98.703125 57.441406 98.625 C 57.390625 97.8125 57.355469 97.03125 57.304688 96.234375 C 56.257812 95.492188 55.226562 94.75 54.199219 94.011719 C 54.480469 95.386719 54.753906 96.773438 55.035156 98.148438 C 53.035156 97.277344 52.472656 97.191406 51.261719 95.359375 C 50.25 94.222656 50.457031 94.578125 49.914062 92.453125 C 50.714844 92.40625 51.492188 92.359375 52.3125 92.3125 C 52.035156 86.9375 51.722656 81.566406 51.441406 76.195312 C 48.214844 76.179688 39.90625 73.929688 39.726562 73.882812 C 15.683594 105.382812 1.355469 144.726562 1.355469 187.429688 C 1.355469 284.453125 75.132812 364.265625 169.632812 373.867188 C 164.589844 372.101562 164.816406 362.289062 159.539062 360.65625 Z M 361.648438 124.128906 C 362.132812 120.394531 361.402344 115.523438 360.671875 112.710938 C 360.375 111.972656 360.007812 111.265625 359.6875 110.519531 C 355.59375 111.972656 349.339844 112.785156 346.523438 109.980469 C 343.359375 107.820312 342.84375 105.929688 342.484375 101.824219 C 342.695312 101.601562 342.84375 101.402344 343.046875 101.195312 C 346.472656 99.992188 349.875 98.804688 353.285156 97.601562 C 351.410156 94.144531 349.394531 90.765625 347.273438 87.441406 C 345.746094 91.804688 345.03125 98.453125 344.132812 99.328125 C 341.707031 100.859375 337.183594 102.023438 334.699219 101.648438 C 336.121094 106.558594 337.867188 105.957031 337.003906 111.085938 C 330.957031 109.320312 330.492188 103.625 327.355469 98.453125 C 322.808594 95.683594 318.285156 92.945312 313.738281 90.210938 C 313.335938 90.421875 312.957031 90.640625 312.582031 90.859375 C 312.621094 91.664062 312.660156 92.472656 312.714844 93.257812 C 317.140625 95.050781 320.292969 99.578125 325.128906 101.5625 C 325.128906 101.953125 325.179688 102.339844 325.179688 102.757812 C 323.066406 104.140625 322.984375 106.585938 321.304688 108.34375 C 320.292969 101.097656 310.953125 97.898438 306.742188 93.574219 C 302.183594 94.363281 299.214844 95.855469 294.957031 97.210938 C 294.566406 104.125 285.710938 113.214844 279.207031 116.003906 C 276.707031 114.484375 275.820312 113.824219 271.324219 114.046875 C 271.484375 113.40625 271.691406 112.824219 271.820312 112.203125 C 270.183594 108.996094 270.722656 99.605469 272.878906 97.800781 C 276.238281 96.320312 283.027344 96.773438 285.875 95.292969 C 285.980469 93.488281 286.085938 91.683594 286.152344 89.898438 C 283.886719 88.011719 281.578125 86.167969 279.296875 84.269531 C 285.78125 83.957031 299.28125 74.3125 302.488281 70.445312 C 301.589844 66.882812 300.769531 66.414062 301.523438 63.929688 C 302.527344 63.664062 303.523438 63.433594 304.488281 63.167969 C 304.230469 67.523438 303.695312 67.605469 305.46875 70.308594 C 305.871094 70.480469 306.300781 70.652344 306.71875 70.816406 C 312.230469 69.9375 317.789062 69.050781 323.316406 68.144531 C 324.328125 63.253906 325.570312 62.996094 328.523438 62.558594 C 325.113281 58.753906 321.503906 55.089844 317.828125 51.574219 C 316.472656 52.644531 315.398438 53.773438 315.523438 56.597656 C 318.066406 57.226562 317.414062 56.808594 318.621094 58.824219 C 315.773438 59.949219 315.613281 60.128906 315.839844 62.558594 C 314.625 65.648438 313.816406 66.730469 309.507812 67.089844 C 307.5625 64.808594 305.652344 62.515625 303.75 60.214844 C 301.765625 61.867188 301.753906 62.671875 298.527344 63.503906 C 297.296875 62.753906 296.046875 62.042969 294.839844 61.296875 C 294.621094 57.972656 294.667969 58.949219 293.9375 55.976562 C 300.324219 51.117188 304.917969 47.078125 309.546875 44.128906 C 276.925781 16.625 234.777344 0 188.769531 0 C 137.128906 0 90.382812 20.902344 56.484375 54.691406 C 56.523438 54.691406 66.351562 55.535156 70.722656 56.007812 C 74.953125 56.472656 78.316406 53.121094 81.886719 52.425781 C 86.613281 51.46875 91.292969 52.53125 95.042969 52.292969 C 103.402344 51.816406 131.425781 58.097656 138.628906 50.550781 C 137.808594 50.210938 137.011719 49.863281 136.164062 49.484375 C 138.511719 48.347656 140.84375 47.25 143.171875 46.113281 C 143.628906 46.492188 144.011719 46.878906 144.441406 47.25 C 143.867188 49.140625 143.679688 49.074219 144.011719 50.859375 C 148.230469 50.871094 146.238281 51.289062 148.335938 52.425781 C 150.964844 50.027344 152.894531 49.253906 157.152344 49.550781 C 157.179688 50.363281 157.203125 51.136719 157.246094 51.945312 C 156.683594 52.578125 156.121094 53.207031 155.585938 53.839844 C 143.199219 55.777344 126.929688 61.398438 122.367188 70.59375 C 122.367188 70.78125 122.382812 70.96875 122.382812 71.171875 C 127.265625 72.78125 131.773438 76.066406 137.679688 77.546875 C 137.25 81.808594 137.808594 84.136719 140.566406 86.351562 C 144.242188 83.785156 143.449219 82.046875 144.28125 77.796875 C 148.203125 76.9375 149.675781 75.457031 151.8125 73.167969 C 150.363281 68.601562 153.945312 64.515625 155.957031 60.988281 C 161.488281 62.277344 164.695312 61.238281 168.171875 65.113281 C 167.21875 67.4375 167.113281 67.066406 167.179688 69.367188 C 167.597656 69.535156 168.011719 69.707031 168.398438 69.910156 C 170.882812 68.171875 173.40625 66.425781 175.898438 64.722656 C 178.371094 71.960938 181.226562 74.617188 185.667969 79.132812 C 180.519531 88.234375 165.421875 84.445312 158.183594 91.402344 C 158.183594 91.59375 158.210938 91.804688 158.242188 91.996094 C 161.542969 91.035156 163.484375 89.636719 167.113281 90.316406 C 165.59375 92.921875 165.269531 94.023438 166.871094 96.933594 C 168.09375 97.441406 169.328125 97.964844 170.53125 98.519531 C 170.386719 98.9375 170.167969 99.3125 170.011719 99.730469 C 166.414062 101.011719 163.742188 103.351562 160.617188 103.238281 C 161.382812 102.183594 162.105469 101.152344 162.84375 100.125 C 162.640625 99.929688 162.429688 99.757812 162.210938 99.550781 C 158.050781 101.5625 153.234375 103.304688 150.640625 106.777344 C 150.886719 107.535156 151.125 108.34375 151.339844 109.125 C 144.363281 110.367188 140.085938 114.894531 138.214844 120.613281 C 137.574219 119.832031 136.953125 119.066406 136.308594 118.296875 C 136.898438 123.8125 137.039062 124.648438 135.007812 127.964844 C 129.34375 130.546875 125.34375 135.378906 121.277344 139.464844 C 122.070312 146.285156 125.574219 156.71875 119.066406 153.960938 C 118.179688 149.71875 118.398438 146.707031 117.867188 143.238281 C 113.75 142.214844 108.796875 141.75 104.707031 142.761719 C 103.898438 144.84375 104.488281 144.691406 102.464844 145.871094 C 84.652344 139.121094 82.5625 165.226562 86.746094 176.648438 C 93.804688 178.710938 96.34375 175.007812 98.871094 168.199219 C 101.253906 168.078125 103.65625 167.941406 106.035156 167.808594 C 106.0625 168.429688 106.101562 169.003906 106.128906 169.621094 C 104.210938 173.992188 99.683594 181.492188 102.769531 184.75 C 105.683594 183.667969 109.4375 183.847656 111.753906 184.871094 C 111.992188 185.457031 112.207031 186.039062 112.445312 186.628906 C 110.769531 192.308594 110.273438 200.4375 115.144531 203.242188 C 116.824219 203.882812 126.421875 204.296875 127.75 203.742188 C 128.496094 198.070312 133.480469 194.585938 138.539062 193 C 137.546875 196.648438 135.667969 199.289062 138.417969 201.976562 C 138.605469 201.964844 138.820312 201.964844 139.007812 201.9375 C 138.292969 197.9375 139.679688 197.457031 140.984375 194.074219 C 148.058594 195.578125 148.84375 197.800781 157.246094 196.171875 C 161.324219 207.292969 173.382812 208.355469 181.539062 213.421875 C 183.296875 216.730469 185.082031 220.035156 186.839844 223.324219 C 186.125 224.957031 185.417969 226.589844 184.703125 228.226562 C 186.476562 227.730469 188.222656 227.238281 190.03125 226.738281 C 192.21875 232.152344 210.503906 239.140625 218.960938 241.355469 C 222.074219 253.835938 214.417969 257.398438 212.5 266.230469 C 213.046875 269 213.585938 271.761719 214.152344 274.53125 C 214.167969 282.15625 212.605469 288.640625 209.253906 294.535156 C 196.425781 295.757812 199.445312 309.183594 196.773438 319.152344 C 194.929688 322.019531 193.105469 324.917969 191.269531 327.8125 C 188.652344 327.558594 186.03125 327.316406 183.441406 327.03125 C 185.953125 329.683594 188.035156 330.792969 189.257812 335.097656 C 188.71875 335.9375 188.15625 336.777344 187.605469 337.59375 C 185.054688 338.347656 182.488281 339.054688 179.925781 339.804688 C 179.632812 341.8125 179.363281 343.828125 179.074219 345.8125 C 177.671875 345.910156 176.289062 345.96875 174.894531 346.054688 C 176.34375 348.308594 178.199219 349.890625 177.628906 352.496094 C 176.601562 359.792969 173.726562 356.757812 178.789062 362.601562 C 177.539062 365.988281 175.675781 367.679688 175.621094 370.5625 C 176.078125 371.722656 176.546875 372.898438 177.003906 374.082031 C 177.328125 374.222656 177.65625 374.355469 177.980469 374.519531 C 181.578125 374.703125 185.160156 374.832031 188.769531 374.832031 C 248.117188 374.832031 300.960938 347.230469 335.3125 304.214844 C 331.585938 293.972656 326.832031 283.640625 324.253906 273.976562 C 322.039062 265.917969 326.886719 259.945312 328.003906 255.222656 C 330.632812 243.914062 319.355469 227.652344 314.300781 223.039062 C 317.207031 218.3125 317.0625 212.164062 314.625 206.851562 C 307.453125 207.492188 307.1875 205.707031 304.203125 202.042969 C 298.058594 202.539062 297.238281 205.898438 293.054688 206.835938 C 287.976562 207.964844 284.144531 206.160156 279.429688 208.765625 C 273.382812 206.636719 269.363281 202.46875 264.921875 195.183594 C 262.023438 190.410156 257.554688 186.609375 255.730469 180.097656 C 256.566406 177.269531 257.417969 174.417969 258.277344 171.605469 C 259.222656 166.746094 256.199219 162.199219 255.796875 159.15625 C 257.894531 153.648438 259.996094 148.152344 262.089844 142.644531 C 262.765625 141.84375 267.433594 138.882812 269.5 135.683594 C 271.390625 132.75 269.671875 131.425781 270.855469 127.816406 C 273.488281 124.292969 276.09375 120.761719 278.675781 117.21875 C 287.925781 117.789062 302.433594 107.867188 311.34375 112.472656 C 311.980469 116.394531 311.578125 119.871094 312.449219 121.980469 C 320.765625 122.738281 324.578125 126.554688 331.9375 128.121094 C 332.296875 127.703125 332.683594 127.292969 333.074219 126.878906 C 332.980469 125.273438 332.875 123.679688 332.808594 122.09375 C 343.582031 122.15625 351.4375 126.898438 361.648438 124.128906 Z M 119.53125 50.976562 C 115.144531 51.625 110.808594 52.253906 106.425781 52.875 C 106.410156 52.675781 106.410156 52.492188 106.378906 52.292969 C 106.757812 51.667969 107.144531 51.058594 107.523438 50.421875 C 107.277344 50.054688 107.066406 49.648438 106.839844 49.273438 C 107.25 49.253906 107.628906 49.226562 108.042969 49.207031 C 112.460938 45.570312 120.980469 48.070312 125.785156 45.269531 C 126.851562 46.808594 127.976562 48.339844 129.011719 49.875 C 125.898438 51.136719 123.183594 52.929688 119.53125 50.976562 Z M 113.054688 42.351562 C 114.410156 41.671875 115.765625 41.003906 117.148438 40.328125 C 120.730469 41.109375 128.054688 41.175781 130.421875 42.609375 C 130.445312 42.800781 130.472656 43.019531 130.472656 43.226562 C 122.621094 44.664062 117.148438 45.070312 113.054688 42.351562 Z M 126.539062 170.902344 C 125.65625 165.984375 117.992188 163.164062 112.488281 165.074219 C 113.042969 164.054688 113.578125 163.023438 114.125 162.003906 C 114.878906 161.765625 115.679688 161.503906 116.484375 161.265625 C 122.984375 161.628906 128.886719 165.8125 133.640625 168.726562 C 133.050781 169.15625 132.484375 169.574219 131.882812 170.011719 C 130.136719 170.308594 128.351562 170.613281 126.539062 170.902344 Z M 145.921875 174.644531 C 142.238281 174.242188 138.199219 176.621094 133.355469 174.730469 C 133.328125 174.503906 133.328125 174.3125 133.328125 174.148438 C 134.300781 173.882812 135.292969 173.621094 136.269531 173.382812 C 136.21875 172.179688 136.136719 170.996094 136.085938 169.800781 C 141.597656 169.496094 143.171875 170.921875 146.429688 172.839844 C 146.238281 173.441406 146.082031 174.035156 145.921875 174.644531 Z M 174.175781 32.484375 C 181.003906 30.585938 189.105469 32.828125 193.792969 30.234375 C 195.015625 30.375 196.207031 30.5 197.402344 30.625 C 197.613281 31.023438 197.859375 31.410156 198.058594 31.796875 C 197.660156 31.820312 197.269531 31.84375 196.878906 31.84375 C 192.328125 35.609375 161.074219 40.046875 158.953125 38.675781 C 158.925781 38.492188 158.925781 38.285156 158.925781 38.082031 C 164.734375 36.675781 169.445312 33.804688 174.175781 32.484375 Z M 168.640625 41.148438 C 168.277344 41.566406 167.886719 41.980469 167.523438 42.417969 C 163.339844 41.398438 153.515625 45.5 150.640625 40.328125 C 156.09375 40.308594 165.527344 39.675781 168.640625 41.148438 Z M 186.574219 51.554688 C 181.863281 55.117188 180.546875 53.246094 175.945312 54.535156 C 178.0625 57.296875 177.796875 57.800781 174.332031 57.617188 C 174.332031 57.800781 174.332031 58.011719 174.347656 58.21875 C 174.816406 58.988281 175.230469 59.75 175.675781 60.53125 C 174.476562 60.597656 173.269531 60.671875 172.078125 60.734375 C 168.292969 59.949219 159.222656 60.089844 157.515625 56.710938 C 157.90625 56.710938 158.324219 56.652344 158.726562 56.652344 C 163.289062 54.464844 166.738281 53.601562 170.398438 51.25 C 169.757812 50.460938 169.097656 49.703125 168.46875 48.949219 C 163.648438 47.859375 154.199219 47.640625 149.3125 48.789062 C 149.273438 47.992188 149.21875 47.183594 149.179688 46.398438 C 149.742188 45.777344 150.324219 45.136719 150.886719 44.507812 C 151.863281 44.242188 152.828125 44.003906 153.828125 43.746094 C 154.441406 43.734375 155.03125 43.707031 155.636719 43.667969 C 155.679688 44.664062 155.730469 45.636719 155.757812 46.628906 C 165.5 39.183594 180.078125 45.375 187.75 51.519531 C 187.375 51.519531 186.957031 51.535156 186.574219 51.554688 Z M 215 57.210938 C 214.625 60.089844 214.390625 62.449219 211.199219 64.609375 C 208.421875 63.148438 207.578125 62.84375 204.515625 62.558594 C 202.953125 59.261719 201.375 55.957031 199.777344 52.644531 C 201.832031 50.667969 201.777344 50.382812 205.492188 47.554688 C 203.644531 46.230469 204.332031 46.851562 201.296875 47.183594 C 201.648438 46.574219 202.015625 45.941406 202.378906 45.332031 C 203.828125 44.535156 203.003906 45.675781 203.523438 44.066406 C 201.519531 43.066406 202.546875 42.570312 202.070312 39.355469 C 197.441406 39.074219 194.730469 38.050781 189.496094 39.4375 C 189.484375 39.246094 189.484375 39.046875 189.472656 38.828125 C 189.640625 38.246094 189.820312 37.632812 189.980469 37.03125 C 195.121094 34.644531 212.785156 34.433594 219 31.265625 C 232.402344 30.519531 248.546875 31.457031 259.003906 29.714844 C 258.871094 31.101562 258.792969 32.523438 258.640625 33.910156 C 253.570312 35.855469 254.746094 37.613281 248.117188 38.675781 C 247.933594 38.894531 247.746094 39.09375 247.542969 39.304688 C 248.910156 40.390625 249.558594 40.574219 251.824219 40.878906 C 251.621094 41.261719 251.460938 41.671875 251.289062 42.09375 C 242.777344 43.535156 217.089844 54.863281 215 57.210938 Z M 260.800781 51.746094 C 257.246094 52.75 253.714844 53.734375 250.171875 54.734375 C 247.878906 53.792969 246.980469 53.734375 245.796875 51.363281 C 246.1875 51.136719 246.589844 50.914062 246.980469 50.714844 C 250.363281 50.3125 253.808594 51.058594 257.636719 48.949219 C 260.375 49.320312 259.71875 49.386719 261.324219 50.523438 C 261.140625 50.9375 260.996094 51.363281 260.800781 51.746094 Z M 278.734375 62.753906 C 279.523438 62.710938 280.316406 62.671875 281.121094 62.632812 C 282.277344 67.28125 286.515625 70.328125 290.222656 75.917969 C 288.46875 77.414062 288.769531 76.128906 289.160156 78.34375 C 285.40625 79.160156 281.632812 79.964844 277.917969 80.765625 C 278.292969 80.136719 278.664062 79.523438 279 78.898438 C 279.609375 78.683594 280.183594 78.4375 280.757812 78.199219 C 279.296875 76.238281 279.582031 76.375 278.734375 74.136719 C 279.925781 73.679688 281.09375 73.222656 282.238281 72.726562 C 279.769531 69.890625 278.167969 70.75 277.671875 65.210938 C 278.046875 64.398438 278.386719 63.585938 278.734375 62.753906 Z M 269.96875 77.59375 C 269.957031 77.394531 269.929688 77.195312 269.929688 77.011719 C 270.789062 74.75 270.640625 74.769531 270.246094 71.589844 C 273.125 70.929688 272.953125 70.78125 274.28125 69 C 276.371094 69.707031 276.160156 69.699219 277.421875 71.214844 C 276.839844 73.460938 276.839844 74.769531 275.273438 76.105469 C 273.515625 76.605469 271.730469 77.082031 269.96875 77.59375 Z M 317.242188 110.960938 C 315.980469 110.152344 315.640625 109.980469 314.730469 108.699219 C 316.726562 108.785156 318.714844 108.890625 320.75 108.96875 C 320.75 109.167969 320.75 109.359375 320.765625 109.558594 C 319.457031 110.453125 319.613281 110.492188 317.242188 110.960938 Z M 369.847656 139.027344 C 367.847656 136.074219 365.820312 133.574219 363.851562 131.789062 C 363.644531 131.789062 363.460938 131.808594 363.253906 131.808594 C 363.316406 132.617188 363.339844 133.402344 363.394531 134.203125 C 361.902344 132.6875 360.441406 131.183594 358.964844 129.667969 C 360.1875 134.71875 366.839844 146.589844 373.84375 157.875 C 372.839844 151.476562 371.511719 145.195312 369.847656 139.027344 Z M 369.847656 139.027344 "/>
</g>
</svg>
