<?xml version="1.0" encoding="UTF-8"?>
<svg xmlns="http://www.w3.org/2000/svg" xmlns:xlink="http://www.w3.org/1999/xlink" width="375pt" height="374.999991pt" viewBox="0 0 375 374.999991" version="1.2">
<defs>
<clipPath id="clip1">
  <path d="M 36 67 L 339 67 L 339 354.375 L 36 354.375 Z M 36 67 "/>
</clipPath>
</defs>
<g id="surface1">
<path style=" stroke:none;fill-rule:nonzero;fill:rgb(19.999695%,19.999695%,19.999695%);fill-opacity:1;" d="M 371.210938 175.402344 L 302.363281 116.609375 C 302.441406 116.207031 302.523438 115.804688 302.605469 115.320312 L 302.605469 38.429688 C 302.523438 33.847656 298.90625 30.148438 294.320312 29.984375 L 255.875 29.984375 C 251.453125 29.984375 247.832031 33.929688 247.832031 38.429688 L 247.832031 70.28125 L 192.742188 23.308594 C 189.761719 20.738281 185.339844 20.738281 182.28125 23.308594 L 3.8125 175.320312 C 0.355469 178.136719 -0.0507812 183.203125 2.765625 186.660156 C 5.582031 190.121094 10.648438 190.523438 14.109375 187.707031 L 14.269531 187.542969 L 187.507812 40.039062 L 249.523438 92.878906 L 286.601562 124.410156 L 360.835938 187.628906 C 364.214844 190.523438 369.28125 190.121094 372.179688 186.742188 C 374.988281 183.363281 374.589844 178.296875 371.210938 175.402344 Z M 286.4375 103.015625 L 263.917969 84.035156 L 263.917969 46.152344 L 286.4375 46.152344 Z M 286.4375 103.015625 "/>
<g clip-path="url(#clip1)" clip-rule="nonzero">
<path style=" stroke:none;fill-rule:nonzero;fill:rgb(19.999695%,19.999695%,19.999695%);fill-opacity:1;" d="M 335.742188 191.648438 L 313.140625 172.347656 L 192.742188 69.476562 C 189.761719 66.902344 185.339844 66.902344 182.28125 69.476562 L 61.882812 172.347656 L 39.28125 191.648438 C 35.902344 194.542969 35.5 199.609375 38.398438 202.992188 C 41.210938 206.367188 46.195312 206.769531 49.496094 203.953125 L 49.574219 203.875 L 59.628906 195.1875 L 59.628906 345.992188 C 59.710938 350.496094 63.410156 354.195312 67.914062 354.273438 L 307.03125 354.273438 C 311.535156 354.195312 315.234375 350.574219 315.3125 345.992188 L 315.3125 195.1875 L 325.367188 203.875 C 326.816406 205.078125 328.582031 205.800781 330.515625 205.800781 C 332.847656 205.800781 335.097656 204.757812 336.625 202.992188 C 339.601562 199.53125 339.117188 194.464844 335.742188 191.648438 Z M 219.679688 338.109375 L 155.335938 338.109375 L 155.335938 251.246094 L 219.679688 251.246094 Z M 235.765625 338.109375 L 235.765625 243.445312 C 235.765625 239.023438 232.472656 235.160156 228.046875 235.160156 L 146.976562 235.160156 C 142.550781 235.160156 139.253906 239.023438 139.253906 243.445312 L 139.253906 338.109375 L 75.714844 338.109375 L 75.714844 181.433594 L 187.507812 86.207031 L 299.308594 181.433594 L 299.308594 338.109375 Z M 235.765625 338.109375 "/>
</g>
</g>
</svg>
