<?xml version="1.0" encoding="UTF-8"?>
<svg xmlns="http://www.w3.org/2000/svg" xmlns:xlink="http://www.w3.org/1999/xlink" width="375pt" height="374.999991pt" viewBox="0 0 375 374.999991" version="1.2">
<defs>
<clipPath id="clip1">
  <path d="M 3 76.171875 L 372 76.171875 L 372 298.921875 L 3 298.921875 Z M 3 76.171875 "/>
</clipPath>
<clipPath id="clip2">
  <path d="M 158 151 L 220 151 L 220 208.472656 L 158 208.472656 Z M 158 151 "/>
</clipPath>
<clipPath id="clip3">
  <path d="M 189 132.722656 L 205 132.722656 L 205 150 L 189 150 Z M 189 132.722656 "/>
</clipPath>
</defs>
<g id="surface1">
<g clip-path="url(#clip1)" clip-rule="nonzero">
<path style=" stroke:none;fill-rule:nonzero;fill:rgb(0%,0%,0%);fill-opacity:1;" d="M 221.359375 280.636719 L 221.359375 286.378906 L 152.496094 286.378906 L 152.496094 280.636719 L 3.292969 280.636719 L 3.292969 282.933594 C 3.292969 286.378906 4.441406 290.976562 7.882812 294.421875 C 11.324219 297.867188 14.769531 299.015625 19.359375 299.015625 L 355.640625 299.015625 C 359.082031 299.015625 363.675781 297.867188 367.117188 294.421875 C 370.558594 290.976562 371.707031 287.527344 371.707031 282.933594 L 371.707031 280.636719 Z M 53.792969 290.976562 L 37.722656 290.976562 L 37.722656 288.675781 L 53.792969 288.675781 Z M 46.90625 274.894531 L 326.945312 274.894531 C 329.242188 274.894531 331.539062 273.746094 333.832031 271.449219 C 336.128906 269.148438 337.277344 266.851562 337.277344 264.554688 L 337.277344 86.511719 C 337.277344 84.210938 336.128906 81.914062 333.832031 79.617188 C 331.539062 77.320312 329.242188 76.171875 326.945312 76.171875 L 46.90625 76.171875 C 44.609375 76.171875 42.3125 77.320312 40.019531 79.617188 C 37.722656 80.765625 37.722656 83.0625 37.722656 86.511719 L 37.722656 265.703125 C 37.722656 268 38.871094 270.296875 41.167969 272.597656 C 42.3125 273.746094 44.609375 274.894531 46.90625 274.894531 Z M 186.925781 80.765625 C 189.222656 80.765625 190.371094 81.914062 190.371094 84.210938 C 190.371094 86.511719 189.222656 87.660156 186.925781 87.660156 C 184.628906 87.660156 183.484375 86.511719 183.484375 84.210938 C 183.484375 81.914062 184.628906 80.765625 186.925781 80.765625 Z M 52.644531 92.253906 L 321.207031 92.253906 L 321.207031 259.960938 L 52.644531 259.960938 Z M 52.644531 92.253906 "/>
</g>
<g clip-path="url(#clip2)" clip-rule="nonzero">
<path style=" stroke:none;fill-rule:nonzero;fill:rgb(0%,0%,0%);fill-opacity:1;" d="M 161.890625 160.746094 C 155.234375 172.296875 160.1875 189.46875 166.667969 198.78125 C 169.832031 203.363281 173.609375 208.515625 178.574219 208.324219 C 183.539062 208.136719 185.160156 205.238281 190.9375 205.238281 C 196.714844 205.238281 198.339844 208.339844 203.371094 208.230469 C 208.40625 208.125 211.773438 203.566406 214.925781 198.972656 C 216.773438 196.242188 218.28125 193.339844 219.445312 190.265625 C 219.542969 190.003906 219.597656 189.730469 219.601562 189.453125 C 219.605469 189.171875 219.558594 188.902344 219.464844 188.636719 C 219.375 188.375 219.238281 188.132812 219.058594 187.917969 C 218.882812 187.699219 218.671875 187.523438 218.429688 187.378906 C 217.148438 186.660156 215.984375 185.789062 214.9375 184.757812 C 213.890625 183.730469 212.996094 182.582031 212.257812 181.316406 C 211.519531 180.050781 210.960938 178.707031 210.582031 177.292969 C 210.203125 175.875 210.019531 174.4375 210.027344 172.972656 C 210.023438 171.726562 210.160156 170.496094 210.433594 169.28125 C 210.707031 168.070312 211.113281 166.898438 211.652344 165.777344 C 212.1875 164.652344 212.84375 163.601562 213.617188 162.625 C 214.390625 161.648438 215.265625 160.773438 216.238281 159.992188 C 216.496094 159.777344 216.699219 159.523438 216.851562 159.230469 C 217.003906 158.933594 217.089844 158.621094 217.113281 158.289062 C 217.136719 157.957031 217.089844 157.632812 216.976562 157.320312 C 216.867188 157.007812 216.695312 156.730469 216.46875 156.488281 C 214.875 154.847656 213.03125 153.566406 210.941406 152.632812 C 208.851562 151.703125 206.660156 151.1875 204.375 151.09375 C 198.5 150.5 192.902344 154.546875 189.925781 154.546875 C 186.949219 154.546875 182.347656 151.175781 177.464844 151.257812 C 175.863281 151.304688 174.296875 151.558594 172.765625 152.015625 C 171.230469 152.472656 169.78125 153.113281 168.417969 153.945312 C 167.050781 154.777344 165.816406 155.769531 164.710938 156.921875 C 163.605469 158.074219 162.664062 159.351562 161.890625 160.746094 Z M 161.890625 160.746094 "/>
</g>
<g clip-path="url(#clip3)" clip-rule="nonzero">
<path style=" stroke:none;fill-rule:nonzero;fill:rgb(0%,0%,0%);fill-opacity:1;" d="M 192.074219 149.640625 C 193.742188 149.28125 195.304688 148.65625 196.761719 147.765625 C 198.214844 146.875 199.480469 145.769531 200.558594 144.449219 C 202.742188 141.832031 204.050781 138.835938 204.480469 135.460938 C 204.5 135.261719 204.492188 135.066406 204.460938 134.867188 C 204.429688 134.671875 204.375 134.480469 204.296875 134.300781 C 204.21875 134.117188 204.117188 133.945312 203.996094 133.789062 C 203.875 133.628906 203.738281 133.488281 203.582031 133.367188 C 203.425781 133.242188 203.253906 133.140625 203.074219 133.058594 C 202.890625 132.976562 202.703125 132.917969 202.503906 132.882812 C 202.308594 132.847656 202.113281 132.835938 201.914062 132.851562 C 201.714844 132.867188 201.519531 132.902344 201.328125 132.964844 C 198.195312 133.945312 195.539062 135.664062 193.359375 138.113281 C 192.253906 139.382812 191.355469 140.78125 190.664062 142.3125 C 189.976562 143.84375 189.519531 145.441406 189.300781 147.105469 C 189.285156 147.285156 189.289062 147.464844 189.316406 147.644531 C 189.339844 147.824219 189.386719 148 189.453125 148.167969 C 189.519531 148.335938 189.601562 148.496094 189.703125 148.648438 C 189.808594 148.796875 189.925781 148.933594 190.058594 149.054688 C 190.195312 149.179688 190.339844 149.285156 190.5 149.371094 C 190.65625 149.460938 190.824219 149.53125 191 149.582031 C 191.171875 149.632812 191.351562 149.664062 191.535156 149.671875 C 191.714844 149.683594 191.894531 149.671875 192.074219 149.640625 Z M 192.074219 149.640625 "/>
</g>
</g>
</svg>
