<?xml version="1.0" encoding="UTF-8"?>
<svg xmlns="http://www.w3.org/2000/svg" xmlns:xlink="http://www.w3.org/1999/xlink" width="375pt" height="374.999991pt" viewBox="0 0 375 374.999991" version="1.2">
<defs>
<clipPath id="clip1">
  <path d="M 70.304688 5.675781 L 301.304688 5.675781 L 301.304688 355 L 70.304688 355 Z M 70.304688 5.675781 "/>
</clipPath>
<clipPath id="clip2">
  <path d="M 163 174 L 207 174 L 207 239 L 163 239 Z M 163 174 "/>
</clipPath>
<clipPath id="clip3">
  <path d="M 166.523438 172.785156 L 209.179688 175.613281 L 204.914062 239.972656 L 162.257812 237.144531 Z M 166.523438 172.785156 "/>
</clipPath>
<clipPath id="clip4">
  <path d="M 166.523438 172.785156 L 209.179688 175.613281 L 204.914062 239.972656 L 162.257812 237.144531 Z M 166.523438 172.785156 "/>
</clipPath>
</defs>
<g id="surface1">
<g clip-path="url(#clip1)" clip-rule="nonzero">
<path style=" stroke:none;fill-rule:evenodd;fill:rgb(6.269836%,5.879211%,5.099487%);fill-opacity:1;" d="M 286.304688 54.789062 C 258.289062 53.070312 227.859375 51.65625 195.019531 50.550781 C 161.742188 49.429688 126.125 48.625 88.175781 48.136719 L 92.636719 30.945312 C 96.796875 30.820312 100.941406 30.710938 105.066406 30.621094 L 105.101562 30.625 L 105.175781 30.621094 L 105.214844 30.617188 C 133.089844 30.015625 160.238281 30.179688 187.640625 31.082031 C 218.804688 32.113281 250.386719 34.113281 283.8125 37.035156 Z M 266.636719 265.972656 L 283.960938 141.742188 L 279.332031 134.289062 L 279.230469 134.222656 C 215.316406 134.460938 152.234375 132.546875 89.988281 128.484375 L 85.046875 134.605469 L 99.878906 261.679688 C 127.132812 268.851562 154.585938 272.8125 182.230469 273.5625 C 210.167969 274.320312 238.308594 271.789062 266.636719 265.972656 Z M 90.359375 124.445312 C 89.144531 112.519531 88 100.984375 87.121094 92.15625 C 86.363281 84.492188 85.808594 78.949219 85.496094 76.046875 C 121.777344 79.238281 156.519531 81.558594 189.714844 83.011719 C 222.820312 84.453125 254.507812 85.039062 284.765625 84.761719 L 278.242188 130.085938 C 214.742188 130.324219 152.109375 128.441406 90.359375 124.445312 Z M 257.804688 272.050781 C 232.824219 276.480469 207.976562 278.363281 183.269531 277.695312 C 157.515625 277 131.898438 273.523438 106.433594 267.273438 C 108.105469 280.476562 109.804688 293.246094 111.542969 305.574219 C 113.257812 317.742188 115.011719 329.4375 116.8125 340.625 C 134.804688 346.605469 154.582031 349.894531 176.121094 350.496094 C 198.082031 351.105469 221.867188 348.925781 247.457031 343.949219 Z M 215.527344 176.824219 C 208.257812 169.65625 198.140625 165.21875 186.910156 165.21875 C 175.527344 165.21875 165.210938 169.777344 157.742188 177.140625 C 150.34375 184.441406 145.769531 194.464844 145.769531 205.492188 C 145.769531 216.15625 150.132812 225.800781 157.191406 232.757812 C 164.457031 239.929688 174.570312 244.359375 185.808594 244.359375 C 197.191406 244.359375 207.507812 239.804688 214.976562 232.441406 C 222.371094 225.140625 226.949219 215.113281 226.949219 204.089844 C 226.949219 193.460938 222.613281 183.847656 215.605469 176.890625 Z M 185.808594 161.097656 C 173.878906 161.097656 163.078125 165.859375 155.269531 173.5625 C 147.390625 181.332031 142.511719 192.125 142.511719 204.089844 C 142.511719 216.414062 147.601562 227.589844 155.824219 235.695312 C 163.835938 243.597656 174.832031 248.484375 186.910156 248.484375 C 198.839844 248.484375 209.640625 243.71875 217.449219 236.019531 C 225.328125 228.25 230.203125 217.457031 230.203125 205.492188 C 230.203125 193.214844 225.15625 182.074219 216.992188 173.980469 L 216.898438 173.882812 C 208.886719 165.984375 197.890625 161.097656 185.808594 161.097656 Z M 103.199219 26.511719 L 107.9375 6.667969 C 108.101562 5.988281 108.613281 5.671875 109.210938 5.789062 L 139.957031 9.328125 C 140.816406 9.429688 141.703125 10.421875 141.933594 11.554688 C 143.117188 17.355469 142.359375 22.945312 142.191406 25.386719 C 141.320312 22.578125 140.328125 18.535156 139.21875 13.257812 L 110.851562 9.992188 L 106.925781 26.429688 C 118.765625 26.195312 130.488281 26.101562 142.160156 26.144531 C 142.160156 25.941406 142.171875 25.6875 142.191406 25.386719 L 142.441406 26.144531 L 143.410156 26.144531 C 157.832031 26.210938 172.1875 26.484375 186.617188 26.960938 C 218.5 28.011719 250.667969 30.058594 284.648438 33.058594 C 285.507812 33.132812 286.414062 34.117188 286.660156 35.257812 L 289.4375 54.984375 C 292.761719 55.195312 296.050781 55.40625 299.308594 55.621094 C 300.164062 55.675781 301.074219 56.648438 301.332031 57.785156 C 301.429688 58.1875 301.429688 58.558594 301.351562 58.867188 L 295.757812 83.714844 C 295.621094 84.324219 295.210938 84.648438 294.703125 84.636719 L 288.246094 84.722656 C 288.246094 84.824219 288.242188 84.921875 288.226562 85.019531 L 281.429688 132.222656 L 286.839844 140.921875 C 287.222656 141.539062 287.378906 142.238281 287.300781 142.804688 L 269.722656 268.867188 C 269.640625 269.453125 269.316406 269.824219 268.882812 269.917969 C 266.378906 270.441406 263.878906 270.933594 261.378906 271.398438 C 261.375 271.492188 261.371094 271.585938 261.355469 271.675781 L 250.535156 346.859375 C 250.453125 347.402344 250.15625 347.808594 249.6875 347.902344 C 223.644531 353.007812 199.46875 355.253906 177.164062 354.632812 C 154.828125 354.011719 134.339844 350.511719 115.695312 344.148438 C 114.871094 343.90625 114.097656 342.917969 113.921875 341.851562 C 112.003906 330.046875 110.152344 317.722656 108.34375 304.898438 C 106.609375 292.597656 104.90625 279.78125 103.21875 266.46875 C 101.722656 266.085938 100.222656 265.695312 98.726562 265.292969 C 97.84375 265.0625 97.03125 263.976562 96.902344 262.871094 L 81.730469 132.972656 C 81.65625 132.371094 81.804688 131.878906 82.09375 131.59375 L 87.300781 125.148438 C 85.808594 110.539062 84.722656 99.566406 83.894531 91.246094 C 83.175781 84 82.644531 78.679688 82.335938 75.765625 L 73.726562 74.984375 C 72.867188 74.910156 71.96875 73.917969 71.726562 72.78125 L 71.667969 72.347656 L 70.507812 49.433594 C 70.460938 48.527344 70.921875 47.941406 71.585938 47.949219 C 75.902344 47.988281 80.183594 48.039062 84.4375 48.089844 L 89.722656 27.703125 C 89.875 27.132812 90.273438 26.828125 90.757812 26.835938 C 94.921875 26.710938 99.070312 26.601562 103.199219 26.511719 Z M 82.472656 71.738281 C 82.691406 71.5625 82.972656 71.488281 83.300781 71.542969 C 83.554688 71.585938 83.808594 71.707031 84.042969 71.878906 C 120.382812 75.082031 155.277344 77.414062 188.710938 78.875 C 225.277344 80.472656 259.980469 81.019531 292.8125 80.523438 L 297.527344 59.566406 L 288.75 59.007812 C 288.675781 59.011719 288.601562 59.007812 288.519531 58.992188 C 260.125 57.234375 229.292969 55.796875 196.046875 54.675781 C 158.570312 53.414062 117.828125 52.550781 73.820312 52.089844 L 74.785156 71.046875 L 82.472656 71.738281 "/>
</g>
<g clip-path="url(#clip2)" clip-rule="nonzero">
<g clip-path="url(#clip3)" clip-rule="nonzero">
<g clip-path="url(#clip4)" clip-rule="nonzero">
<path style=" stroke:none;fill-rule:evenodd;fill:rgb(6.269836%,5.879211%,5.099487%);fill-opacity:1;" d="M 188.644531 232.152344 C 188.503906 234.265625 188.363281 236.421875 188.210938 238.703125 C 184.945312 238.488281 181.898438 238.285156 178.636719 238.070312 C 178.78125 235.878906 178.921875 233.722656 179.074219 231.457031 C 170.171875 228.21875 164.324219 222.675781 163.890625 212.484375 C 167.429688 212.71875 170.707031 212.9375 174.164062 213.164062 C 174.761719 216.398438 175.722656 219.546875 179.496094 221.03125 C 179.746094 217.261719 179.984375 213.667969 180.230469 209.917969 C 172.425781 207.828125 165.417969 204.703125 165.835938 194.828125 C 166.148438 187.402344 171.207031 183.121094 182.292969 180.457031 C 182.425781 178.410156 182.566406 176.316406 182.71875 174.019531 C 185.960938 174.234375 189.054688 174.441406 192.363281 174.660156 C 192.222656 176.78125 192.082031 178.863281 191.9375 181.078125 C 200.75 183.625 206.679688 188.476562 206.679688 198.570312 C 203.125 198.335938 199.910156 198.121094 196.609375 197.902344 C 195.964844 194.953125 194.972656 192.28125 191.472656 191.414062 C 191.242188 194.917969 191.023438 198.214844 190.804688 201.492188 C 203.128906 205.179688 207.011719 209.035156 206.4375 216.9375 C 205.855469 224.960938 199.242188 230.675781 188.644531 232.152344 Z M 190.101562 212.046875 C 189.875 215.453125 189.664062 218.664062 189.449219 221.886719 C 193.753906 221.621094 196.539062 219.65625 196.523438 216.957031 C 196.507812 214.363281 194.175781 212.539062 190.101562 212.046875 Z M 181.734375 190.789062 C 178.054688 191.261719 176.226562 192.941406 176.320312 195.515625 C 176.40625 197.757812 178.027344 199.074219 181.167969 199.316406 C 181.355469 196.539062 181.539062 193.765625 181.734375 190.789062 Z M 181.734375 190.789062 "/>
</g>
</g>
</g>
</g>
</svg>
