<?xml version="1.0" encoding="UTF-8"?>
<svg xmlns="http://www.w3.org/2000/svg" xmlns:xlink="http://www.w3.org/1999/xlink" width="375pt" height="374.999991pt" viewBox="0 0 375 374.999991" version="1.2">
<defs>
<clipPath id="clip1">
  <path d="M 4.6875 5 L 370.6875 5 L 370.6875 370.558594 L 4.6875 370.558594 Z M 4.6875 5 "/>
</clipPath>
<clipPath id="clip2">
  <path d="M 187 4.019531 L 200 4.019531 L 200 36 L 187 36 Z M 187 4.019531 "/>
</clipPath>
</defs>
<g id="surface1">
<g clip-path="url(#clip1)" clip-rule="nonzero">
<path style=" stroke:none;fill-rule:nonzero;fill:rgb(21.569824%,21.179199%,23.139954%);fill-opacity:1;" d="M 371.0625 187.691406 C 371.0625 190.679688 370.988281 193.664062 370.839844 196.648438 C 370.695312 199.632812 370.472656 202.613281 370.179688 205.589844 C 369.886719 208.5625 369.519531 211.527344 369.078125 214.484375 C 368.640625 217.4375 368.125 220.382812 367.542969 223.3125 C 366.957031 226.246094 366.300781 229.160156 365.570312 232.058594 C 364.84375 234.957031 364.042969 237.835938 363.171875 240.695312 C 362.304688 243.554688 361.363281 246.394531 360.351562 249.207031 C 359.34375 252.019531 358.265625 254.808594 357.117188 257.570312 C 355.96875 260.328125 354.753906 263.0625 353.472656 265.761719 C 352.191406 268.464844 350.84375 271.132812 349.429688 273.769531 C 348.019531 276.402344 346.539062 279.003906 345 281.566406 C 343.457031 284.128906 341.855469 286.652344 340.1875 289.136719 C 338.523438 291.625 336.796875 294.066406 335.011719 296.464844 C 333.226562 298.867188 331.382812 301.222656 329.480469 303.53125 C 327.578125 305.839844 325.621094 308.105469 323.605469 310.316406 C 321.59375 312.53125 319.527344 314.695312 317.40625 316.808594 C 315.289062 318.921875 313.117188 320.984375 310.894531 322.988281 C 308.671875 324.996094 306.40625 326.949219 304.085938 328.84375 C 301.769531 330.738281 299.40625 332.578125 297 334.359375 C 294.589844 336.136719 292.140625 337.859375 289.648438 339.519531 C 287.15625 341.179688 284.621094 342.777344 282.050781 344.3125 C 279.480469 345.847656 276.871094 347.320312 274.226562 348.730469 C 271.582031 350.140625 268.90625 351.484375 266.195312 352.761719 C 263.488281 354.039062 260.746094 355.25 257.976562 356.390625 C 255.207031 357.535156 252.410156 358.613281 249.589844 359.617188 C 246.765625 360.625 243.917969 361.5625 241.050781 362.429688 C 238.179688 363.296875 235.292969 364.09375 232.386719 364.820312 C 229.476562 365.546875 226.550781 366.199219 223.613281 366.785156 C 220.671875 367.367188 217.71875 367.878906 214.753906 368.316406 C 211.789062 368.753906 208.8125 369.121094 205.828125 369.414062 C 202.847656 369.707031 199.855469 369.925781 196.863281 370.074219 C 193.867188 370.21875 190.871094 370.292969 187.875 370.292969 C 184.875 370.292969 181.878906 370.21875 178.886719 370.074219 C 175.890625 369.925781 172.902344 369.707031 169.917969 369.414062 C 166.933594 369.121094 163.960938 368.753906 160.996094 368.316406 C 158.027344 367.878906 155.074219 367.367188 152.136719 366.785156 C 149.195312 366.199219 146.269531 365.546875 143.363281 364.820312 C 140.453125 364.09375 137.566406 363.296875 134.699219 362.429688 C 131.828125 361.5625 128.984375 360.625 126.160156 359.617188 C 123.335938 358.613281 120.539062 357.535156 117.769531 356.390625 C 115 355.25 112.261719 354.039062 109.550781 352.761719 C 106.839844 351.484375 104.164062 350.140625 101.519531 348.730469 C 98.875 347.320312 96.269531 345.847656 93.695312 344.3125 C 91.125 342.777344 88.59375 341.179688 86.101562 339.519531 C 83.609375 337.859375 81.15625 336.136719 78.75 334.359375 C 76.339844 332.578125 73.976562 330.738281 71.660156 328.84375 C 69.34375 326.949219 67.074219 324.996094 64.851562 322.988281 C 62.632812 320.984375 60.460938 318.921875 58.339844 316.808594 C 56.222656 314.695312 54.152344 312.53125 52.140625 310.316406 C 50.128906 308.105469 48.167969 305.839844 46.269531 303.53125 C 44.367188 301.222656 42.523438 298.867188 40.734375 296.464844 C 38.949219 294.066406 37.222656 291.625 35.558594 289.136719 C 33.894531 286.652344 32.289062 284.128906 30.75 281.566406 C 29.207031 279.003906 27.730469 276.402344 26.316406 273.769531 C 24.902344 271.132812 23.554688 268.464844 22.273438 265.761719 C 20.992188 263.0625 19.777344 260.328125 18.628906 257.570312 C 17.484375 254.808594 16.40625 252.019531 15.394531 249.207031 C 14.382812 246.394531 13.445312 243.554688 12.574219 240.695312 C 11.703125 237.835938 10.90625 234.957031 10.175781 232.058594 C 9.449219 229.160156 8.789062 226.246094 8.207031 223.3125 C 7.621094 220.382812 7.109375 217.4375 6.667969 214.484375 C 6.230469 211.527344 5.863281 208.5625 5.566406 205.589844 C 5.273438 202.613281 5.054688 199.632812 4.90625 196.648438 C 4.761719 193.664062 4.6875 190.679688 4.6875 187.691406 C 4.6875 184.703125 4.761719 181.714844 4.90625 178.730469 C 5.054688 175.746094 5.273438 172.765625 5.566406 169.792969 C 5.863281 166.816406 6.230469 163.851562 6.667969 160.898438 C 7.109375 157.941406 7.621094 154.996094 8.207031 152.066406 C 8.789062 149.136719 9.449219 146.21875 10.175781 143.320312 C 10.90625 140.421875 11.703125 137.542969 12.574219 134.683594 C 13.445312 131.824219 14.382812 128.988281 15.394531 126.171875 C 16.40625 123.359375 17.484375 120.570312 18.628906 117.8125 C 19.777344 115.050781 20.992188 112.320312 22.273438 109.617188 C 23.554688 106.914062 24.902344 104.246094 26.316406 101.613281 C 27.730469 98.976562 29.207031 96.375 30.75 93.8125 C 32.289062 91.25 33.894531 88.726562 35.558594 86.242188 C 37.222656 83.757812 38.949219 81.3125 40.734375 78.914062 C 42.523438 76.511719 44.367188 74.160156 46.269531 71.847656 C 48.167969 69.539062 50.128906 67.277344 52.140625 65.0625 C 54.152344 62.847656 56.222656 60.683594 58.339844 58.570312 C 60.460938 56.457031 62.632812 54.398438 64.851562 52.390625 C 67.074219 50.382812 69.34375 48.433594 71.660156 46.535156 C 73.976562 44.640625 76.339844 42.800781 78.75 41.023438 C 81.15625 39.242188 83.609375 37.523438 86.101562 35.863281 C 88.59375 34.203125 91.125 32.601562 93.695312 31.066406 C 96.269531 29.53125 98.875 28.058594 101.519531 26.648438 C 104.164062 25.242188 106.839844 23.898438 109.550781 22.621094 C 112.261719 21.339844 115 20.132812 117.769531 18.988281 C 120.539062 17.84375 123.335938 16.769531 126.160156 15.761719 C 128.984375 14.753906 131.828125 13.816406 134.699219 12.949219 C 137.566406 12.082031 140.453125 11.285156 143.363281 10.558594 C 146.269531 9.832031 149.195312 9.179688 152.136719 8.597656 C 155.074219 8.011719 158.027344 7.503906 160.996094 7.0625 C 163.960938 6.625 166.933594 6.261719 169.917969 5.96875 C 172.902344 5.675781 175.890625 5.453125 178.886719 5.308594 C 181.878906 5.160156 184.875 5.085938 187.875 5.085938 C 190.871094 5.085938 193.867188 5.160156 196.863281 5.308594 C 199.855469 5.453125 202.847656 5.675781 205.828125 5.96875 C 208.8125 6.261719 211.789062 6.625 214.753906 7.0625 C 217.71875 7.503906 220.671875 8.011719 223.613281 8.597656 C 226.550781 9.179688 229.476562 9.832031 232.386719 10.558594 C 235.292969 11.285156 238.179688 12.082031 241.050781 12.949219 C 243.917969 13.816406 246.765625 14.753906 249.589844 15.761719 C 252.410156 16.769531 255.207031 17.84375 257.976562 18.988281 C 260.746094 20.132812 263.488281 21.339844 266.195312 22.621094 C 268.90625 23.898438 271.582031 25.242188 274.226562 26.648438 C 276.871094 28.058594 279.480469 29.53125 282.050781 31.066406 C 284.621094 32.601562 287.15625 34.203125 289.648438 35.863281 C 292.140625 37.523438 294.589844 39.242188 297 41.023438 C 299.40625 42.800781 301.769531 44.640625 304.085938 46.535156 C 306.40625 48.433594 308.675781 50.382812 310.894531 52.390625 C 313.117188 54.398438 315.289062 56.457031 317.40625 58.570312 C 319.527344 60.683594 321.59375 62.847656 323.605469 65.0625 C 325.621094 67.277344 327.578125 69.539062 329.480469 71.847656 C 331.382812 74.160156 333.226562 76.511719 335.011719 78.914062 C 336.796875 81.3125 338.523438 83.757812 340.1875 86.242188 C 341.855469 88.726562 343.457031 91.25 345 93.8125 C 346.539062 96.375 348.019531 98.976562 349.429688 101.613281 C 350.84375 104.246094 352.191406 106.914062 353.472656 109.617188 C 354.753906 112.320312 355.96875 115.050781 357.117188 117.8125 C 358.265625 120.570312 359.34375 123.359375 360.351562 126.171875 C 361.363281 128.988281 362.304688 131.824219 363.171875 134.683594 C 364.042969 137.542969 364.84375 140.421875 365.570312 143.320312 C 366.300781 146.21875 366.957031 149.136719 367.542969 152.066406 C 368.125 154.996094 368.640625 157.941406 369.078125 160.898438 C 369.519531 163.851562 369.886719 166.816406 370.179688 169.792969 C 370.472656 172.765625 370.695312 175.746094 370.839844 178.730469 C 370.988281 181.714844 371.0625 184.703125 371.0625 187.691406 Z M 371.0625 187.691406 "/>
</g>
<path style=" stroke:none;fill-rule:nonzero;fill:rgb(94.119263%,93.328857%,88.62915%);fill-opacity:1;" d="M 341.1875 187.691406 C 341.1875 190.191406 341.128906 192.691406 341.003906 195.1875 C 340.882812 197.6875 340.695312 200.179688 340.449219 202.667969 C 340.203125 205.160156 339.898438 207.640625 339.53125 210.113281 C 339.160156 212.589844 338.734375 215.050781 338.242188 217.503906 C 337.753906 219.957031 337.203125 222.398438 336.59375 224.824219 C 335.984375 227.25 335.316406 229.660156 334.585938 232.054688 C 333.859375 234.445312 333.074219 236.820312 332.226562 239.175781 C 331.382812 241.53125 330.480469 243.863281 329.519531 246.171875 C 328.558594 248.484375 327.542969 250.769531 326.46875 253.03125 C 325.398438 255.292969 324.269531 257.527344 323.085938 259.730469 C 321.902344 261.9375 320.667969 264.113281 319.375 266.257812 C 318.085938 268.402344 316.746094 270.515625 315.351562 272.59375 C 313.957031 274.675781 312.511719 276.71875 311.019531 278.726562 C 309.523438 280.738281 307.980469 282.707031 306.386719 284.640625 C 304.796875 286.574219 303.15625 288.46875 301.472656 290.320312 C 299.789062 292.175781 298.058594 293.984375 296.285156 295.753906 C 294.511719 297.523438 292.691406 299.246094 290.835938 300.925781 C 288.976562 302.605469 287.074219 304.238281 285.136719 305.824219 C 283.195312 307.414062 281.21875 308.949219 279.203125 310.441406 C 277.1875 311.929688 275.136719 313.371094 273.050781 314.757812 C 270.964844 316.148438 268.847656 317.488281 266.695312 318.773438 C 264.542969 320.058594 262.359375 321.292969 260.144531 322.46875 C 257.933594 323.648438 255.691406 324.773438 253.425781 325.84375 C 251.15625 326.910156 248.863281 327.925781 246.546875 328.882812 C 244.226562 329.839844 241.886719 330.738281 239.523438 331.582031 C 237.160156 332.425781 234.78125 333.207031 232.378906 333.933594 C 229.976562 334.660156 227.558594 335.328125 225.125 335.933594 C 222.691406 336.542969 220.246094 337.089844 217.785156 337.578125 C 215.324219 338.066406 212.851562 338.496094 210.371094 338.863281 C 207.886719 339.226562 205.398438 339.535156 202.902344 339.78125 C 200.40625 340.023438 197.902344 340.207031 195.398438 340.332031 C 192.890625 340.453125 190.382812 340.515625 187.875 340.515625 C 185.363281 340.515625 182.855469 340.453125 180.351562 340.332031 C 177.84375 340.207031 175.34375 340.023438 172.847656 339.78125 C 170.347656 339.535156 167.859375 339.226562 165.378906 338.863281 C 162.894531 338.496094 160.425781 338.066406 157.964844 337.578125 C 155.503906 337.089844 153.054688 336.542969 150.621094 335.933594 C 148.1875 335.328125 145.769531 334.660156 143.367188 333.933594 C 140.96875 333.207031 138.585938 332.425781 136.222656 331.582031 C 133.859375 330.738281 131.519531 329.839844 129.203125 328.882812 C 126.882812 327.925781 124.589844 326.910156 122.324219 325.84375 C 120.054688 324.773438 117.8125 323.648438 115.601562 322.46875 C 113.390625 321.292969 111.207031 320.058594 109.054688 318.773438 C 106.902344 317.488281 104.78125 316.148438 102.695312 314.757812 C 100.609375 313.371094 98.558594 311.929688 96.542969 310.441406 C 94.527344 308.949219 92.550781 307.414062 90.613281 305.824219 C 88.671875 304.238281 86.773438 302.605469 84.914062 300.925781 C 83.054688 299.246094 81.238281 297.523438 79.464844 295.753906 C 77.6875 293.984375 75.960938 292.175781 74.273438 290.320312 C 72.589844 288.46875 70.953125 286.574219 69.359375 284.640625 C 67.769531 282.707031 66.222656 280.738281 64.730469 278.726562 C 63.234375 276.71875 61.789062 274.675781 60.398438 272.59375 C 59.003906 270.515625 57.660156 268.402344 56.371094 266.257812 C 55.082031 264.113281 53.84375 261.9375 52.660156 259.730469 C 51.480469 257.527344 50.351562 255.292969 49.277344 253.03125 C 48.207031 250.769531 47.1875 248.484375 46.230469 246.171875 C 45.269531 243.863281 44.367188 241.53125 43.519531 239.175781 C 42.675781 236.820312 41.886719 234.445312 41.160156 232.054688 C 40.433594 229.660156 39.761719 227.25 39.152344 224.824219 C 38.542969 222.398438 37.992188 219.957031 37.503906 217.503906 C 37.015625 215.050781 36.585938 212.589844 36.21875 210.113281 C 35.851562 207.640625 35.542969 205.160156 35.296875 202.667969 C 35.050781 200.179688 34.867188 197.6875 34.742188 195.1875 C 34.621094 192.691406 34.558594 190.191406 34.558594 187.691406 C 34.558594 185.1875 34.621094 182.6875 34.742188 180.191406 C 34.867188 177.691406 35.050781 175.199219 35.296875 172.710938 C 35.542969 170.222656 35.851562 167.738281 36.21875 165.265625 C 36.585938 162.792969 37.015625 160.328125 37.503906 157.875 C 37.992188 155.421875 38.542969 152.984375 39.152344 150.554688 C 39.761719 148.128906 40.433594 145.71875 41.160156 143.328125 C 41.886719 140.933594 42.675781 138.558594 43.519531 136.203125 C 44.367188 133.851562 45.269531 131.515625 46.230469 129.207031 C 47.1875 126.894531 48.207031 124.609375 49.277344 122.347656 C 50.351562 120.085938 51.480469 117.855469 52.660156 115.648438 C 53.84375 113.441406 55.082031 111.265625 56.371094 109.121094 C 57.660156 106.976562 59.003906 104.863281 60.398438 102.785156 C 61.789062 100.707031 63.234375 98.660156 64.730469 96.652344 C 66.222656 94.644531 67.769531 92.671875 69.359375 90.738281 C 70.953125 88.804688 72.589844 86.910156 74.273438 85.058594 C 75.960938 83.207031 77.6875 81.394531 79.464844 79.625 C 81.238281 77.859375 83.054688 76.132812 84.914062 74.453125 C 86.773438 72.773438 88.671875 71.140625 90.613281 69.554688 C 92.550781 67.96875 94.527344 66.429688 96.542969 64.9375 C 98.558594 63.449219 100.609375 62.011719 102.695312 60.621094 C 104.78125 59.230469 106.902344 57.894531 109.054688 56.605469 C 111.207031 55.320312 113.390625 54.089844 115.601562 52.910156 C 117.8125 51.730469 120.054688 50.605469 122.324219 49.539062 C 124.589844 48.46875 126.882812 47.453125 129.203125 46.496094 C 131.519531 45.539062 133.859375 44.640625 136.222656 43.796875 C 138.585938 42.957031 140.96875 42.171875 143.367188 41.445312 C 145.769531 40.71875 148.1875 40.050781 150.621094 39.445312 C 153.054688 38.835938 155.503906 38.289062 157.964844 37.800781 C 160.425781 37.3125 162.894531 36.886719 165.378906 36.519531 C 167.859375 36.152344 170.347656 35.84375 172.847656 35.601562 C 175.34375 35.355469 177.84375 35.171875 180.351562 35.046875 C 182.855469 34.925781 185.363281 34.863281 187.875 34.863281 C 190.382812 34.863281 192.890625 34.925781 195.398438 35.046875 C 197.902344 35.171875 200.40625 35.355469 202.902344 35.601562 C 205.398438 35.84375 207.886719 36.152344 210.371094 36.519531 C 212.851562 36.886719 215.324219 37.3125 217.785156 37.800781 C 220.246094 38.289062 222.691406 38.835938 225.125 39.445312 C 227.558594 40.050781 229.976562 40.71875 232.378906 41.445312 C 234.78125 42.171875 237.160156 42.957031 239.523438 43.796875 C 241.886719 44.640625 244.226562 45.539062 246.546875 46.496094 C 248.863281 47.453125 251.15625 48.46875 253.425781 49.539062 C 255.691406 50.605469 257.933594 51.730469 260.144531 52.910156 C 262.359375 54.089844 264.542969 55.320312 266.695312 56.605469 C 268.847656 57.894531 270.964844 59.230469 273.050781 60.621094 C 275.136719 62.011719 277.1875 63.449219 279.203125 64.9375 C 281.21875 66.429688 283.195312 67.96875 285.136719 69.554688 C 287.074219 71.140625 288.976562 72.773438 290.835938 74.453125 C 292.691406 76.132812 294.511719 77.859375 296.285156 79.625 C 298.058594 81.394531 299.789062 83.207031 301.472656 85.058594 C 303.15625 86.910156 304.796875 88.804688 306.386719 90.738281 C 307.980469 92.671875 309.523438 94.644531 311.019531 96.652344 C 312.511719 98.660156 313.957031 100.707031 315.351562 102.785156 C 316.746094 104.863281 318.085938 106.976562 319.375 109.121094 C 320.667969 111.265625 321.902344 113.441406 323.085938 115.648438 C 324.269531 117.855469 325.398438 120.085938 326.46875 122.347656 C 327.542969 124.609375 328.558594 126.894531 329.519531 129.207031 C 330.480469 131.515625 331.382812 133.851562 332.226562 136.203125 C 333.074219 138.558594 333.859375 140.933594 334.585938 143.328125 C 335.316406 145.71875 335.984375 148.128906 336.59375 150.554688 C 337.203125 152.984375 337.753906 155.421875 338.242188 157.875 C 338.734375 160.328125 339.160156 162.792969 339.53125 165.265625 C 339.898438 167.738281 340.203125 170.222656 340.449219 172.710938 C 340.695312 175.199219 340.882812 177.691406 341.003906 180.191406 C 341.128906 182.6875 341.1875 185.1875 341.1875 187.691406 Z M 341.1875 187.691406 "/>
<g clip-path="url(#clip2)" clip-rule="nonzero">
<path style=" stroke:none;fill-rule:nonzero;fill:#ca8153;fill-opacity:1;" d="M 187.875 31.070312 C 187.875 25.15625 187.875 15.230469 187.875 9.246094 C 187.875 6.472656 190.144531 4.285156 192.925781 4.359375 C 193.4375 4.359375 193.878906 4.359375 194.390625 4.429688 C 197.171875 4.503906 199.296875 6.839844 199.074219 9.613281 L 197.757812 31.433594 C 197.613281 34.0625 195.34375 36.105469 192.707031 35.960938 C 192.707031 35.960938 192.632812 35.960938 192.632812 35.960938 C 189.996094 35.886719 187.875 33.695312 187.875 31.070312 Z M 187.875 31.070312 "/>
</g>
<path style=" stroke:none;fill-rule:nonzero;fill:rgb(21.569824%,21.179199%,23.139954%);fill-opacity:1;" d="M 138.378906 157.257812 L 138.378906 147.257812 C 144.894531 145.945312 148.847656 142.660156 151.558594 139.742188 C 153.023438 137.988281 154.195312 136.089844 155.074219 134.265625 L 164.519531 134.265625 L 164.519531 240.53125 L 148.847656 240.53125 L 148.847656 157.257812 Z M 138.378906 157.257812 "/>
<path style=" stroke:none;fill-rule:nonzero;fill:rgb(21.569824%,21.179199%,23.139954%);fill-opacity:1;" d="M 196.660156 176.160156 C 196.511719 180.902344 194.757812 184.261719 191.902344 186.742188 C 190.4375 188.054688 188.238281 188.640625 185.53125 188.640625 C 179.746094 188.640625 177.109375 185.71875 175.5 182.433594 C 174.621094 180.683594 174.183594 178.714844 174.183594 176.230469 L 174.183594 145.433594 C 174.183594 140.835938 175.941406 137.625 178.941406 134.996094 C 180.40625 133.683594 182.601562 133.097656 185.457031 133.097656 C 191.09375 133.097656 193.585938 136.308594 195.195312 139.300781 C 196.074219 141.054688 196.511719 143.023438 196.660156 145.359375 Z M 181.429688 240.53125 L 220.601562 134.265625 L 229.898438 134.265625 L 191.167969 240.53125 Z M 187.945312 145.359375 C 187.945312 144.046875 187.507812 142.878906 186.921875 142.003906 C 186.628906 141.566406 186.191406 141.417969 185.457031 141.417969 C 183.847656 141.417969 183.40625 142.441406 182.96875 143.460938 C 182.820312 144.046875 182.675781 144.628906 182.820312 145.359375 L 182.820312 176.160156 C 182.675781 177.765625 182.96875 180.027344 185.457031 180.027344 C 187.652344 180.027344 187.945312 177.691406 187.945312 176.160156 Z M 237.441406 229.363281 C 237.296875 234.105469 235.539062 237.316406 232.683594 239.800781 C 231.21875 241.113281 229.023438 241.695312 226.3125 241.695312 C 220.527344 241.695312 217.894531 238.632812 216.28125 235.640625 C 215.402344 233.886719 214.964844 231.84375 214.964844 229.4375 L 214.964844 198.5625 C 214.964844 193.964844 216.722656 190.609375 219.722656 187.980469 C 221.1875 186.667969 223.382812 186.085938 226.238281 186.085938 C 231.878906 186.085938 234.367188 189.296875 235.976562 192.289062 C 236.855469 194.183594 237.296875 196.15625 237.441406 198.492188 Z M 228.730469 198.5625 C 228.730469 197.25 228.289062 196.082031 227.703125 195.207031 C 227.410156 194.769531 226.972656 194.625 226.238281 194.625 C 224.628906 194.625 224.1875 195.644531 223.75 196.667969 C 223.605469 197.25 223.457031 197.835938 223.605469 198.5625 L 223.605469 229.363281 C 223.457031 230.96875 223.894531 231.84375 224.628906 232.71875 C 224.921875 233.15625 225.507812 233.449219 226.238281 233.449219 C 227.558594 233.449219 227.996094 232.429688 228.4375 231.40625 C 228.582031 230.824219 228.730469 230.09375 228.730469 229.363281 Z M 228.730469 198.5625 "/>
</g>
</svg>
