<?xml version="1.0" encoding="UTF-8"?>
<svg xmlns="http://www.w3.org/2000/svg" xmlns:xlink="http://www.w3.org/1999/xlink" width="375pt" height="374.999991pt" viewBox="0 0 375 374.999991" version="1.2">
<defs>
<clipPath id="clip1">
  <path d="M 113 125.0625 L 262 125.0625 L 262 250.3125 L 113 250.3125 Z M 113 125.0625 "/>
</clipPath>
</defs>
<g id="surface1">
<g clip-path="url(#clip1)" clip-rule="nonzero">
<path style=" stroke:none;fill-rule:nonzero;fill:rgb(0%,0%,0%);fill-opacity:1;" d="M 258.007812 125.007812 C 257.085938 125.035156 256.203125 125.421875 255.558594 126.101562 L 187.5 194.566406 L 119.441406 126.101562 C 118.78125 125.410156 117.871094 125.035156 116.921875 125.035156 C 115.476562 125.035156 114.191406 125.90625 113.640625 127.238281 C 113.105469 128.582031 113.421875 130.109375 114.453125 131.121094 L 187.5 204.605469 L 260.542969 131.121094 C 261.59375 130.109375 261.910156 128.542969 261.359375 127.199219 C 260.792969 125.851562 259.46875 124.980469 258.007812 125.007812 Z M 258.007812 171.140625 C 257.085938 171.167969 256.203125 171.558594 255.558594 172.234375 L 187.5 240.703125 L 119.441406 172.234375 C 118.78125 171.542969 117.871094 171.167969 116.921875 171.15625 C 115.476562 171.167969 114.191406 172.042969 113.640625 173.371094 C 113.105469 174.71875 113.421875 176.242188 114.453125 177.253906 L 187.5 250.738281 L 260.542969 177.253906 C 261.59375 176.242188 261.910156 174.675781 261.359375 173.332031 C 260.792969 171.988281 259.46875 171.113281 258.007812 171.140625 Z M 258.007812 171.140625 "/>
</g>
</g>
</svg>
