<?xml version="1.0" encoding="UTF-8"?>
<svg xmlns="http://www.w3.org/2000/svg" xmlns:xlink="http://www.w3.org/1999/xlink" width="375pt" height="374.999991pt" viewBox="0 0 375 374.999991" version="1.2">
<defs>
<clipPath id="clip1">
  <path d="M 3 28 L 372.4375 28 L 372.4375 347.941406 L 3 347.941406 Z M 3 28 "/>
</clipPath>
</defs>
<g id="surface1">
<g clip-path="url(#clip1)" clip-rule="nonzero">
<path style=" stroke:none;fill-rule:nonzero;fill:rgb(19.999695%,19.999695%,19.999695%);fill-opacity:1;" d="M 121.828125 28.230469 C 96.246094 29.136719 59 36.585938 9.023438 58.65625 C 6.09375 59.5625 3.941406 62.117188 3.503906 65.140625 C 3.066406 68.195312 4.441406 71.21875 6.996094 72.933594 C 9.554688 74.617188 12.863281 74.710938 15.515625 73.121094 C 63.992188 51.707031 99.242188 45.003906 122.324219 44.191406 C 133.867188 43.785156 142.257812 44.847656 147.78125 46.1875 C 150.558594 46.875 152.617188 47.621094 153.769531 48.183594 C 153.925781 48.246094 153.894531 48.339844 154.019531 48.433594 C 154.175781 48.742188 154.394531 48.992188 154.519531 49.429688 C 154.925781 50.894531 155.269531 52.984375 155.765625 55.414062 C 156.765625 60.277344 157.855469 66.574219 158.761719 72.621094 C 160.289062 82.910156 161.164062 89.894531 161.507812 92.574219 C 156.640625 92.730469 151.898438 93.136719 147.03125 93.324219 C 142.726562 93.507812 138.390625 93.601562 134.304688 93.820312 C 133.308594 93.851562 132.277344 94.039062 131.308594 94.070312 C 130.84375 94.101562 130.53125 94.039062 130.0625 94.070312 C 125.445312 94.289062 121.078125 94.507812 117.085938 94.820312 C 114.621094 95.003906 112.71875 95.316406 110.597656 95.566406 C 108.941406 95.753906 107.007812 95.847656 105.605469 96.066406 C 104.265625 96.253906 103.203125 96.625 102.113281 96.8125 C 100.582031 97.09375 99.085938 97.28125 97.121094 98.308594 C 94.875 99.496094 92.847656 100.992188 90.882812 102.550781 C 88.855469 104.140625 86.949219 105.855469 85.140625 107.789062 C 83.269531 109.78125 81.554688 111.996094 79.902344 114.269531 C 78.308594 116.453125 76.625 118.636719 75.160156 121.003906 C 74.660156 121.816406 74.160156 122.6875 73.660156 123.5 C 72.789062 124.964844 72.007812 126.492188 71.164062 127.988281 C 70.886719 128.457031 70.699219 128.984375 70.417969 129.484375 C 69.011719 132.039062 67.484375 134.628906 66.175781 137.214844 C 66.144531 137.277344 66.207031 137.402344 66.175781 137.464844 C 64.675781 140.457031 63.304688 143.292969 61.933594 146.195312 C 61.652344 146.753906 61.464844 147.378906 61.183594 147.9375 C 58.125 142.515625 53.136719 139.957031 51.199219 139.957031 C 47.050781 139.957031 32.734375 144.417969 31.484375 145.445312 C 30.238281 146.472656 28.242188 155.949219 28.242188 158.664062 C 28.242188 161.375 33.792969 163.652344 36.976562 163.652344 C 39.003906 163.652344 46.367188 163.839844 53.199219 163.902344 C 52.699219 164.585938 52.480469 165.242188 51.449219 166.394531 C 49.796875 168.171875 47.800781 170.136719 45.710938 172.128906 C 45.523438 172.316406 45.398438 172.441406 45.210938 172.628906 C 42.777344 174.96875 40.125 177.492188 37.476562 180.359375 C 37.382812 180.453125 37.320312 180.515625 37.226562 180.609375 C 34.480469 183.601562 31.890625 186.75 29.488281 190.335938 C 28.617188 191.644531 27.523438 193.640625 26.496094 196.070312 C 26.371094 196.382812 26.121094 196.507812 25.996094 196.820312 C 25.621094 197.753906 25.371094 198.722656 24.996094 199.8125 C 24.839844 200.25 24.652344 200.59375 24.496094 201.058594 C 24.125 202.214844 23.84375 203.242188 23.5 204.550781 C 23.09375 206.078125 22.84375 207.792969 22.5 209.539062 C 22.34375 210.320312 22.160156 211.191406 22.003906 212.03125 C 22.003906 212.125 22.003906 212.1875 22.003906 212.28125 C 21.722656 213.996094 21.472656 215.804688 21.253906 217.769531 C 21.035156 219.828125 20.910156 221.945312 20.753906 224.253906 C 20.722656 224.875 20.535156 225.375 20.503906 226 C 20.503906 226.25 20.503906 226.464844 20.503906 226.746094 C 20.378906 229.554688 20.253906 232.546875 20.253906 235.726562 L 20.253906 331.492188 C 20.253906 340.28125 27.429688 347.453125 36.226562 347.453125 L 68.171875 347.453125 C 76.96875 347.453125 84.144531 340.28125 84.144531 331.492188 L 84.144531 319.519531 C 86.792969 319.738281 90.007812 320.050781 92.878906 320.269531 C 95.683594 320.488281 98.335938 320.550781 101.363281 320.769531 C 102.578125 320.863281 103.609375 320.925781 104.855469 321.019531 C 108.445312 321.265625 111.96875 321.296875 115.835938 321.515625 C 122.574219 321.890625 129.71875 322.234375 137.300781 322.515625 C 144.910156 322.792969 152.804688 323.105469 161.257812 323.261719 C 169.804688 323.417969 178.539062 323.511719 187.960938 323.511719 C 197.414062 323.511719 206.117188 323.417969 214.664062 323.261719 C 223.117188 323.105469 231.011719 322.792969 238.621094 322.515625 C 246.203125 322.234375 253.34375 321.890625 260.082031 321.515625 C 265.167969 321.234375 269.941406 321.078125 274.558594 320.769531 C 277.523438 320.550781 280.265625 320.488281 283.042969 320.269531 C 285.914062 320.050781 289.125 319.738281 291.777344 319.519531 L 291.777344 331.492188 C 291.777344 340.28125 298.953125 347.453125 307.75 347.453125 L 339.695312 347.453125 C 348.492188 347.453125 355.664062 340.28125 355.664062 331.492188 L 355.664062 235.726562 C 355.664062 232.296875 355.570312 229.023438 355.417969 226 C 355.292969 223.472656 355.136719 221.230469 354.917969 219.015625 C 354.886719 218.546875 354.730469 218.207031 354.667969 217.769531 C 354.449219 215.835938 354.199219 213.996094 353.917969 212.28125 C 353.824219 211.660156 353.761719 211.128906 353.667969 210.535156 C 353.605469 210.257812 353.480469 210.070312 353.417969 209.789062 C 353.078125 208.042969 352.828125 206.328125 352.421875 204.800781 C 352.078125 203.460938 351.796875 202.214844 351.421875 201.058594 C 351.265625 200.59375 351.082031 200.25 350.925781 199.8125 C 350.550781 198.722656 350.300781 197.753906 349.925781 196.820312 C 349.769531 196.414062 349.582031 196.195312 349.425781 195.824219 C 348.429688 193.484375 347.273438 191.613281 346.433594 190.335938 C 344.03125 186.75 341.441406 183.601562 338.695312 180.609375 C 338.601562 180.515625 338.539062 180.453125 338.445312 180.359375 C 335.792969 177.492188 333.144531 174.96875 330.710938 172.628906 C 330.523438 172.441406 330.398438 172.316406 330.210938 172.128906 C 328.121094 170.136719 326.125 168.171875 324.46875 166.394531 C 323.441406 165.242188 323.222656 164.585938 322.722656 163.902344 C 329.554688 163.839844 336.917969 163.652344 338.945312 163.652344 C 342.128906 163.652344 347.679688 161.375 347.679688 158.664062 C 347.679688 155.949219 345.683594 146.472656 344.4375 145.445312 C 343.1875 144.417969 328.871094 139.957031 324.71875 139.957031 C 322.785156 139.957031 317.792969 142.515625 314.738281 147.9375 C 314.457031 147.378906 314.269531 146.753906 313.988281 146.195312 C 312.617188 143.292969 311.242188 140.457031 309.746094 137.464844 C 309.714844 137.402344 309.777344 137.277344 309.746094 137.214844 C 308.4375 134.628906 306.90625 132.039062 305.503906 129.484375 C 305.222656 128.984375 305.035156 128.457031 304.753906 127.988281 C 303.539062 125.804688 302.320312 123.625 301.011719 121.503906 C 300.917969 121.347656 300.855469 121.160156 300.761719 121.003906 C 299.296875 118.636719 297.613281 116.453125 296.019531 114.269531 C 294.367188 111.996094 292.652344 109.78125 290.78125 107.789062 C 288.96875 105.855469 287.066406 104.140625 285.039062 102.550781 C 283.074219 100.992188 281.046875 99.496094 278.800781 98.308594 C 276.835938 97.28125 275.339844 97.09375 273.808594 96.8125 C 272.71875 96.625 271.65625 96.253906 270.316406 96.066406 C 268.910156 95.847656 266.976562 95.753906 265.324219 95.566406 C 263.203125 95.316406 261.300781 95.003906 258.835938 94.820312 C 254.84375 94.507812 250.476562 94.289062 245.859375 94.070312 C 245.390625 94.039062 245.078125 94.101562 244.609375 94.070312 C 239.527344 93.851562 234.128906 93.539062 228.890625 93.324219 C 224.054688 93.136719 219.25 92.730469 214.414062 92.574219 C 214.757812 89.894531 215.628906 82.910156 217.160156 72.621094 C 218.0625 66.574219 219.15625 60.277344 220.152344 55.414062 C 220.652344 52.984375 220.996094 50.894531 221.402344 49.429688 C 221.527344 48.992188 221.746094 48.742188 221.902344 48.433594 C 222.027344 48.339844 221.996094 48.246094 222.152344 48.183594 C 223.304688 47.621094 225.363281 46.875 228.140625 46.1875 C 233.660156 44.847656 242.054688 43.785156 253.59375 44.191406 C 276.679688 45.003906 311.929688 51.707031 360.40625 73.121094 C 363.058594 74.710938 366.367188 74.617188 368.921875 72.933594 C 371.480469 71.21875 372.855469 68.195312 372.417969 65.140625 C 371.980469 62.117188 369.828125 59.5625 366.894531 58.65625 C 316.921875 36.585938 279.675781 29.136719 254.09375 28.230469 C 241.304688 27.792969 231.414062 28.949219 224.148438 30.726562 C 220.527344 31.597656 217.628906 32.78125 215.164062 33.96875 C 212.699219 35.152344 210.796875 35.773438 208.675781 38.953125 C 207.019531 41.417969 206.769531 43.101562 206.179688 45.191406 C 205.585938 47.277344 204.960938 49.492188 204.433594 52.171875 C 203.339844 57.503906 202.371094 63.925781 201.4375 70.128906 C 199.722656 81.507812 198.660156 90.609375 198.441406 92.324219 C 196.570312 92.292969 190.019531 92.074219 189.707031 92.074219 C 189.113281 92.074219 188.304688 92.074219 187.710938 92.074219 C 184.683594 92.136719 180.847656 92.261719 177.480469 92.324219 C 177.261719 90.609375 176.199219 81.507812 174.484375 70.128906 C 173.546875 63.925781 172.582031 57.503906 171.488281 52.171875 C 170.960938 49.492188 170.335938 47.277344 169.742188 45.191406 C 169.148438 43.101562 168.898438 41.417969 167.246094 38.953125 C 165.125 35.773438 163.222656 35.152344 160.757812 33.96875 C 158.292969 32.78125 155.394531 31.597656 151.773438 30.726562 C 144.503906 28.949219 134.617188 27.792969 121.828125 28.230469 Z M 187.710938 108.035156 C 188.957031 108.066406 190.207031 108.003906 191.453125 108.035156 C 194.542969 108.097656 209.390625 108.535156 228.140625 109.285156 C 237.5 109.65625 246.886719 109.96875 254.84375 110.53125 C 255.839844 110.59375 257.152344 110.71875 258.085938 110.78125 C 261.988281 111.121094 265.324219 111.652344 267.820312 112.027344 C 269.566406 112.277344 271.125 112.710938 271.5625 112.773438 C 271.71875 112.867188 271.90625 112.929688 272.0625 113.023438 C 274.871094 114.675781 277.957031 117.542969 281.046875 121.253906 C 281.265625 121.535156 281.578125 121.722656 281.796875 122.003906 C 282.917969 123.40625 283.917969 124.902344 285.039062 126.492188 C 287.191406 129.671875 289.28125 133.351562 291.277344 136.964844 C 293.277344 140.582031 295.210938 144.230469 297.019531 147.9375 L 78.902344 147.9375 C 80.710938 144.230469 82.675781 140.582031 84.640625 136.964844 C 86.390625 133.785156 88.011719 130.605469 89.882812 127.738281 C 89.945312 127.644531 90.070312 127.582031 90.132812 127.488281 C 90.320312 127.175781 90.445312 126.773438 90.632812 126.492188 C 93.65625 122.160156 96.902344 118.667969 99.867188 116.015625 C 101.332031 114.707031 102.734375 113.554688 104.109375 112.773438 C 104.078125 112.773438 104.328125 112.804688 104.359375 112.773438 C 104.792969 112.710938 106.355469 112.277344 108.101562 112.027344 C 110.660156 111.652344 114.058594 111.121094 118.082031 110.78125 C 118.519531 110.75 119.144531 110.8125 119.582031 110.78125 C 127.753906 110.15625 137.890625 109.6875 147.78125 109.285156 C 154.175781 109.035156 154.675781 108.972656 160.257812 108.785156 C 169.335938 108.503906 178.632812 108.191406 187.710938 108.035156 Z M 46.957031 193.828125 C 47.300781 193.796875 47.582031 193.765625 47.957031 193.828125 C 89.507812 200.53125 89.789062 202.152344 100.113281 210.785156 C 100.113281 210.785156 95.683594 213.21875 87.886719 217.769531 C 83.425781 220.386719 77.59375 219.765625 73.410156 219.515625 C 69.230469 219.265625 60.808594 218.609375 49.703125 217.519531 C 38.753906 216.460938 39.972656 211.878906 40.71875 206.796875 C 40.875 205.671875 41.25 203.492188 41.71875 201.308594 C 42.0625 200.59375 42.464844 199.6875 42.714844 199.3125 C 43.964844 197.445312 45.429688 195.636719 46.957031 193.828125 Z M 327.964844 193.828125 C 328.339844 193.765625 328.621094 193.796875 328.960938 193.828125 C 330.492188 195.636719 331.957031 197.445312 333.207031 199.3125 C 333.453125 199.6875 333.859375 200.59375 334.203125 201.308594 C 334.671875 203.492188 335.046875 205.671875 335.203125 206.796875 C 335.949219 211.878906 337.167969 216.460938 326.21875 217.519531 C 315.113281 218.609375 306.6875 219.265625 302.507812 219.515625 C 298.328125 219.765625 292.496094 220.386719 288.035156 217.769531 C 280.234375 213.21875 275.804688 210.785156 275.804688 210.785156 C 286.132812 202.152344 286.414062 200.53125 327.964844 193.828125 Z M 177.480469 210.785156 C 183.90625 210.660156 187.960938 210.785156 187.960938 210.785156 C 187.960938 210.785156 254.09375 210.503906 267.820312 219.765625 C 267.820312 219.765625 210.359375 221.574219 202.683594 224.753906 C 195.011719 227.933594 187.960938 235.726562 187.960938 235.726562 C 187.960938 235.726562 180.910156 227.933594 173.238281 224.753906 C 165.5625 221.574219 108.101562 219.765625 108.101562 219.765625 C 118.394531 212.8125 158.230469 211.160156 177.480469 210.785156 Z M 135.304688 267.648438 L 240.617188 267.648438 C 249.820312 267.648438 258.523438 271.699219 264.574219 278.621094 L 286.785156 303.808594 C 262.328125 305.835938 230.136719 307.550781 187.960938 307.550781 C 145.785156 307.550781 113.589844 305.835938 89.132812 303.808594 L 111.34375 278.621094 C 117.429688 271.699219 126.101562 267.648438 135.304688 267.648438 Z M 135.304688 267.648438 "/>
</g>
</g>
</svg>
