<?xml version="1.0" encoding="UTF-8"?>
<svg xmlns="http://www.w3.org/2000/svg" xmlns:xlink="http://www.w3.org/1999/xlink" width="375pt" height="374.999991pt" viewBox="0 0 375 374.999991" version="1.2">
<g id="surface1">
<path style=" stroke:none;fill-rule:evenodd;fill:rgb(13.328552%,34.509277%,29.798889%);fill-opacity:1;" d="M 341.101562 236.136719 C 338.414062 255.742188 336.539062 281.394531 322.566406 296.601562 C 317.648438 301.972656 279.546875 324.324219 281.359375 307.082031 C 288.34375 253.25 292.191406 199.257812 295.523438 145.070312 C 296.496094 122.328125 297.789062 99.550781 298.082031 76.808594 C 298.4375 72.960938 296.042969 63.480469 302.027344 63.222656 C 313.347656 66.554688 325.769531 69.886719 333.238281 79.914062 C 347.34375 98.90625 345.695312 127.40625 345.953125 149.890625 C 346.308594 178.585938 344.980469 207.699219 341.101562 236.136719 Z M 266.445312 62.769531 C 258.683594 91.207031 249.753906 128.894531 241.765625 157.429688 C 235.394531 180.265625 228.082031 209.707031 200.429688 212.617188 C 196.289062 213.039062 191.921875 213.425781 187.488281 213.492188 C 183.058594 213.425781 178.691406 213.039062 174.550781 212.617188 C 146.894531 209.707031 139.585938 180.265625 133.214844 157.429688 C 125.222656 128.894531 116.296875 91.207031 108.535156 62.769531 C 107.207031 57.886719 109.210938 58.984375 119.238281 57.625 C 137.222656 55.199219 164.039062 54.8125 187.488281 55.039062 C 210.90625 54.8125 237.753906 55.199219 255.738281 57.625 C 265.765625 58.984375 267.773438 57.886719 266.445312 62.769531 Z M 236.914062 317.726562 C 234.683594 318.113281 227.179688 318.082031 218.898438 318.277344 C 208.417969 318.535156 197.96875 318.566406 187.488281 318.566406 C 177.042969 318.566406 166.5625 318.535156 156.082031 318.277344 C 147.800781 318.082031 140.296875 318.113281 138.066406 317.726562 C 135.832031 317.335938 133.535156 317.175781 134.214844 314.683594 C 134.894531 312.160156 144.953125 279.488281 144.953125 279.488281 C 151.554688 257.746094 152.007812 256.324219 168.957031 252.960938 C 174.582031 251.859375 181.019531 251.148438 187.488281 251.082031 C 193.992188 251.148438 200.394531 251.859375 206.023438 252.960938 C 222.972656 256.324219 223.457031 257.746094 230.058594 279.488281 C 230.058594 279.488281 240.117188 312.160156 240.761719 314.683594 C 241.441406 317.175781 239.144531 317.335938 236.914062 317.726562 Z M 52.414062 296.601562 C 38.40625 281.394531 36.5625 255.742188 33.878906 236.136719 C 29.996094 207.699219 28.671875 178.585938 28.996094 149.890625 C 29.253906 127.40625 27.636719 98.90625 41.738281 79.914062 C 49.210938 69.886719 61.632812 66.554688 72.953125 63.222656 C 78.9375 63.480469 76.542969 72.960938 76.898438 76.808594 C 77.191406 99.550781 78.484375 122.328125 79.453125 145.070312 C 82.753906 199.257812 86.636719 253.25 93.621094 307.082031 C 95.433594 324.324219 57.328125 301.972656 52.414062 296.601562 Z M 369.015625 125.628906 C 367.753906 104.40625 364.648438 81.242188 349.058594 65.519531 C 334.824219 51.21875 314.285156 47.210938 295.203125 44.621094 C 259.234375 39.800781 223.78125 38.472656 187.488281 38.441406 C 151.199219 38.472656 115.746094 39.800781 79.777344 44.621094 C 60.695312 47.210938 40.15625 51.21875 25.921875 65.550781 C 10.332031 81.242188 7.226562 104.40625 5.964844 125.628906 C 4.507812 150.214844 5.769531 174.769531 7.257812 199.320312 C 8.777344 223.488281 11.464844 247.878906 17.316406 271.433594 C 20.035156 282.335938 23.722656 293.300781 29.996094 302.683594 C 36.046875 311.675781 44.746094 318.082031 54.484375 322.546875 C 75.183594 332.089844 99.054688 332.898438 121.40625 334.289062 C 143.335938 335.648438 165.398438 336.488281 187.488281 336.585938 C 209.582031 336.488281 231.640625 335.648438 253.574219 334.289062 C 275.921875 332.898438 299.792969 332.058594 320.496094 322.546875 C 330.230469 318.050781 338.933594 311.675781 344.980469 302.648438 C 351.257812 293.269531 354.945312 282.300781 357.660156 271.398438 C 363.515625 247.878906 366.199219 223.488281 367.722656 199.289062 C 369.207031 174.769531 370.46875 150.214844 369.015625 125.628906 Z M 369.015625 125.628906 "/>
</g>
</svg>
