<?xml version="1.0" encoding="UTF-8"?>
<svg xmlns="http://www.w3.org/2000/svg" xmlns:xlink="http://www.w3.org/1999/xlink" width="375pt" height="374.999991pt" viewBox="0 0 375 374.999991" version="1.2">
<defs>
<clipPath id="clip1">
  <path d="M 199.691406 99 L 320.507812 99 L 320.507812 374.882812 L 199.691406 374.882812 Z M 199.691406 99 "/>
</clipPath>
<clipPath id="clip2">
  <path d="M 67.703125 99 L 188.519531 99 L 188.519531 374.882812 L 67.703125 374.882812 Z M 67.703125 99 "/>
</clipPath>
<clipPath id="clip3">
  <path d="M 16.171875 146 L 112 146 L 112 213 L 16.171875 213 Z M 16.171875 146 "/>
</clipPath>
<clipPath id="clip4">
  <path d="M 268 155 L 358.921875 155 L 358.921875 221 L 268 221 Z M 268 155 "/>
</clipPath>
</defs>
<g id="surface1">
<path style=" stroke:none;fill-rule:evenodd;fill:rgb(63.139343%,84.709167%,96.469116%);fill-opacity:1;" d="M 68.535156 131.804688 L 319.53125 131.804688 L 319.53125 0.117188 L 68.535156 0.117188 L 68.535156 131.804688 "/>
<path style=" stroke:none;fill-rule:evenodd;fill:rgb(33.729553%,41.178894%,55.688477%);fill-opacity:1;" d="M 185.734375 99.078125 L 202.332031 99.078125 L 202.332031 225.554688 C 202.332031 230.117188 198.597656 233.847656 194.035156 233.847656 C 189.46875 233.847656 185.734375 230.117188 185.734375 225.554688 L 185.734375 99.078125 "/>
<g clip-path="url(#clip1)" clip-rule="nonzero">
<path style=" stroke:none;fill-rule:evenodd;fill:rgb(33.729553%,41.178894%,55.688477%);fill-opacity:1;" d="M 199.828125 374.882812 L 320.238281 374.882812 L 320.238281 99.078125 L 199.828125 99.078125 L 199.828125 374.882812 "/>
</g>
<path style=" stroke:none;fill-rule:evenodd;fill:rgb(0%,0%,0%);fill-opacity:1;" d="M 206.835938 125.054688 L 206.835938 223.046875 L 199.46875 233.847656 C 198.414062 233.769531 197.359375 233.769531 196.300781 233.839844 L 204.242188 222.203125 L 204.242188 125.054688 L 206.835938 125.054688 "/>
<path style=" stroke:none;fill-rule:evenodd;fill:rgb(0%,0%,0%);fill-opacity:1;" d="M 321.460938 101.722656 L 199.828125 101.722656 L 199.828125 125.054688 L 321.460938 125.054688 L 321.460938 101.722656 "/>
<g clip-path="url(#clip2)" clip-rule="nonzero">
<path style=" stroke:none;fill-rule:evenodd;fill:rgb(33.729553%,41.178894%,55.688477%);fill-opacity:1;" d="M 67.828125 374.882812 L 188.242188 374.882812 L 188.242188 99.078125 L 67.828125 99.078125 L 67.828125 374.882812 "/>
</g>
<path style=" stroke:none;fill-rule:evenodd;fill:rgb(0%,0%,0%);fill-opacity:1;" d="M 66.605469 101.722656 L 188.242188 101.722656 L 188.242188 125.054688 L 66.605469 125.054688 L 66.605469 101.722656 "/>
<path style=" stroke:none;fill-rule:evenodd;fill:rgb(50.19989%,50.19989%,50.19989%);fill-opacity:1;" d="M 181.609375 98.246094 L 209.605469 98.246094 C 210.765625 98.246094 211.71875 99.195312 211.71875 100.359375 L 211.71875 126.417969 C 211.71875 127.582031 210.765625 128.53125 209.605469 128.53125 L 181.609375 128.53125 C 180.445312 128.53125 179.496094 127.582031 179.496094 126.417969 L 179.496094 100.359375 C 179.496094 99.195312 180.445312 98.246094 181.609375 98.246094 "/>
<path style=" stroke:none;fill-rule:evenodd;fill:rgb(0%,0%,0%);fill-opacity:1;" d="M 185.960938 102.953125 L 205.25 102.953125 C 206.050781 102.953125 206.707031 103.609375 206.707031 104.410156 L 206.707031 122.367188 C 206.707031 123.164062 206.050781 123.820312 205.25 123.820312 L 185.960938 123.820312 C 185.160156 123.820312 184.503906 123.164062 184.503906 122.367188 L 184.503906 104.410156 C 184.503906 103.609375 185.160156 102.953125 185.960938 102.953125 "/>
<path style=" stroke:none;fill-rule:evenodd;fill:rgb(24.308777%,32.159424%,47.059631%);fill-opacity:1;" d="M 224.675781 126.828125 L 231.496094 126.828125 L 231.496094 99.949219 L 224.675781 99.949219 L 224.675781 126.828125 "/>
<path style=" stroke:none;fill-rule:evenodd;fill:rgb(24.308777%,32.159424%,47.059631%);fill-opacity:1;" d="M 263.929688 126.828125 L 270.75 126.828125 L 270.75 99.949219 L 263.929688 99.949219 L 263.929688 126.828125 "/>
<path style=" stroke:none;fill-rule:evenodd;fill:rgb(24.308777%,32.159424%,47.059631%);fill-opacity:1;" d="M 303.1875 126.828125 L 310.007812 126.828125 L 310.007812 99.949219 L 303.1875 99.949219 L 303.1875 126.828125 "/>
<path style=" stroke:none;fill-rule:evenodd;fill:rgb(33.729553%,41.178894%,55.688477%);fill-opacity:1;" d="M 221.507812 112.476562 C 222.609375 112.476562 223.503906 113.371094 223.503906 114.472656 C 223.503906 115.574219 222.609375 116.46875 221.507812 116.46875 C 220.402344 116.46875 219.507812 115.574219 219.507812 114.472656 C 219.507812 113.371094 220.402344 112.476562 221.507812 112.476562 Z M 254.144531 112.476562 C 255.246094 112.476562 256.140625 113.371094 256.140625 114.472656 C 256.140625 115.574219 255.246094 116.46875 254.144531 116.46875 C 253.039062 116.46875 252.144531 115.574219 252.144531 114.472656 C 252.144531 113.371094 253.039062 112.476562 254.144531 112.476562 Z M 237.824219 112.476562 C 238.929688 112.476562 239.824219 113.371094 239.824219 114.472656 C 239.824219 115.574219 238.929688 116.46875 237.824219 116.46875 C 236.722656 116.46875 235.828125 115.574219 235.828125 114.472656 C 235.828125 113.371094 236.722656 112.476562 237.824219 112.476562 "/>
<path style=" stroke:none;fill-rule:evenodd;fill:rgb(24.308777%,32.159424%,47.059631%);fill-opacity:1;" d="M 156.570312 126.828125 L 163.394531 126.828125 L 163.394531 99.949219 L 156.570312 99.949219 L 156.570312 126.828125 "/>
<path style=" stroke:none;fill-rule:evenodd;fill:rgb(24.308777%,32.159424%,47.059631%);fill-opacity:1;" d="M 117.316406 126.828125 L 124.136719 126.828125 L 124.136719 99.949219 L 117.316406 99.949219 L 117.316406 126.828125 "/>
<path style=" stroke:none;fill-rule:evenodd;fill:rgb(24.308777%,32.159424%,47.059631%);fill-opacity:1;" d="M 78.058594 126.828125 L 84.882812 126.828125 L 84.882812 99.949219 L 78.058594 99.949219 L 78.058594 126.828125 "/>
<path style=" stroke:none;fill-rule:evenodd;fill:rgb(33.729553%,41.178894%,55.688477%);fill-opacity:1;" d="M 135.875 112.476562 C 136.980469 112.476562 137.875 113.371094 137.875 114.472656 C 137.875 115.574219 136.980469 116.46875 135.875 116.46875 C 134.773438 116.46875 133.878906 115.574219 133.878906 114.472656 C 133.878906 113.371094 134.773438 112.476562 135.875 112.476562 Z M 168.511719 112.476562 C 169.617188 112.476562 170.511719 113.371094 170.511719 114.472656 C 170.511719 115.574219 169.617188 116.46875 168.511719 116.46875 C 167.410156 116.46875 166.515625 115.574219 166.515625 114.472656 C 166.515625 113.371094 167.410156 112.476562 168.511719 112.476562 Z M 152.195312 112.476562 C 153.296875 112.476562 154.191406 113.371094 154.191406 114.472656 C 154.191406 115.574219 153.296875 116.46875 152.195312 116.46875 C 151.089844 116.46875 150.195312 115.574219 150.195312 114.472656 C 150.195312 113.371094 151.089844 112.476562 152.195312 112.476562 "/>
<path style=" stroke:none;fill-rule:evenodd;fill:rgb(0%,0%,0%);fill-opacity:1;" d="M 201.949219 116.214844 L 211.71875 116.214844 L 211.71875 112.730469 L 201.949219 112.730469 L 201.949219 116.214844 "/>
<path style=" stroke:none;fill-rule:evenodd;fill:rgb(51.368713%,64.309692%,33.329773%);fill-opacity:1;" d="M 68.945312 201.980469 C 69.894531 193.796875 70.164062 186.769531 68.253906 178.707031 C 66.835938 173.457031 65.160156 170.035156 61.863281 165.726562 C 54.441406 156.773438 43.828125 150 35.070312 141.988281 C 43.660156 132.925781 52.253906 123.863281 60.847656 114.800781 C 72.230469 125.214844 80.648438 129.703125 91.316406 142.574219 C 98.058594 151.375 101.679688 158.789062 104.578125 169.507812 C 107.703125 182.699219 107.671875 193.292969 106.121094 206.699219 C 93.726562 205.128906 81.335938 203.554688 68.945312 201.980469 "/>
<path style=" stroke:none;fill-rule:evenodd;fill:rgb(76.858521%,85.488892%,42.749023%);fill-opacity:1;" d="M 73.140625 193.53125 C 76.070312 193.617188 78.261719 195.921875 78.003906 198.878906 C 84.683594 199.460938 91.367188 200.042969 98.042969 200.625 C 98.464844 197.453125 100.085938 194.601562 103.59375 194.445312 C 103.777344 185.773438 103.226562 178.8125 101.183594 170.367188 C 100.652344 168.300781 100.0625 166.335938 99.363281 164.320312 C 96.582031 169.292969 91.707031 172.257812 86.304688 173.667969 C 81.304688 174.976562 75.730469 175.019531 70.613281 174.40625 C 71.015625 175.554688 71.347656 176.667969 71.652344 177.847656 C 72.972656 183.308594 73.257812 187.921875 73.140625 193.53125 Z M 62.765625 161.359375 C 57.554688 155.519531 50.953125 150.769531 44.886719 145.859375 C 46.730469 143.585938 46.21875 140.300781 44.066406 138.429688 C 48.464844 133.375 52.863281 128.316406 57.265625 123.257812 C 59.316406 125.042969 62.464844 124.171875 64.066406 122.199219 C 71.605469 128.304688 78.984375 133.785156 85.503906 141.097656 C 79.953125 141.257812 74.984375 144.242188 71.15625 148.089844 C 67.496094 151.773438 64.589844 156.503906 62.765625 161.359375 "/>
<path style=" stroke:none;fill-rule:evenodd;fill:rgb(51.368713%,64.309692%,33.329773%);fill-opacity:1;" d="M 93.023438 184.386719 C 92.796875 181.605469 90.339844 179.886719 87.644531 180.28125 C 85.242188 180.632812 83.074219 182.617188 83.28125 185.175781 C 83.488281 187.707031 85.90625 189.640625 88.390625 189.589844 C 91.160156 189.535156 93.246094 187.117188 93.023438 184.386719 "/>
<path style=" stroke:none;fill-rule:evenodd;fill:rgb(51.368713%,64.309692%,33.329773%);fill-opacity:1;" d="M 65.164062 136.304688 C 63.046875 134.589844 59.972656 134.925781 58.277344 137.0625 C 56.617188 139.15625 56.933594 142.214844 59.015625 143.902344 C 61.082031 145.570312 64.171875 145.277344 65.898438 143.265625 C 67.707031 141.160156 67.289062 138.023438 65.164062 136.304688 "/>
<path style=" stroke:none;fill-rule:evenodd;fill:rgb(51.368713%,64.309692%,33.329773%);fill-opacity:1;" d="M 109.511719 206.539062 C 108.105469 191.613281 102.601562 175.265625 98.992188 160.53125 C 96.671875 150.574219 95.140625 141.992188 94.730469 131.722656 C 94.53125 119.960938 95.808594 111.214844 100.242188 100.242188 C 111.734375 105.140625 123.222656 110.035156 134.714844 114.933594 C 132.523438 120.359375 132.085938 124.84375 132.1875 130.652344 C 132.484375 138.097656 133.769531 144.660156 135.453125 151.890625 C 139.832031 169.773438 145.132812 185.234375 146.886719 203.828125 C 134.429688 204.730469 121.972656 205.636719 109.511719 206.539062 "/>
<path style=" stroke:none;fill-rule:evenodd;fill:rgb(76.858521%,85.488892%,42.749023%);fill-opacity:1;" d="M 112.027344 198.589844 C 114.652344 198.136719 117.5 199.71875 117.835938 202.496094 C 124.492188 201.695312 131.152344 200.894531 137.808594 200.09375 C 137.464844 197.246094 139.007812 193.9375 142.050781 193.414062 C 140.363281 183.621094 137.636719 174.003906 135.054688 164.414062 C 131.652344 168.621094 126.753906 171.488281 121.566406 172.886719 C 116.410156 174.28125 110.640625 174.304688 105.632812 172.324219 C 107.960938 180.96875 110.507812 189.765625 112.027344 198.589844 Z M 99.878906 147.484375 C 98.984375 142.074219 98.421875 137.109375 98.230469 131.625 C 98.09375 125.359375 98.449219 120.171875 99.636719 114.007812 C 103.171875 114.421875 105.328125 111.464844 106.414062 108.492188 C 112.796875 110.550781 119.175781 112.613281 125.558594 114.671875 C 124.855469 117.585938 126.847656 119.378906 129.496094 120.046875 C 128.777344 123.78125 128.601562 126.960938 128.683594 130.753906 C 128.824219 134.773438 129.261719 138.441406 129.917969 142.40625 C 125.121094 140.40625 119.355469 139.804688 114.222656 140.476562 C 108.8125 141.1875 103.578125 143.371094 99.878906 147.484375 "/>
<path style=" stroke:none;fill-rule:evenodd;fill:rgb(51.368713%,64.309692%,33.329773%);fill-opacity:1;" d="M 129.820312 185.34375 C 129.1875 182.652344 126.609375 180.507812 123.773438 181.234375 C 121.023438 181.9375 119.6875 184.945312 120.308594 187.585938 C 120.933594 190.234375 123.453125 192.195312 126.210938 191.628906 C 129.082031 191.039062 130.460938 188.0625 129.820312 185.34375 "/>
<path style=" stroke:none;fill-rule:evenodd;fill:rgb(51.368713%,64.309692%,33.329773%);fill-opacity:1;" d="M 118.324219 127.804688 C 118.375 125.160156 116.457031 122.640625 113.757812 122.363281 C 110.707031 122.046875 108.605469 124.765625 108.550781 127.621094 C 108.5625 129.050781 108.871094 130.132812 109.710938 131.296875 C 110.765625 132.527344 111.902344 133.074219 113.53125 133.046875 C 115.109375 132.910156 116.199219 132.292969 117.203125 131.082031 C 117.949219 130.03125 118.269531 129.089844 118.324219 127.804688 "/>
<g clip-path="url(#clip3)" clip-rule="nonzero">
<path style=" stroke:none;fill-rule:evenodd;fill:rgb(51.368713%,64.309692%,33.329773%);fill-opacity:1;" d="M 86.378906 212.132812 C 77.34375 202.210938 68.320312 192.339844 55.851562 186.839844 C 43.550781 182.082031 29.199219 181.761719 16.15625 181.105469 C 16.710938 169.660156 17.269531 158.214844 17.824219 146.769531 C 36.269531 147.699219 51.539062 148.320312 69.003906 155.078125 C 87.523438 163.246094 98.546875 174.425781 111.972656 189.164062 C 103.441406 196.820312 94.910156 204.476562 86.378906 212.132812 "/>
</g>
<path style=" stroke:none;fill-rule:evenodd;fill:rgb(76.858521%,85.488892%,42.749023%);fill-opacity:1;" d="M 81.125 201.808594 C 83.742188 199.59375 86.679688 200.894531 88.851562 203.03125 C 93.363281 198.84375 97.871094 194.660156 102.382812 190.472656 C 100.417969 188.1875 98.804688 184.882812 101.085938 182.234375 C 94.183594 175.203125 86.734375 168.535156 78.292969 163.398438 C 78.75 168.371094 76.867188 173.265625 74.101562 177.320312 C 71.4375 181.214844 67.71875 184.71875 63.75 187.265625 C 70.132812 191.152344 75.910156 196.496094 81.125 201.808594 Z M 50.617188 181.703125 C 43.21875 179.734375 35.132812 179.035156 27.515625 178.523438 C 27.492188 175.121094 24.613281 173.710938 21.597656 173.410156 C 21.929688 167.269531 22.261719 161.128906 22.59375 154.984375 C 25.605469 155.023438 28.890625 154.03125 29.394531 150.640625 C 38.90625 151.28125 48.585938 152.238281 57.820312 154.699219 C 53.917969 157.800781 51.652344 162.546875 50.613281 167.332031 C 49.609375 171.964844 49.640625 177.066406 50.617188 181.703125 "/>
<path style=" stroke:none;fill-rule:evenodd;fill:rgb(51.368713%,64.309692%,33.329773%);fill-opacity:1;" d="M 86.683594 181.566406 C 84.730469 179.824219 81.675781 179.5 79.902344 181.671875 C 78.242188 183.707031 78.824219 186.574219 80.703125 188.253906 C 82.539062 189.894531 85.757812 190.46875 87.609375 188.550781 C 89.566406 186.523438 88.585938 183.265625 86.683594 181.566406 "/>
<path style=" stroke:none;fill-rule:evenodd;fill:rgb(51.368713%,64.309692%,33.329773%);fill-opacity:1;" d="M 39.824219 161.074219 C 37.300781 160.789062 34.355469 162.261719 34.113281 165.011719 C 33.886719 167.65625 36.347656 169.703125 38.804688 169.984375 C 41.3125 170.269531 43.796875 168.753906 44.183594 166.167969 C 44.59375 163.449219 42.402344 161.371094 39.824219 161.074219 "/>
<path style=" stroke:none;fill-rule:evenodd;fill:rgb(51.368713%,64.309692%,33.329773%);fill-opacity:1;" d="M 113.859375 228.53125 C 97.796875 193.234375 96.332031 160.066406 97.351562 122.066406 C 109.835938 122.398438 122.324219 122.734375 134.808594 123.066406 C 133.957031 154.875 134.523438 183.480469 147.96875 213.027344 C 136.597656 218.195312 125.230469 223.363281 113.859375 228.53125 "/>
<path style=" stroke:none;fill-rule:evenodd;fill:rgb(76.858521%,85.488892%,42.749023%);fill-opacity:1;" d="M 112.632812 216.46875 C 115.671875 215.324219 118.6875 217.828125 119.820312 220.515625 C 126 217.914062 132.179688 215.3125 138.359375 212.710938 C 137.21875 210.007812 138.296875 206.78125 141.132812 205.710938 C 138.105469 197.699219 135.84375 189.476562 134.277344 181.058594 C 130.433594 184.625 125.277344 187.105469 120.167969 188.195312 C 114.902344 189.316406 109.207031 189.0625 104.324219 186.625 C 106.222656 196.816406 108.96875 206.773438 112.632812 216.46875 Z M 101.292969 162.195312 C 100.617188 152.371094 100.503906 142.519531 100.632812 132.675781 C 103.773438 132.71875 105.851562 129.710938 105.914062 126.796875 C 112.617188 126.941406 119.324219 127.089844 126.027344 127.234375 C 125.960938 130.164062 128.003906 133.039062 131.097656 133.078125 C 130.980469 142.085938 131.066406 151.113281 131.6875 160.101562 C 127.070312 157.527344 121.480469 156.441406 116.222656 156.710938 C 110.878906 156.984375 105.414062 158.6875 101.292969 162.195312 "/>
<path style=" stroke:none;fill-rule:evenodd;fill:rgb(51.368713%,64.309692%,33.329773%);fill-opacity:1;" d="M 128.269531 200.03125 C 127.480469 197.4375 124.84375 195.566406 122.117188 196.296875 C 119.25 197.066406 118.105469 200.207031 118.921875 202.882812 C 119.734375 205.546875 122.457031 207.59375 125.273438 206.628906 C 127.949219 205.710938 129.054688 202.605469 128.269531 200.03125 "/>
<path style=" stroke:none;fill-rule:evenodd;fill:rgb(51.368713%,64.309692%,33.329773%);fill-opacity:1;" d="M 120.730469 143.789062 C 120.699219 141.058594 118.691406 138.4375 115.820312 138.429688 C 112.898438 138.421875 110.925781 141.125 110.953125 143.886719 C 110.984375 146.664062 113.015625 149.269531 115.9375 149.191406 C 118.796875 149.121094 120.757812 146.523438 120.730469 143.789062 "/>
<path style=" stroke:none;fill-rule:evenodd;fill:rgb(51.368713%,64.309692%,33.329773%);fill-opacity:1;" d="M 96.226562 124.496094 C 110.871094 136.683594 130.824219 160.164062 144.902344 168.710938 C 139.9375 177.980469 134.972656 187.253906 130.007812 196.523438 C 109.214844 183.972656 95.128906 164.628906 76.636719 149.234375 C 83.167969 140.988281 89.695312 132.742188 96.226562 124.496094 "/>
<path style=" stroke:none;fill-rule:evenodd;fill:rgb(76.858521%,85.488892%,42.749023%);fill-opacity:1;" d="M 99.597656 131.199219 C 98.179688 132.789062 95.546875 133.410156 93.816406 131.960938 C 90.1875 136.285156 86.558594 140.613281 82.929688 144.9375 C 84.550781 146.546875 83.8125 148.78125 82.535156 150.359375 C 87.414062 154.695312 92.066406 159.371094 96.683594 163.980469 C 97.621094 159.652344 100.207031 155.582031 103.304688 152.46875 C 106.421875 149.339844 110.460938 146.769531 114.820312 145.835938 C 109.847656 140.871094 104.847656 135.867188 99.597656 131.199219 Z M 127.371094 158.199219 C 131.414062 162.046875 135.792969 166.109375 140.359375 169.324219 C 139.492188 170.652344 138.449219 173.097656 140.023438 174.328125 C 137.0625 179.132812 134.101562 183.941406 131.140625 188.75 C 129.261719 187.59375 126.765625 188.605469 125.578125 190.289062 C 119.945312 186.324219 114.660156 181.519531 109.671875 176.773438 C 114.019531 175.75 117.941406 173 120.949219 169.769531 C 123.898438 166.59375 126.417969 162.460938 127.371094 158.199219 "/>
<path style=" stroke:none;fill-rule:evenodd;fill:rgb(51.368713%,64.309692%,33.329773%);fill-opacity:1;" d="M 93.203125 148.351562 C 94.792969 149.871094 97.34375 149.566406 98.820312 148.050781 C 100.332031 146.5 100.496094 143.933594 98.878906 142.394531 C 97.246094 140.839844 94.785156 141.257812 93.332031 142.832031 C 91.917969 144.363281 91.601562 146.828125 93.203125 148.351562 "/>
<path style=" stroke:none;fill-rule:evenodd;fill:rgb(51.368713%,64.309692%,33.329773%);fill-opacity:1;" d="M 125.054688 178.894531 C 126.769531 180.316406 129.101562 179.484375 130.355469 177.871094 C 131.519531 176.367188 131.949219 173.917969 130.320312 172.566406 C 128.695312 171.214844 126.242188 171.910156 124.945312 173.382812 C 123.574219 174.941406 123.359375 177.484375 125.054688 178.894531 "/>
<path style=" stroke:none;fill-rule:evenodd;fill:rgb(51.368713%,64.309692%,33.329773%);fill-opacity:1;" d="M 310.007812 159.863281 C 305.875 168.464844 301.777344 177.039062 301.476562 186.722656 C 301.621094 196.09375 305.242188 205.632812 308.289062 214.398438 C 300.589844 217.085938 292.898438 219.777344 285.203125 222.464844 C 280.894531 210.066406 277.226562 199.84375 277.023438 186.535156 C 277.464844 172.15625 281.894531 161.910156 288.03125 149.132812 C 295.359375 152.710938 302.679688 156.285156 310.007812 159.863281 "/>
<path style=" stroke:none;fill-rule:evenodd;fill:rgb(76.858521%,85.488892%,42.749023%);fill-opacity:1;" d="M 304.601562 166.078125 C 302.445312 164.945312 302.515625 162.664062 303.347656 160.664062 C 299.378906 158.808594 295.417969 156.953125 291.453125 155.101562 C 290.46875 157.003906 288.722656 158.949219 286.367188 158.152344 C 283.574219 164.574219 281.164062 171.261719 280.027344 178.195312 C 283.183594 176.566406 286.917969 176.5 290.328125 177.242188 C 293.609375 177.957031 296.910156 179.46875 299.652344 181.40625 C 300.507812 176.164062 302.492188 170.929688 304.601562 166.078125 Z M 299.484375 191.539062 C 300.160156 196.9375 301.859375 202.449219 303.554688 207.605469 C 301.316406 208.53125 301.15625 210.804688 301.765625 212.871094 C 297.621094 214.289062 293.484375 215.710938 289.34375 217.128906 C 288.566406 215.136719 287.035156 213.234375 284.664062 213.808594 C 282.546875 207.371094 280.597656 200.742188 279.757812 194.003906 C 282.84375 195.746094 286.578125 195.972656 290.011719 195.378906 C 293.332031 194.804688 296.691406 193.421875 299.484375 191.539062 "/>
<path style=" stroke:none;fill-rule:evenodd;fill:rgb(51.368713%,64.309692%,33.329773%);fill-opacity:1;" d="M 289.769531 167.820312 C 289.140625 169.570312 289.746094 171.671875 291.648438 172.257812 C 293.433594 172.808594 295.171875 171.660156 295.777344 169.972656 C 296.367188 168.328125 295.886719 166.054688 294.128906 165.347656 C 292.269531 164.597656 290.382812 166.113281 289.769531 167.820312 "/>
<path style=" stroke:none;fill-rule:evenodd;fill:rgb(51.368713%,64.309692%,33.329773%);fill-opacity:1;" d="M 288.765625 204.15625 C 289.246094 205.890625 291.007812 207.441406 292.882812 206.863281 C 294.6875 206.308594 295.382812 204.140625 294.910156 202.445312 C 294.429688 200.722656 292.765625 199.488281 290.957031 199.921875 C 289.058594 200.378906 288.269531 202.378906 288.765625 204.15625 "/>
<path style=" stroke:none;fill-rule:evenodd;fill:rgb(51.368713%,64.309692%,33.329773%);fill-opacity:1;" d="M 135.558594 188.449219 C 125.996094 150.871094 106.378906 124.078125 81.792969 95.066406 C 72.261719 103.136719 62.730469 111.203125 53.199219 119.269531 C 73.773438 143.550781 91.234375 166.222656 99.238281 197.679688 C 111.34375 194.605469 123.449219 191.527344 135.558594 188.449219 "/>
<path style=" stroke:none;fill-rule:evenodd;fill:rgb(76.858521%,85.488892%,42.749023%);fill-opacity:1;" d="M 128.964844 178.273438 C 125.875 179.28125 125.089844 183.117188 125.890625 185.925781 C 119.441406 187.757812 112.988281 189.589844 106.539062 191.425781 C 105.738281 188.605469 102.875 186.761719 99.996094 187.699219 C 97.34375 179.554688 93.957031 171.726562 89.910156 164.179688 C 95.140625 164.558594 100.71875 163.269531 105.382812 160.925781 C 110.199219 158.507812 114.480469 154.75 116.765625 149.796875 C 121.664062 158.929688 125.753906 168.417969 128.964844 178.273438 Z M 103.835938 128.839844 C 98.21875 120.753906 92.136719 113 85.875 105.398438 C 83.453125 107.394531 79.949219 106.347656 78.074219 104.113281 C 72.933594 108.417969 67.796875 112.726562 62.660156 117.03125 C 64.542969 119.277344 64.75 122.792969 62.359375 124.761719 C 68.09375 131.714844 73.671875 138.808594 78.816406 146.210938 C 80.804688 141.316406 84.484375 136.972656 88.753906 133.898438 C 93.097656 130.769531 98.425781 128.683594 103.835938 128.839844 "/>
<path style=" stroke:none;fill-rule:evenodd;fill:rgb(51.368713%,64.309692%,33.329773%);fill-opacity:1;" d="M 106.472656 175.226562 C 105.46875 172.707031 106.351562 169.601562 108.9375 168.46875 C 111.65625 167.273438 114.515625 169.007812 115.550781 171.601562 C 116.585938 174.191406 115.742188 177.492188 112.941406 178.5 C 110.28125 179.457031 107.472656 177.726562 106.472656 175.226562 "/>
<path style=" stroke:none;fill-rule:evenodd;fill:rgb(51.368713%,64.309692%,33.329773%);fill-opacity:1;" d="M 77.152344 126.632812 C 75.46875 124.484375 75.394531 121.183594 77.628906 119.382812 C 79.90625 117.550781 83.132812 118.425781 84.84375 120.601562 C 86.554688 122.78125 86.601562 126.085938 84.273438 127.855469 C 82 129.582031 78.84375 128.78125 77.152344 126.632812 "/>
<path style=" stroke:none;fill-rule:evenodd;fill:rgb(33.729553%,41.178894%,55.688477%);fill-opacity:1;" d="M 143.070312 158.148438 C 151.3125 194.949219 169.773438 216.34375 156.191406 249.492188 C 140.707031 287.285156 68.910156 305.207031 68.910156 305.207031 C 37.828125 285.398438 53.101562 240.066406 68.910156 195.652344 L 119.042969 174.65625 L 143.070312 158.148438 "/>
<path style=" stroke:none;fill-rule:evenodd;fill:rgb(27.059937%,34.118652%,49.409485%);fill-opacity:1;" d="M 140.925781 148.09375 C 127.835938 160.921875 120.03125 167.082031 106.898438 174.722656 C 93.800781 182.339844 77.269531 189.199219 64.175781 191.601562 C 64.175781 194.527344 64.175781 197.453125 64.175781 200.375 C 64.175781 203.296875 64.175781 206.222656 64.175781 209.140625 C 77.269531 206.820312 93.777344 200.144531 106.898438 193.003906 C 119.996094 185.878906 133.085938 177.085938 146.175781 165.167969 C 146.175781 152.375 140.925781 148.667969 140.925781 148.09375 "/>
<g clip-path="url(#clip4)" clip-rule="nonzero">
<path style=" stroke:none;fill-rule:evenodd;fill:rgb(51.368713%,64.309692%,33.329773%);fill-opacity:1;" d="M 357.890625 190.066406 C 349.355469 189.820312 340.855469 189.667969 332.359375 190.636719 C 327.820312 191.246094 324.074219 191.96875 320 194.113281 C 310.953125 199.449219 303.070312 212.355469 297.347656 220.90625 C 287.675781 214.472656 278.003906 208.039062 268.332031 201.609375 C 278.675781 186.144531 286.863281 173.242188 303.265625 163.554688 C 311.730469 159.101562 318.648438 157.328125 328.074219 156.070312 C 338.570312 154.867188 348.464844 154.945312 359 155.25 C 358.628906 166.855469 358.261719 178.460938 357.890625 190.066406 "/>
</g>
<path style=" stroke:none;fill-rule:evenodd;fill:rgb(76.858521%,85.488892%,42.749023%);fill-opacity:1;" d="M 347.96875 186.628906 C 347.972656 183.605469 350.792969 181.824219 353.59375 181.882812 C 353.722656 175.652344 353.847656 169.417969 353.976562 163.1875 C 350.96875 162.988281 348.246094 161.609375 348.007812 158.308594 C 341.347656 158.316406 335.101562 158.523438 328.472656 159.300781 C 325.472656 159.683594 322.660156 160.160156 319.707031 160.835938 C 324.03125 163.855469 326.445312 168.65625 327.273438 173.773438 C 328.0625 178.640625 327.445312 183.683594 326.160156 188.410156 C 328.109375 187.964844 329.976562 187.660156 331.960938 187.40625 C 337.351562 186.773438 342.539062 186.636719 347.96875 186.628906 Z M 314.582031 193.835938 C 309.375 197.988281 304.761719 204.367188 300.964844 209.785156 C 298.007812 208.019531 295.328125 209.699219 293.488281 212.171875 C 288.320312 208.683594 283.152344 205.195312 277.984375 201.703125 C 279.582031 199.109375 280.4375 195.75 277.757812 193.535156 C 283.28125 185.652344 289.332031 177.738281 296.902344 171.699219 C 297.035156 176.777344 299.746094 181.386719 303.109375 185.03125 C 306.359375 188.550781 310.433594 191.453125 314.582031 193.835938 "/>
<path style=" stroke:none;fill-rule:evenodd;fill:rgb(51.368713%,64.309692%,33.329773%);fill-opacity:1;" d="M 338.652344 168.113281 C 336.070312 168.230469 334.253906 170.371094 334.460938 172.925781 C 334.65625 175.339844 336.585938 177.304688 339.070312 177.1875 C 341.511719 177.078125 343.652344 174.984375 343.609375 172.503906 C 343.5625 169.898438 341.175781 167.996094 338.652344 168.113281 "/>
<path style=" stroke:none;fill-rule:evenodd;fill:rgb(51.368713%,64.309692%,33.329773%);fill-opacity:1;" d="M 292.207031 190.214844 C 290.601562 192.214844 290.4375 195.460938 292.644531 197.097656 C 294.722656 198.640625 297.753906 197.820312 299.296875 195.898438 C 300.871094 193.941406 300.679688 191.125 298.796875 189.449219 C 296.753906 187.632812 293.855469 188.160156 292.207031 190.214844 "/>
<path style=" stroke:none;fill-rule:evenodd;fill:rgb(51.368713%,64.309692%,33.329773%);fill-opacity:1;" d="M 265.894531 210.515625 C 266.445312 196.542969 269.792969 186.355469 276.445312 174.050781 C 288.257812 154.105469 302.558594 141.703125 321.488281 128.621094 C 327.964844 138.261719 334.441406 147.902344 340.917969 157.542969 C 327.125 167.074219 315.40625 176.632812 306.78125 191.203125 C 303.085938 198.042969 301.042969 203.648438 300.734375 211.421875 C 289.121094 211.117188 277.507812 210.816406 265.894531 210.515625 "/>
<path style=" stroke:none;fill-rule:evenodd;fill:rgb(76.858521%,85.488892%,42.749023%);fill-opacity:1;" d="M 269.859375 202.402344 C 272.289062 202.761719 274.296875 205.214844 274.113281 207.675781 C 280.335938 208.136719 286.554688 208.59375 292.773438 209.054688 C 293.183594 206.699219 295.914062 206.304688 297.894531 206.515625 C 298.917969 200.074219 300.808594 195.324219 303.941406 189.601562 C 304.257812 189.046875 304.578125 188.503906 304.902344 187.960938 C 302.207031 187.496094 299.867188 186.800781 297.304688 185.847656 C 295.015625 185.28125 293.214844 184.605469 291.128906 183.492188 C 289.035156 182.3125 287.542969 181.1875 285.917969 179.40625 C 283.703125 177.523438 282.117188 175.816406 280.671875 173.28125 C 280.195312 174.066406 279.734375 174.855469 279.28125 175.652344 C 274.320312 184.710938 271.480469 192.210938 269.859375 202.402344 Z M 292.324219 157.664062 C 298.734375 150.476562 305.992188 144.027344 313.65625 138.207031 C 315.945312 140.761719 319.265625 139.84375 321.804688 138.199219 C 325.40625 143.289062 329.011719 148.375 332.613281 153.464844 C 330.324219 155.082031 328.945312 158.296875 330.808594 160.75 C 324.601562 165.46875 318.667969 170.6875 313.472656 176.511719 C 311.816406 171.996094 308.90625 167.660156 305.425781 164.347656 C 301.847656 160.9375 297.296875 158.265625 292.324219 157.664062 "/>
<path style=" stroke:none;fill-rule:evenodd;fill:rgb(51.368713%,64.309692%,33.329773%);fill-opacity:1;" d="M 290 197.792969 C 290.679688 195.496094 289.605469 192.597656 287.289062 191.695312 C 284.664062 190.679688 282.023438 192.714844 281.28125 195.207031 C 280.519531 197.773438 281.8125 200.371094 284.507812 200.945312 C 286.882812 201.449219 289.296875 200.152344 290 197.792969 "/>
<path style=" stroke:none;fill-rule:evenodd;fill:rgb(51.368713%,64.309692%,33.329773%);fill-opacity:1;" d="M 316.816406 159.746094 C 318.699219 158.097656 319.515625 155.011719 317.824219 152.945312 C 316.054688 150.769531 312.769531 151.207031 310.828125 152.910156 C 308.84375 154.644531 308.222656 157.644531 310.132812 159.671875 C 311.945312 161.597656 314.902344 161.421875 316.816406 159.746094 "/>
<path style=" stroke:none;fill-rule:evenodd;fill:rgb(51.368713%,64.309692%,33.329773%);fill-opacity:1;" d="M 313.769531 136.222656 C 310.210938 143.472656 308.191406 149.515625 307 157.773438 C 305.722656 169.257812 307.167969 177.496094 311.292969 188.050781 C 300.792969 193.75 290.296875 199.449219 279.800781 205.152344 C 272.628906 186.789062 270.296875 171.957031 272.515625 151.992188 C 274.484375 138.339844 277.65625 128.34375 283.539062 116.351562 C 293.617188 122.976562 303.691406 129.601562 313.769531 136.222656 "/>
<path style=" stroke:none;fill-rule:evenodd;fill:rgb(76.858521%,85.488892%,42.749023%);fill-opacity:1;" d="M 308.890625 138.777344 C 307.375 137.851562 305.019531 135.855469 305.832031 133.542969 C 300.34375 130.152344 294.855469 126.761719 289.367188 123.367188 C 288.039062 125.695312 285.433594 125.484375 283.445312 124.5 C 280.117188 132.285156 277.640625 140.519531 276.246094 149.042969 C 280.785156 146.699219 286.128906 146.992188 290.871094 148.300781 C 295.433594 149.566406 300.222656 151.96875 304.097656 155.023438 C 305.019531 149.378906 306.691406 143.929688 308.890625 138.777344 Z M 303.320312 167.347656 C 303.535156 172.847656 304.496094 178.21875 306.097656 183.40625 C 304 184.363281 302.039062 186.230469 302.851562 189.070312 C 297.105469 191.84375 291.355469 194.617188 285.609375 197.390625 C 284.597656 194.644531 281.835938 193.210938 279.375 194.203125 C 276.847656 186 275.347656 177.46875 275.011719 168.777344 C 279.332031 171.304688 284.59375 171.710938 289.351562 171.21875 C 294.007812 170.738281 298.980469 169.347656 303.320312 167.347656 "/>
<path style=" stroke:none;fill-rule:evenodd;fill:rgb(51.368713%,64.309692%,33.329773%);fill-opacity:1;" d="M 289.488281 136.097656 C 288.746094 138.867188 290.363281 140.84375 292.507812 141.804688 C 294.503906 142.457031 296.933594 142.292969 297.953125 139.90625 C 298.746094 137.589844 296.6875 135.316406 295.019531 134.460938 C 292.933594 133.515625 290.59375 133.488281 289.488281 136.097656 "/>
<path style=" stroke:none;fill-rule:evenodd;fill:rgb(51.368713%,64.309692%,33.329773%);fill-opacity:1;" d="M 286.226562 181.773438 C 286.984375 184.601562 289.253906 185.269531 291.566406 184.640625 C 293.40625 184.03125 295.578125 181.898438 295.089844 179.453125 C 294.601562 177.003906 291.828125 176.304688 289.972656 176.667969 C 287.84375 177.082031 285.683594 179.058594 286.226562 181.773438 "/>
<path style=" stroke:none;fill-rule:evenodd;fill:rgb(51.368713%,64.309692%,33.329773%);fill-opacity:1;" d="M 272.222656 128.621094 C 263.902344 147.9375 256.007812 181.027344 246.421875 196.476562 C 255.949219 203.121094 265.472656 209.769531 275 216.414062 C 289.191406 193.664062 293.382812 167.582031 303.882812 143.183594 C 293.328125 138.328125 282.777344 133.476562 272.222656 128.621094 "/>
<path style=" stroke:none;fill-rule:evenodd;fill:rgb(76.858521%,85.488892%,42.749023%);fill-opacity:1;" d="M 272.257812 136.902344 C 274.445312 137.757812 277.351562 137.054688 278.328125 134.765625 C 284.066406 137.210938 289.800781 139.652344 295.542969 142.097656 C 294.746094 144.496094 296.59375 146.324219 298.640625 147.238281 C 296.007812 153.945312 293.765625 160.875 291.527344 167.722656 C 288.4375 163.929688 283.855469 161.214844 279.25 159.699219 C 274.613281 158.171875 269.351562 157.660156 264.59375 158.921875 C 267.003906 151.550781 269.425781 144.125 272.257812 136.902344 Z M 258.421875 177.367188 C 256.367188 183.175781 254.085938 189.363281 251.199219 194.8125 C 252.71875 195.683594 254.96875 197.570312 254.035156 199.566406 C 259.355469 202.820312 264.675781 206.070312 269.996094 209.324219 C 271.265625 207.25 274.230469 206.996094 276.246094 208.0625 C 279.804688 201.339844 282.601562 193.972656 285.136719 186.808594 C 280.347656 187.96875 275.109375 187.226562 270.53125 185.542969 C 266.039062 183.894531 261.492188 181.082031 258.421875 177.367188 "/>
<path style=" stroke:none;fill-rule:evenodd;fill:rgb(51.368713%,64.309692%,33.329773%);fill-opacity:1;" d="M 287.136719 150.59375 C 286.328125 152.882812 283.667969 153.859375 281.453125 153.105469 C 279.1875 152.335938 277.742188 149.890625 278.5625 147.566406 C 279.394531 145.21875 282.027344 144.398438 284.246094 145.222656 C 286.40625 146.027344 287.949219 148.296875 287.136719 150.59375 "/>
<path style=" stroke:none;fill-rule:evenodd;fill:rgb(51.368713%,64.309692%,33.329773%);fill-opacity:1;" d="M 271.054688 196.582031 C 270.078125 198.84375 267.367188 199.1875 265.328125 198.222656 C 263.425781 197.324219 261.78125 195.128906 262.707031 192.984375 C 263.628906 190.84375 266.394531 190.296875 268.40625 191.101562 C 270.535156 191.953125 272.019531 194.347656 271.054688 196.582031 "/>
<path style=" stroke:none;fill-rule:evenodd;fill:rgb(51.368713%,64.309692%,33.329773%);fill-opacity:1;" d="M 268.160156 207.835938 C 269.558594 187.945312 275.585938 173.632812 285.273438 156.492188 C 293.707031 142.21875 302.679688 130.15625 312.582031 116.976562 C 321.875 123.941406 331.171875 130.90625 340.46875 137.871094 C 331.480469 149.835938 323.097656 160.980469 315.453125 173.921875 C 308.992188 185.347656 303.914062 196.0625 302.984375 209.339844 C 291.375 208.839844 279.769531 208.339844 268.160156 207.835938 "/>
<path style=" stroke:none;fill-rule:evenodd;fill:rgb(76.858521%,85.488892%,42.749023%);fill-opacity:1;" d="M 272.628906 197.316406 C 275.535156 197.847656 276.824219 201.21875 276.546875 203.867188 C 282.75 204.519531 288.953125 205.167969 295.15625 205.820312 C 295.425781 203.21875 298.125 201.949219 300.507812 202.378906 C 301.828125 195.125 304.554688 188.023438 307.765625 181.410156 C 302.929688 182.011719 297.652344 181.082031 293.210938 179.109375 C 288.574219 177.050781 284.484375 173.6875 282.273438 169.046875 C 277.921875 178.011719 274.414062 187.492188 272.628906 197.316406 Z M 294.339844 147.976562 C 299.296875 140.355469 304.640625 133.011719 310.082031 125.730469 C 312.21875 127.328125 315.324219 126.761719 316.902344 124.660156 C 321.886719 128.40625 326.878906 132.148438 331.863281 135.890625 C 330.277344 138 330.652344 141.09375 332.785156 142.683594 C 327.710938 149.46875 322.71875 156.3125 318.097656 163.414062 C 316.214844 158.820312 312.71875 154.832031 308.617188 152.074219 C 304.457031 149.269531 299.398438 147.554688 294.339844 147.976562 "/>
<path style=" stroke:none;fill-rule:evenodd;fill:rgb(51.368713%,64.309692%,33.329773%);fill-opacity:1;" d="M 293.054688 192.414062 C 293.769531 190.050781 292.65625 187.285156 290.261719 186.417969 C 287.660156 185.480469 285.109375 187.285156 284.351562 189.78125 C 283.59375 192.285156 284.734375 195.152344 287.425781 195.800781 C 289.886719 196.390625 292.335938 194.789062 293.054688 192.414062 "/>
<path style=" stroke:none;fill-rule:evenodd;fill:rgb(51.368713%,64.309692%,33.329773%);fill-opacity:1;" d="M 319.316406 144.734375 C 320.816406 142.667969 320.664062 139.683594 318.535156 138.109375 C 316.371094 136.515625 313.46875 137.316406 311.957031 139.402344 C 310.449219 141.476562 310.515625 144.574219 312.722656 146.132812 C 314.890625 147.664062 317.828125 146.785156 319.316406 144.734375 "/>
<path style=" stroke:none;fill-rule:evenodd;fill:rgb(51.368713%,64.309692%,33.329773%);fill-opacity:1;" d="M 284.148438 180.992188 C 282.195312 168.769531 283.21875 154.566406 283.058594 142.042969 C 282.859375 133.601562 282.3125 126.425781 280.519531 118.132812 C 278.25 108.6875 275.417969 101.960938 269.609375 94.105469 C 261.433594 100.390625 253.261719 106.671875 245.085938 112.957031 C 247.960938 116.84375 249.234375 120.335938 250.355469 125.003906 C 251.652344 131.019531 251.980469 136.527344 252.128906 142.65625 C 252.320312 157.855469 251.273438 171.308594 253.714844 186.53125 C 263.859375 184.683594 274.003906 182.839844 284.148438 180.992188 "/>
<path style=" stroke:none;fill-rule:evenodd;fill:rgb(76.858521%,85.488892%,42.749023%);fill-opacity:1;" d="M 280.496094 175.152344 C 278.304688 175.335938 276.355469 177.1875 276.660156 179.472656 C 271.171875 180.207031 265.6875 180.941406 260.199219 181.671875 C 259.886719 179.328125 257.96875 177 255.425781 177.210938 C 254.757812 169.03125 254.949219 160.78125 255.035156 152.585938 C 258.621094 155.246094 263.128906 156.527344 267.566406 156.574219 C 271.972656 156.625 276.589844 155.453125 280.183594 152.835938 C 280.109375 160.230469 279.890625 167.785156 280.496094 175.152344 Z M 279.65625 131.792969 C 279.253906 127.285156 278.675781 123.199219 277.699219 118.777344 C 276.511719 113.738281 275.160156 109.667969 272.9375 104.980469 C 270.195312 106.042969 267.863281 104.125 266.378906 101.972656 C 261.703125 104.933594 257.027344 107.898438 252.351562 110.859375 C 253.515625 113.042969 252.292969 114.890625 250.3125 115.96875 C 251.660156 118.804688 252.457031 121.3125 253.175781 124.363281 C 253.890625 127.605469 254.300781 130.625 254.59375 133.929688 C 258.015625 131.34375 262.5 129.671875 266.742188 129.152344 C 271.214844 128.601562 275.847656 129.269531 279.65625 131.792969 "/>
<path style=" stroke:none;fill-rule:evenodd;fill:rgb(51.368713%,64.309692%,33.329773%);fill-opacity:1;" d="M 263.539062 168.238281 C 263.488281 165.953125 265.105469 163.707031 267.523438 163.703125 C 269.871094 163.695312 271.558594 165.828125 271.605469 168.066406 C 271.652344 170.3125 270.046875 172.398438 267.722656 172.515625 C 265.304688 172.632812 263.585938 170.539062 263.539062 168.238281 "/>
<path style=" stroke:none;fill-rule:evenodd;fill:rgb(51.368713%,64.309692%,33.329773%);fill-opacity:1;" d="M 260.84375 119.867188 C 260.261719 117.761719 261.273438 115.351562 263.375 114.574219 C 265.75 113.695312 267.988281 115.433594 268.621094 117.703125 C 268.910156 118.847656 268.882812 119.78125 268.453125 120.882812 C 267.863281 122.085938 267.070312 122.753906 265.757812 123.070312 C 264.472656 123.285156 263.472656 123.015625 262.421875 122.257812 C 261.605469 121.570312 261.15625 120.882812 260.84375 119.867188 "/>
<path style=" stroke:none;fill-rule:evenodd;fill:rgb(33.729553%,41.178894%,55.688477%);fill-opacity:1;" d="M 245.78125 159.578125 C 237.535156 196.375 219.078125 217.773438 232.660156 250.921875 C 248.144531 288.714844 319.9375 306.636719 319.9375 306.636719 C 351.019531 286.828125 335.75 241.492188 319.9375 197.082031 L 269.808594 176.085938 L 245.78125 159.578125 "/>
<path style=" stroke:none;fill-rule:evenodd;fill:rgb(27.059937%,34.118652%,49.409485%);fill-opacity:1;" d="M 245.355469 147.070312 C 258.445312 159.898438 268.820312 168.511719 281.949219 176.152344 C 295.046875 183.769531 311.578125 190.625 324.675781 193.03125 C 324.675781 195.957031 324.675781 198.882812 324.675781 201.804688 C 324.675781 204.726562 324.675781 207.652344 324.675781 210.570312 C 311.578125 208.25 295.074219 201.574219 281.949219 194.433594 C 268.851562 187.308594 255.765625 178.511719 242.675781 166.597656 C 241.207031 159.585938 242.675781 151.847656 245.355469 147.070312 "/>
</g>
</svg>
