<?xml version="1.0" encoding="UTF-8"?>
<svg xmlns="http://www.w3.org/2000/svg" xmlns:xlink="http://www.w3.org/1999/xlink" width="375pt" height="374.999991pt" viewBox="0 0 375 374.999991" version="1.2">
<defs>
<clipPath id="clip1">
  <path d="M 21.378906 160 L 118.128906 160 L 118.128906 258 L 21.378906 258 Z M 21.378906 160 "/>
</clipPath>
<clipPath id="clip2">
  <path d="M 21.378906 122.78125 L 118.128906 122.78125 L 118.128906 154 L 21.378906 154 Z M 21.378906 122.78125 "/>
</clipPath>
<clipPath id="clip3">
  <path d="M 21.378906 264 L 118.128906 264 L 118.128906 295.28125 L 21.378906 295.28125 Z M 21.378906 264 "/>
</clipPath>
<clipPath id="clip4">
  <path d="M 135.0625 122.898438 L 352.5625 122.898438 L 352.5625 295.242188 L 135.0625 295.242188 Z M 135.0625 122.898438 "/>
</clipPath>
</defs>
<g id="surface1">
<path style=" stroke:none;fill-rule:nonzero;fill:rgb(19.999695%,19.999695%,19.999695%);fill-opacity:1;" d="M 45.566406 271.597656 C 45.566406 270.480469 44.65625 269.574219 43.539062 269.574219 L 40.125 269.574219 L 40.125 273.617188 L 43.539062 273.625 C 44.660156 273.625 45.566406 272.71875 45.566406 271.597656 Z M 45.566406 271.597656 "/>
<path style=" stroke:none;fill-rule:nonzero;fill:rgb(19.999695%,19.999695%,19.999695%);fill-opacity:1;" d="M 65.722656 141.609375 C 65.722656 142.054688 65.675781 142.492188 65.589844 142.925781 C 65.503906 143.359375 65.375 143.777344 65.207031 144.1875 C 65.039062 144.59375 64.832031 144.984375 64.585938 145.351562 C 64.339844 145.71875 64.058594 146.058594 63.746094 146.371094 C 63.433594 146.683594 63.09375 146.960938 62.726562 147.207031 C 62.355469 147.453125 61.96875 147.660156 61.558594 147.828125 C 61.148438 148 60.730469 148.125 60.292969 148.210938 C 59.859375 148.296875 59.421875 148.339844 58.980469 148.339844 C 58.535156 148.339844 58.097656 148.296875 57.664062 148.210938 C 57.230469 148.125 56.808594 148 56.398438 147.828125 C 55.992188 147.660156 55.601562 147.453125 55.234375 147.207031 C 54.867188 146.960938 54.527344 146.683594 54.210938 146.371094 C 53.898438 146.058594 53.621094 145.71875 53.375 145.351562 C 53.128906 144.984375 52.921875 144.59375 52.75 144.1875 C 52.582031 143.777344 52.453125 143.359375 52.367188 142.925781 C 52.28125 142.492188 52.238281 142.054688 52.238281 141.609375 C 52.238281 141.167969 52.28125 140.730469 52.367188 140.296875 C 52.453125 139.863281 52.582031 139.445312 52.75 139.035156 C 52.921875 138.625 53.128906 138.238281 53.375 137.871094 C 53.621094 137.503906 53.898438 137.164062 54.210938 136.851562 C 54.527344 136.539062 54.867188 136.261719 55.234375 136.015625 C 55.601562 135.769531 55.992188 135.5625 56.398438 135.390625 C 56.808594 135.222656 57.230469 135.097656 57.664062 135.007812 C 58.097656 134.921875 58.535156 134.878906 58.980469 134.878906 C 59.421875 134.878906 59.859375 134.921875 60.292969 135.007812 C 60.730469 135.097656 61.148438 135.222656 61.558594 135.390625 C 61.96875 135.5625 62.355469 135.769531 62.726562 136.015625 C 63.09375 136.261719 63.433594 136.539062 63.746094 136.851562 C 64.058594 137.164062 64.339844 137.503906 64.585938 137.871094 C 64.832031 138.238281 65.039062 138.625 65.207031 139.035156 C 65.375 139.445312 65.503906 139.863281 65.589844 140.296875 C 65.675781 140.730469 65.722656 141.167969 65.722656 141.609375 Z M 65.722656 141.609375 "/>
<path style=" stroke:none;fill-rule:nonzero;fill:rgb(19.999695%,19.999695%,19.999695%);fill-opacity:1;" d="M 46.65625 136.917969 C 46.65625 135.800781 45.75 134.894531 44.628906 134.894531 L 41.21875 134.894531 L 41.21875 138.9375 L 44.628906 138.945312 C 45.753906 138.945312 46.65625 138.035156 46.65625 136.917969 Z M 46.65625 136.917969 "/>
<g clip-path="url(#clip1)" clip-rule="nonzero">
<path style=" stroke:none;fill-rule:nonzero;fill:rgb(19.999695%,19.999695%,19.999695%);fill-opacity:1;" d="M 118.128906 160.734375 L 21.378906 160.734375 L 21.378906 257.332031 L 118.128906 257.332031 Z M 64.039062 248.71875 L 52.667969 248.71875 C 53.605469 247.382812 54.945312 245.914062 54.945312 242.84375 L 54.945312 213.535156 C 56.679688 213.332031 60.832031 212.734375 61.765625 212.402344 L 61.765625 213.863281 C 63.773438 213.863281 66.320312 213.714844 69.050781 213.253906 C 69.789062 214.464844 71.257812 217.402344 71.664062 218.761719 C 68.675781 219.261719 65.289062 219.554688 61.765625 219.609375 L 61.765625 242.84375 C 61.765625 245.914062 63.101562 247.386719 64.039062 248.71875 Z M 67.59375 208.851562 C 62.460938 210.886719 56.058594 212.148438 48.394531 212.277344 L 48.394531 235.507812 C 48.394531 238.582031 49.734375 240.046875 50.664062 241.382812 L 39.296875 241.382812 C 40.234375 240.046875 41.570312 238.578125 41.570312 235.507812 L 41.570312 172.207031 C 41.570312 169.136719 40.90625 168.601562 39.96875 167.269531 L 64.976562 167.269531 C 74.472656 167.269531 85.441406 173.144531 85.441406 185.5625 C 85.441406 193.023438 81.546875 201.113281 72.734375 206.390625 C 74.605469 209.195312 82.363281 220.015625 83.835938 233.898438 C 83.972656 236.96875 84.773438 240.175781 87.046875 241.378906 L 87.046875 241.390625 L 72.203125 241.390625 C 74.882812 238.984375 76.617188 236.046875 76.484375 232.703125 C 76.347656 229.371094 75.417969 217.210938 67.59375 208.851562 Z M 89.984375 239.402344 C 89.648438 226.316406 82.996094 217.976562 81.304688 216.066406 C 80.644531 216.300781 80.257812 216.398438 80.257812 216.398438 L 77.519531 210.742188 C 77.519531 210.742188 85.167969 208.105469 88.472656 199.8125 C 92.742188 189.089844 87.152344 182.9375 87.152344 182.9375 C 86.769531 179.734375 84.316406 175.304688 84.316406 175.304688 C 93.195312 177 102.628906 186.804688 97.722656 199.996094 C 95.105469 207.03125 90.316406 211.226562 86.417969 213.609375 C 87.703125 215.707031 91.265625 221.664062 93.851562 227.425781 C 97.0625 234.59375 96.875 240.53125 97.632812 243.925781 C 98.382812 247.316406 100.273438 248.542969 100.273438 248.542969 L 85.640625 248.542969 C 90.453125 244.769531 89.984375 239.402344 89.984375 239.402344 Z M 89.984375 239.402344 "/>
</g>
<path style=" stroke:none;fill-rule:nonzero;fill:rgb(19.999695%,19.999695%,19.999695%);fill-opacity:1;" d="M 63.109375 171.671875 L 48.394531 171.671875 L 48.394531 206.527344 C 57.089844 206.527344 75.808594 203.722656 76.484375 184.890625 C 76.617188 178.078125 73.277344 171.671875 63.109375 171.671875 Z M 61.765625 178.808594 L 61.765625 202.707031 C 60.230469 203.242188 57.15625 204.246094 54.949219 204.445312 L 54.949219 179.339844 C 54.949219 176.269531 54.285156 175.734375 53.34375 174.398438 L 70 174.398438 C 71.332031 175.203125 73.144531 177.140625 73.808594 178.808594 Z M 61.765625 178.808594 "/>
<g clip-path="url(#clip2)" clip-rule="nonzero">
<path style=" stroke:none;fill-rule:nonzero;fill:rgb(19.999695%,19.999695%,19.999695%);fill-opacity:1;" d="M 118.128906 153.835938 L 118.128906 129.683594 C 118.128906 125.878906 115.027344 122.785156 111.21875 122.785156 L 28.289062 122.785156 C 24.476562 122.785156 21.378906 125.878906 21.378906 129.683594 L 21.378906 153.835938 Z M 96.78125 133.625 C 97.714844 133.625 98.6875 134.035156 99.222656 134.257812 C 99.789062 134.5 100.214844 134.625 100.550781 134.683594 L 99.789062 136.582031 C 99.335938 136.3125 98.136719 135.289062 96.789062 135.3125 C 94.097656 135.375 94.972656 138.359375 95.515625 138.777344 C 96.226562 139.335938 98.113281 140.980469 98.6875 141.402344 C 99.5 142.066406 101.523438 143.480469 101.523438 146.371094 C 101.523438 149.660156 98.113281 150.230469 97.449219 150.261719 C 96.789062 150.289062 96.089844 150.140625 95.578125 150.082031 C 95.273438 150.046875 94.882812 149.898438 94.1875 150.023438 L 93.917969 147.667969 C 94.609375 148.125 95.875 148.695312 97.023438 148.695312 C 100.371094 148.304688 99.882812 145.59375 98.953125 144.296875 C 98.019531 142.996094 95.933594 141.402344 95.117188 140.800781 C 94.546875 140.34375 93.011719 139.234375 93.132812 136.941406 C 93.273438 134.167969 95.84375 133.625 96.78125 133.625 Z M 82.351562 133.238281 L 84.523438 133.238281 C 84.40625 133.570312 84.3125 133.871094 84.285156 134.46875 L 84.285156 147.398438 C 84.285156 147.882812 84.800781 148.453125 85.917969 148.453125 C 87.035156 148.453125 88.820312 148.453125 89.664062 148 L 88.421875 149.992188 L 82.355469 149.992188 C 82.476562 149.660156 82.570312 149.355469 82.597656 148.753906 L 82.597656 134.46875 C 82.566406 133.871094 82.476562 133.570312 82.351562 133.238281 Z M 70.828125 133.238281 L 72.996094 133.238281 C 72.875 133.570312 72.785156 133.871094 72.757812 134.46875 L 72.757812 147.398438 C 72.757812 147.882812 73.273438 148.453125 74.390625 148.453125 C 75.507812 148.453125 77.285156 148.453125 78.132812 148 L 76.894531 149.992188 L 70.832031 149.992188 C 70.953125 149.660156 71.042969 149.355469 71.074219 148.753906 L 71.074219 134.46875 C 71.039062 133.871094 70.949219 133.570312 70.828125 133.238281 Z M 58.980469 133.261719 C 63.597656 133.261719 67.34375 137 67.34375 141.613281 C 67.34375 146.226562 63.597656 149.964844 58.980469 149.964844 C 54.359375 149.964844 50.613281 146.226562 50.613281 141.613281 C 50.613281 137 54.359375 133.261719 58.980469 133.261719 Z M 39.292969 133.238281 L 44.636719 133.234375 C 46.6875 133.234375 48.351562 134.898438 48.351562 136.941406 C 48.351562 138.988281 46.6875 140.652344 44.636719 140.652344 L 43.851562 140.648438 C 43.582031 140.648438 43.546875 140.980469 43.730469 141.191406 L 51.214844 149.992188 L 49.015625 149.992188 L 41.800781 141.492188 C 41.558594 141.191406 41.222656 141.164062 41.222656 141.703125 L 41.222656 148.753906 C 41.257812 149.355469 41.347656 149.65625 41.46875 149.992188 L 39.292969 149.992188 C 39.410156 149.660156 39.503906 149.359375 39.53125 148.753906 L 39.53125 134.46875 C 39.503906 133.871094 39.414062 133.570312 39.292969 133.238281 Z M 39.292969 133.238281 "/>
</g>
<path style=" stroke:none;fill-rule:nonzero;fill:rgb(19.999695%,19.999695%,19.999695%);fill-opacity:1;" d="M 64.628906 276.535156 C 64.628906 276.976562 64.585938 277.414062 64.5 277.847656 C 64.414062 278.28125 64.285156 278.703125 64.117188 279.109375 C 63.945312 279.519531 63.738281 279.90625 63.492188 280.273438 C 63.246094 280.640625 62.96875 280.980469 62.65625 281.292969 C 62.339844 281.605469 62 281.882812 61.632812 282.128906 C 61.265625 282.375 60.875 282.582031 60.46875 282.753906 C 60.058594 282.921875 59.636719 283.050781 59.203125 283.136719 C 58.769531 283.222656 58.328125 283.265625 57.886719 283.265625 C 57.445312 283.265625 57.007812 283.222656 56.570312 283.136719 C 56.136719 283.050781 55.714844 282.921875 55.308594 282.753906 C 54.898438 282.582031 54.511719 282.375 54.140625 282.128906 C 53.773438 281.882812 53.433594 281.605469 53.121094 281.292969 C 52.808594 280.980469 52.527344 280.640625 52.28125 280.273438 C 52.035156 279.90625 51.828125 279.519531 51.660156 279.109375 C 51.488281 278.703125 51.363281 278.28125 51.277344 277.847656 C 51.1875 277.414062 51.144531 276.976562 51.144531 276.535156 C 51.144531 276.089844 51.1875 275.652344 51.277344 275.21875 C 51.363281 274.789062 51.488281 274.367188 51.660156 273.957031 C 51.828125 273.550781 52.035156 273.160156 52.28125 272.792969 C 52.527344 272.425781 52.808594 272.085938 53.121094 271.773438 C 53.433594 271.460938 53.773438 271.183594 54.140625 270.9375 C 54.511719 270.691406 54.898438 270.484375 55.308594 270.316406 C 55.714844 270.144531 56.136719 270.019531 56.570312 269.933594 C 57.007812 269.847656 57.445312 269.804688 57.886719 269.804688 C 58.328125 269.804688 58.769531 269.847656 59.203125 269.933594 C 59.636719 270.019531 60.058594 270.144531 60.46875 270.316406 C 60.875 270.484375 61.265625 270.691406 61.632812 270.9375 C 62 271.183594 62.339844 271.460938 62.65625 271.773438 C 62.96875 272.085938 63.246094 272.425781 63.492188 272.792969 C 63.738281 273.160156 63.945312 273.550781 64.117188 273.957031 C 64.285156 274.367188 64.414062 274.789062 64.5 275.21875 C 64.585938 275.652344 64.628906 276.089844 64.628906 276.535156 Z M 64.628906 276.535156 "/>
<g clip-path="url(#clip3)" clip-rule="nonzero">
<path style=" stroke:none;fill-rule:nonzero;fill:rgb(19.999695%,19.999695%,19.999695%);fill-opacity:1;" d="M 21.378906 264.230469 L 21.378906 288.378906 C 21.378906 292.1875 24.476562 295.28125 28.289062 295.28125 L 111.21875 295.28125 C 115.027344 295.28125 118.128906 292.1875 118.128906 288.378906 L 118.128906 264.230469 Z M 47.921875 284.667969 L 40.710938 276.171875 C 40.46875 275.871094 40.136719 275.839844 40.136719 276.382812 L 40.136719 283.4375 C 40.167969 284.039062 40.257812 284.339844 40.378906 284.667969 L 38.207031 284.667969 C 38.328125 284.335938 38.417969 284.035156 38.449219 283.4375 L 38.449219 269.152344 C 38.417969 268.550781 38.328125 268.246094 38.207031 267.917969 L 43.546875 267.917969 C 45.597656 267.917969 47.257812 269.574219 47.257812 271.625 C 47.257812 273.671875 45.597656 275.328125 43.546875 275.328125 L 42.761719 275.328125 C 42.488281 275.328125 42.460938 275.660156 42.640625 275.871094 L 50.125 284.667969 Z M 57.886719 284.882812 C 53.269531 284.882812 49.523438 281.144531 49.523438 276.535156 C 49.523438 271.917969 53.269531 268.179688 57.886719 268.179688 C 62.507812 268.179688 66.253906 271.917969 66.253906 276.535156 C 66.253906 281.144531 62.507812 284.882812 57.886719 284.882812 Z M 73.109375 284.910156 L 70.933594 284.910156 C 71.054688 284.570312 71.144531 284.273438 71.175781 283.675781 L 71.175781 276.085938 L 66.710938 268.160156 L 68.675781 268.160156 L 72.085938 274.148438 L 75.496094 268.160156 L 77.457031 268.160156 L 72.871094 276.085938 L 72.871094 283.675781 L 72.863281 283.675781 C 72.898438 284.277344 72.988281 284.578125 73.109375 284.910156 Z M 85.96875 285.246094 C 81.347656 285.246094 77.601562 281.144531 77.601562 276.53125 C 77.601562 271.921875 81.347656 267.941406 85.96875 267.941406 C 87.625 267.941406 88.984375 268.179688 90.289062 269.007812 L 90.507812 271.035156 C 89.21875 270.03125 87.65625 269.5625 85.960938 269.5625 C 82.238281 269.5625 79.222656 272.816406 79.222656 276.539062 C 79.222656 280.257812 82.238281 283.628906 85.960938 283.628906 C 87.824219 283.628906 89.511719 283.417969 90.734375 282.203125 L 90.804688 284.253906 C 89.4375 285.21875 87.769531 285.246094 85.96875 285.246094 Z M 100.3125 284.914062 L 94.25 284.914062 C 94.367188 284.578125 94.457031 284.28125 94.488281 283.679688 L 94.488281 269.390625 C 94.457031 268.792969 94.367188 268.488281 94.25 268.160156 L 100.3125 268.160156 L 100.765625 270.148438 C 99.921875 269.695312 98.921875 269.695312 97.808594 269.695312 C 96.691406 269.695312 96.175781 270.269531 96.175781 270.75 L 96.175781 273.40625 C 96.175781 274.070312 96.59375 274.277344 97.113281 274.277344 L 100.070312 274.277344 L 100.070312 275.972656 L 97.117188 275.972656 C 96.605469 275.972656 96.179688 276.179688 96.179688 276.839844 L 96.179688 282.324219 C 96.179688 282.808594 96.695312 283.378906 97.8125 283.378906 C 98.933594 283.378906 100.714844 283.378906 101.554688 282.925781 Z M 100.3125 284.914062 "/>
</g>
<g clip-path="url(#clip4)" clip-rule="nonzero">
<path style=" stroke:none;fill-rule:nonzero;fill:rgb(19.999695%,19.999695%,19.999695%);fill-opacity:1;" d="M 313.566406 220.074219 C 311.941406 218.296875 310.859375 216.089844 310.554688 213.597656 C 310.46875 213.101562 310.402344 212.625 310.402344 212.105469 C 310.402344 209.785156 311.097656 207.597656 312.289062 205.757812 C 313.308594 204.199219 314.695312 202.921875 316.34375 201.988281 C 316.6875 201.796875 316.992188 201.601562 317.359375 201.449219 C 318.8125 200.796875 320.394531 200.429688 322.0625 200.429688 C 322.519531 200.429688 322.929688 200.515625 323.363281 200.539062 C 325.988281 200.84375 328.328125 201.945312 330.148438 203.679688 C 332.359375 205.824219 333.746094 208.789062 333.746094 212.105469 C 333.746094 212.558594 333.660156 213.035156 333.617188 213.46875 C 332.921875 219.25 328.046875 223.777344 322.0625 223.777344 C 318.703125 223.777344 315.691406 222.347656 313.566406 220.074219 Z M 171.300781 202.011719 C 170.953125 201.816406 170.628906 201.621094 170.28125 201.449219 C 168.832031 200.820312 167.25 200.429688 165.558594 200.429688 C 165.125 200.429688 164.714844 200.515625 164.28125 200.5625 C 161.65625 200.863281 159.292969 201.96875 157.496094 203.699219 C 155.285156 205.824219 153.875 208.8125 153.875 212.105469 C 153.875 212.578125 153.984375 213.035156 154.027344 213.488281 C 154.722656 219.273438 159.597656 223.777344 165.578125 223.777344 C 168.9375 223.777344 171.929688 222.324219 174.074219 220.050781 C 175.703125 218.296875 176.785156 216.066406 177.089844 213.578125 C 177.152344 213.101562 177.242188 212.601562 177.242188 212.105469 C 177.242188 209.765625 176.546875 207.597656 175.355469 205.757812 C 174.3125 204.199219 172.925781 202.941406 171.300781 202.011719 Z M 141.066406 205.800781 C 139.59375 203.398438 138.683594 200.5625 138.683594 197.527344 C 138.683594 188.800781 145.683594 181.71875 154.375 181.523438 C 155.285156 180.65625 156.261719 179.835938 157.257812 179.011719 L 157.257812 142.128906 C 157.257812 131.34375 168.3125 122.898438 182.398438 122.898438 L 305.222656 122.898438 C 319.3125 122.898438 330.363281 131.34375 330.363281 142.128906 L 330.363281 179.011719 C 331.363281 179.835938 332.335938 180.65625 333.246094 181.503906 C 341.9375 181.71875 348.917969 188.800781 348.917969 197.527344 C 348.917969 200.5625 348.027344 203.375 346.554688 205.800781 C 346.664062 206.863281 346.816406 207.902344 346.816406 208.984375 L 346.816406 235.449219 C 346.816406 236.726562 345.773438 237.765625 344.496094 237.765625 L 299.804688 237.765625 L 299.804688 189.925781 C 299.804688 180.765625 288.6875 173.597656 274.46875 173.597656 L 213.152344 173.597656 C 198.9375 173.597656 187.816406 180.765625 187.816406 189.925781 L 187.816406 237.765625 L 143.125 237.765625 C 141.824219 237.765625 140.785156 236.726562 140.785156 235.449219 L 140.785156 208.964844 C 140.785156 207.902344 140.957031 206.863281 141.066406 205.800781 Z M 308.367188 220.960938 C 311.269531 225.464844 316.320312 228.453125 322.0625 228.453125 C 330.929688 228.453125 338.125 221.351562 338.363281 212.535156 C 338.363281 212.40625 338.425781 212.253906 338.425781 212.105469 C 338.425781 206.148438 335.15625 200.972656 330.363281 198.113281 C 328.285156 196.878906 325.898438 196.121094 323.363281 195.90625 C 322.929688 195.882812 322.519531 195.773438 322.0625 195.773438 C 320.242188 195.773438 318.53125 196.140625 316.882812 196.707031 C 316.710938 196.769531 316.515625 196.792969 316.34375 196.855469 C 311.703125 198.613281 308.128906 202.378906 306.566406 207.121094 C 306.070312 208.703125 305.699219 210.371094 305.699219 212.105469 C 305.699219 212.816406 305.832031 213.46875 305.917969 214.140625 C 306.242188 216.628906 307.042969 218.945312 308.367188 220.960938 Z M 181.035156 207.101562 C 179.496094 202.378906 175.917969 198.613281 171.28125 196.855469 C 171.105469 196.792969 170.910156 196.75 170.714844 196.683594 C 169.089844 196.140625 167.378906 195.773438 165.558594 195.773438 C 165.101562 195.773438 164.691406 195.859375 164.257812 195.90625 C 161.722656 196.097656 159.335938 196.855469 157.257812 198.113281 C 152.445312 200.949219 149.195312 206.125 149.195312 212.105469 C 149.195312 212.234375 149.238281 212.386719 149.238281 212.535156 C 149.476562 221.351562 156.695312 228.433594 165.558594 228.433594 C 171.300781 228.433594 176.351562 225.445312 179.257812 220.941406 C 180.554688 218.945312 181.378906 216.628906 181.683594 214.140625 C 181.792969 213.46875 181.898438 212.796875 181.898438 212.105469 C 181.898438 210.347656 181.554688 208.703125 181.035156 207.101562 Z M 164.28125 153.371094 C 164.28125 157.269531 167.054688 160.734375 171.28125 162.964844 C 174.164062 164.503906 177.738281 165.453125 181.683594 165.542969 C 194.730469 160.753906 210.03125 157.941406 226.441406 157.941406 L 261.183594 157.941406 C 277.589844 157.941406 292.890625 160.753906 305.9375 165.542969 C 309.863281 165.453125 313.4375 164.503906 316.34375 162.964844 C 320.570312 160.710938 323.34375 157.269531 323.34375 153.371094 L 323.34375 142.128906 C 323.34375 135.375 315.238281 129.894531 305.222656 129.894531 L 182.398438 129.894531 C 172.386719 129.894531 164.28125 135.375 164.28125 142.128906 Z M 192.5 207.1875 L 192.5 238.351562 L 197.980469 238.351562 L 197.980469 182.175781 C 194.621094 184.253906 192.5 186.980469 192.5 189.925781 Z M 289.640625 207.1875 L 289.640625 238.351562 L 295.125 238.351562 L 295.125 189.925781 C 295.125 186.980469 293 184.253906 289.640625 182.175781 Z M 246.140625 214.183594 L 246.140625 238.351562 L 252.339844 238.351562 L 252.339844 178.277344 L 246.140625 178.277344 Z M 257.019531 214.183594 L 257.019531 238.351562 L 263.21875 238.351562 L 263.21875 178.277344 L 257.019531 178.277344 Z M 267.902344 214.183594 L 267.902344 238.351562 L 274.101562 238.351562 L 274.101562 178.277344 L 267.902344 178.277344 Z M 278.761719 214.183594 L 278.761719 238.351562 L 284.980469 238.351562 L 284.980469 179.988281 C 283.050781 179.335938 280.992188 178.816406 278.761719 178.558594 Z M 213.523438 214.183594 L 213.523438 238.351562 L 219.722656 238.351562 L 219.722656 178.277344 L 213.523438 178.277344 Z M 235.261719 214.183594 L 235.261719 238.351562 L 241.460938 238.351562 L 241.460938 178.277344 L 235.261719 178.277344 Z M 224.402344 214.183594 L 224.402344 238.351562 L 230.601562 238.351562 L 230.601562 178.277344 L 224.402344 178.277344 Z M 202.640625 214.183594 L 202.640625 238.351562 L 208.863281 238.351562 L 208.863281 178.558594 C 206.628906 178.839844 204.570312 179.335938 202.640625 179.988281 Z M 350.21875 241.882812 L 137.402344 241.882812 C 136.105469 241.882812 135.0625 242.921875 135.0625 244.199219 L 135.0625 253.53125 C 135.0625 254.832031 136.105469 255.871094 137.402344 255.871094 L 350.21875 255.871094 C 351.519531 255.871094 352.558594 254.8125 352.558594 253.53125 L 352.558594 244.199219 C 352.558594 242.921875 351.519531 241.882812 350.21875 241.882812 Z M 179.863281 259.660156 L 147.15625 259.660156 C 145.855469 259.660156 144.839844 260.703125 144.839844 262 L 144.839844 283.570312 C 144.839844 290.003906 150.0625 295.242188 156.5 295.242188 L 170.523438 295.242188 C 176.980469 295.242188 182.203125 290.023438 182.203125 283.570312 L 182.203125 262 C 182.203125 260.722656 181.164062 259.660156 179.863281 259.660156 Z M 340.464844 259.660156 L 307.757812 259.660156 C 306.480469 259.660156 305.417969 260.703125 305.417969 262 L 305.417969 283.570312 C 305.417969 290.003906 310.664062 295.242188 317.101562 295.242188 L 331.125 295.242188 C 337.5625 295.242188 342.804688 290.023438 342.804688 283.570312 L 342.804688 262 C 342.804688 260.722656 341.765625 259.660156 340.464844 259.660156 Z M 340.464844 259.660156 "/>
</g>
</g>
</svg>
